<svg xmlns="http://www.w3.org/2000/svg" xmlns:xlink="http://www.w3.org/1999/xlink" width="480" zoomAndPan="magnify" viewBox="0 0 360 359.999987" height="480" preserveAspectRatio="xMidYMid meet" version="1.0"><defs><g/><clipPath id="252438a9c7"><path d="M 3.53125 3.53125 L 354.53125 3.53125 L 354.53125 354.53125 L 3.53125 354.53125 Z M 3.53125 3.53125 " clip-rule="nonzero"/></clipPath><clipPath id="5572730511"><path d="M 204 203 L 322 203 L 322 341 L 204 341 Z M 204 203 " clip-rule="nonzero"/></clipPath><clipPath id="a1b81e26c4"><path d="M 302.679688 179.996094 L 347.199219 284.945312 L 209.109375 343.523438 L 164.589844 238.574219 Z M 302.679688 179.996094 " clip-rule="nonzero"/></clipPath><clipPath id="55e291790b"><path d="M 302.679688 179.996094 L 347.199219 284.945312 L 209.109375 343.523438 L 164.589844 238.574219 Z M 302.679688 179.996094 " clip-rule="nonzero"/></clipPath><clipPath id="334ba5621f"><path d="M 204 284 L 252 284 L 252 341 L 204 341 Z M 204 284 " clip-rule="nonzero"/></clipPath><clipPath id="cce9dbd056"><path d="M 302.679688 179.996094 L 347.199219 284.945312 L 209.109375 343.523438 L 164.589844 238.574219 Z M 302.679688 179.996094 " clip-rule="nonzero"/></clipPath><clipPath id="5a4635a28e"><path d="M 302.679688 179.996094 L 347.199219 284.945312 L 209.109375 343.523438 L 164.589844 238.574219 Z M 302.679688 179.996094 " clip-rule="nonzero"/></clipPath><clipPath id="e8d664e00b"><path d="M 226 203 L 322 203 L 322 299 L 226 299 Z M 226 203 " clip-rule="nonzero"/></clipPath><clipPath id="ec2c1e85a6"><path d="M 302.679688 179.996094 L 347.199219 284.945312 L 209.109375 343.523438 L 164.589844 238.574219 Z M 302.679688 179.996094 " clip-rule="nonzero"/></clipPath><clipPath id="ed2de18c1c"><path d="M 302.679688 179.996094 L 347.199219 284.945312 L 209.109375 343.523438 L 164.589844 238.574219 Z M 302.679688 179.996094 " clip-rule="nonzero"/></clipPath><clipPath id="3a234b7446"><path d="M 233 211 L 314 211 L 314 292 L 233 292 Z M 233 211 " clip-rule="nonzero"/></clipPath><clipPath id="5557886a28"><path d="M 302.679688 179.996094 L 347.199219 284.945312 L 209.109375 343.523438 L 164.589844 238.574219 Z M 302.679688 179.996094 " clip-rule="nonzero"/></clipPath><clipPath id="92cd83d2cb"><path d="M 302.679688 179.996094 L 347.199219 284.945312 L 209.109375 343.523438 L 164.589844 238.574219 Z M 302.679688 179.996094 " clip-rule="nonzero"/></clipPath><clipPath id="82dcc5a862"><path d="M 231 228 L 307 228 L 307 304 L 231 304 Z M 231 228 " clip-rule="nonzero"/></clipPath><clipPath id="4864bd33a5"><path d="M 302.679688 179.996094 L 347.199219 284.945312 L 209.109375 343.523438 L 164.589844 238.574219 Z M 302.679688 179.996094 " clip-rule="nonzero"/></clipPath><clipPath id="8747163d86"><path d="M 302.679688 179.996094 L 347.199219 284.945312 L 209.109375 343.523438 L 164.589844 238.574219 Z M 302.679688 179.996094 " clip-rule="nonzero"/></clipPath></defs><g clip-path="url(#252438a9c7)"><path fill="#545454" d="M 90.5 3.53125 L 267.75 3.53125 C 269.171875 3.53125 270.597656 3.566406 272.015625 3.636719 C 273.4375 3.707031 274.859375 3.8125 276.273438 3.949219 C 277.691406 4.089844 279.101562 4.265625 280.511719 4.472656 C 281.917969 4.683594 283.320312 4.925781 284.71875 5.203125 C 286.113281 5.480469 287.5 5.792969 288.882812 6.136719 C 290.261719 6.484375 291.632812 6.863281 292.996094 7.277344 C 294.359375 7.691406 295.710938 8.136719 297.050781 8.617188 C 298.390625 9.09375 299.71875 9.609375 301.03125 10.152344 C 302.347656 10.695312 303.648438 11.273438 304.933594 11.882812 C 306.222656 12.492188 307.492188 13.128906 308.746094 13.800781 C 310.003906 14.472656 311.242188 15.171875 312.460938 15.90625 C 313.683594 16.636719 314.882812 17.398438 316.066406 18.1875 C 317.25 18.980469 318.414062 19.800781 319.558594 20.648438 C 320.699219 21.496094 321.824219 22.371094 322.921875 23.273438 C 324.023438 24.175781 325.101562 25.105469 326.15625 26.0625 C 327.210938 27.015625 328.242188 28 329.246094 29.003906 C 330.253906 30.011719 331.234375 31.042969 332.191406 32.097656 C 333.144531 33.152344 334.074219 34.226562 334.976562 35.328125 C 335.882812 36.429688 336.757812 37.550781 337.605469 38.695312 C 338.453125 39.835938 339.273438 41 340.0625 42.183594 C 340.851562 43.367188 341.613281 44.570312 342.347656 45.789062 C 343.078125 47.011719 343.78125 48.25 344.449219 49.503906 C 345.121094 50.757812 345.761719 52.03125 346.371094 53.316406 C 346.976562 54.605469 347.554688 55.90625 348.097656 57.21875 C 348.644531 58.535156 349.15625 59.863281 349.636719 61.203125 C 350.113281 62.542969 350.5625 63.894531 350.976562 65.253906 C 351.386719 66.617188 351.765625 67.988281 352.113281 69.371094 C 352.460938 70.75 352.769531 72.136719 353.046875 73.535156 C 353.324219 74.929688 353.570312 76.332031 353.777344 77.742188 C 353.988281 79.148438 354.160156 80.558594 354.300781 81.976562 C 354.441406 83.394531 354.546875 84.8125 354.613281 86.234375 C 354.683594 87.65625 354.71875 89.078125 354.71875 90.5 L 354.71875 267.75 C 354.71875 269.171875 354.683594 270.597656 354.613281 272.015625 C 354.546875 273.4375 354.441406 274.859375 354.300781 276.273438 C 354.160156 277.691406 353.988281 279.101562 353.777344 280.511719 C 353.570312 281.917969 353.324219 283.320312 353.046875 284.71875 C 352.769531 286.113281 352.460938 287.5 352.113281 288.882812 C 351.765625 290.261719 351.386719 291.632812 350.976562 292.996094 C 350.5625 294.359375 350.113281 295.710938 349.636719 297.050781 C 349.15625 298.390625 348.644531 299.71875 348.097656 301.03125 C 347.554688 302.347656 346.976562 303.648438 346.371094 304.933594 C 345.761719 306.222656 345.121094 307.492188 344.449219 308.746094 C 343.78125 310.003906 343.078125 311.242188 342.347656 312.460938 C 341.613281 313.683594 340.851562 314.882812 340.0625 316.066406 C 339.273438 317.25 338.453125 318.414062 337.605469 319.558594 C 336.757812 320.699219 335.882812 321.824219 334.976562 322.921875 C 334.074219 324.023438 333.144531 325.101562 332.191406 326.15625 C 331.234375 327.210938 330.253906 328.242188 329.246094 329.246094 C 328.242188 330.253906 327.210938 331.234375 326.15625 332.191406 C 325.101562 333.144531 324.023438 334.074219 322.921875 334.976562 C 321.824219 335.882812 320.699219 336.757812 319.558594 337.605469 C 318.414062 338.453125 317.25 339.273438 316.066406 340.0625 C 314.882812 340.851562 313.683594 341.613281 312.460938 342.347656 C 311.242188 343.078125 310.003906 343.78125 308.746094 344.449219 C 307.492188 345.121094 306.222656 345.761719 304.933594 346.371094 C 303.648438 346.976562 302.347656 347.554688 301.03125 348.097656 C 299.71875 348.644531 298.390625 349.15625 297.050781 349.636719 C 295.710938 350.113281 294.359375 350.5625 292.996094 350.976562 C 291.632812 351.386719 290.261719 351.765625 288.882812 352.113281 C 287.5 352.457031 286.113281 352.769531 284.71875 353.046875 C 283.320312 353.324219 281.917969 353.570312 280.511719 353.777344 C 279.101562 353.988281 277.691406 354.160156 276.273438 354.300781 C 274.859375 354.441406 273.4375 354.546875 272.015625 354.613281 C 270.597656 354.683594 269.171875 354.71875 267.75 354.71875 L 90.5 354.71875 C 89.078125 354.71875 87.65625 354.683594 86.234375 354.613281 C 84.8125 354.546875 83.394531 354.441406 81.976562 354.300781 C 80.558594 354.160156 79.148438 353.988281 77.742188 353.777344 C 76.332031 353.570312 74.929688 353.324219 73.535156 353.046875 C 72.136719 352.769531 70.75 352.460938 69.371094 352.113281 C 67.988281 351.765625 66.617188 351.386719 65.253906 350.976562 C 63.894531 350.5625 62.542969 350.113281 61.203125 349.636719 C 59.863281 349.15625 58.535156 348.644531 57.21875 348.097656 C 55.90625 347.554688 54.605469 346.976562 53.316406 346.371094 C 52.03125 345.761719 50.757812 345.121094 49.503906 344.449219 C 48.25 343.78125 47.011719 343.078125 45.789062 342.347656 C 44.570312 341.613281 43.367188 340.851562 42.183594 340.0625 C 41 339.273438 39.835938 338.453125 38.695312 337.605469 C 37.550781 336.757812 36.429688 335.882812 35.328125 334.976562 C 34.226562 334.074219 33.152344 333.144531 32.097656 332.191406 C 31.042969 331.234375 30.011719 330.253906 29.003906 329.246094 C 28 328.242188 27.015625 327.210938 26.0625 326.15625 C 25.105469 325.101562 24.175781 324.023438 23.273438 322.921875 C 22.371094 321.824219 21.496094 320.699219 20.648438 319.558594 C 19.800781 318.414062 18.980469 317.25 18.1875 316.066406 C 17.398438 314.882812 16.636719 313.683594 15.90625 312.460938 C 15.171875 311.242188 14.472656 310.003906 13.800781 308.746094 C 13.128906 307.492188 12.492188 306.222656 11.882812 304.933594 C 11.273438 303.648438 10.695312 302.347656 10.152344 301.03125 C 9.609375 299.71875 9.09375 298.390625 8.617188 297.050781 C 8.136719 295.710938 7.691406 294.359375 7.277344 292.996094 C 6.863281 291.632812 6.484375 290.261719 6.136719 288.882812 C 5.792969 287.5 5.480469 286.113281 5.203125 284.71875 C 4.925781 283.320312 4.683594 281.917969 4.472656 280.511719 C 4.265625 279.101562 4.089844 277.691406 3.949219 276.273438 C 3.8125 274.859375 3.707031 273.4375 3.636719 272.015625 C 3.566406 270.597656 3.53125 269.171875 3.53125 267.75 L 3.53125 90.5 C 3.53125 89.078125 3.566406 87.65625 3.636719 86.234375 C 3.707031 84.8125 3.8125 83.394531 3.949219 81.976562 C 4.089844 80.558594 4.265625 79.148438 4.472656 77.742188 C 4.683594 76.332031 4.925781 74.929688 5.203125 73.535156 C 5.480469 72.136719 5.792969 70.75 6.136719 69.371094 C 6.484375 67.988281 6.863281 66.617188 7.277344 65.253906 C 7.691406 63.894531 8.136719 62.542969 8.617188 61.203125 C 9.09375 59.863281 9.609375 58.535156 10.152344 57.21875 C 10.695312 55.90625 11.273438 54.605469 11.882812 53.316406 C 12.492188 52.03125 13.128906 50.757812 13.800781 49.503906 C 14.472656 48.25 15.171875 47.011719 15.90625 45.789062 C 16.636719 44.570312 17.398438 43.367188 18.1875 42.183594 C 18.980469 41 19.800781 39.835938 20.648438 38.695312 C 21.496094 37.550781 22.371094 36.429688 23.273438 35.328125 C 24.175781 34.226562 25.105469 33.152344 26.0625 32.097656 C 27.015625 31.042969 28 30.011719 29.003906 29.003906 C 30.011719 28 31.042969 27.015625 32.097656 26.0625 C 33.152344 25.105469 34.226562 24.175781 35.328125 23.273438 C 36.429688 22.371094 37.550781 21.496094 38.695312 20.648438 C 39.835938 19.800781 41 18.980469 42.183594 18.1875 C 43.367188 17.398438 44.570312 16.636719 45.789062 15.90625 C 47.011719 15.171875 48.25 14.472656 49.503906 13.800781 C 50.757812 13.128906 52.03125 12.492188 53.316406 11.882812 C 54.605469 11.273438 55.90625 10.695312 57.21875 10.152344 C 58.535156 9.609375 59.863281 9.09375 61.203125 8.617188 C 62.542969 8.136719 63.894531 7.691406 65.253906 7.277344 C 66.617188 6.863281 67.988281 6.484375 69.371094 6.136719 C 70.75 5.792969 72.136719 5.480469 73.535156 5.203125 C 74.929688 4.925781 76.332031 4.683594 77.742188 4.472656 C 79.148438 4.265625 80.558594 4.089844 81.976562 3.949219 C 83.394531 3.8125 84.8125 3.707031 86.234375 3.636719 C 87.65625 3.566406 89.078125 3.53125 90.5 3.53125 Z M 90.5 3.53125 " fill-opacity="1" fill-rule="nonzero"/></g><g clip-path="url(#5572730511)"><g clip-path="url(#a1b81e26c4)"><g clip-path="url(#55e291790b)"><path fill="#f95c32" d="M 215.773438 340.421875 L 204.082031 331.605469 L 232.183594 294.332031 L 231.96875 294.214844 L 232.109375 293.796875 L 232.359375 293.621094 L 232.648438 293.714844 L 239.742188 284.308594 C 223.671875 267.785156 221.601562 241.5625 235.910156 222.589844 C 251.710938 201.625 281.515625 197.445312 302.480469 213.25 C 323.441406 229.054688 327.625 258.863281 311.820312 279.824219 C 297.515625 298.800781 271.738281 304.023438 251.429688 293.121094 L 244.335938 302.535156 L 244.539062 302.78125 L 244.5 303.140625 L 244.15625 303.203125 L 243.867188 303.152344 Z M 215.773438 340.421875 " fill-opacity="1" fill-rule="nonzero"/></g></g></g><g clip-path="url(#334ba5621f)"><g clip-path="url(#cce9dbd056)"><g clip-path="url(#5a4635a28e)"><path fill="#f95c32" d="M 204.082031 331.605469 L 232.183594 294.332031 L 232.492188 294.601562 L 232.832031 294.832031 L 233.117188 295.128906 L 233.484375 295.320312 L 233.753906 295.644531 L 234.136719 295.816406 L 234.421875 296.109375 L 234.746094 296.359375 L 235.070312 296.605469 L 235.414062 296.820312 L 235.769531 297.03125 L 236.023438 297.363281 L 236.351562 297.605469 L 236.726562 297.785156 L 237.011719 298.082031 L 237.363281 298.292969 L 237.667969 298.5625 L 238.03125 298.761719 L 238.3125 299.0625 L 238.652344 299.289062 L 239 299.5 L 239.285156 299.792969 L 239.664062 299.96875 L 239.960938 300.25 L 240.296875 300.480469 L 240.613281 300.734375 L 240.921875 301 L 241.21875 301.28125 L 241.59375 301.457031 L 241.886719 301.746094 L 242.238281 301.949219 L 242.550781 302.214844 L 242.894531 302.429688 L 243.203125 302.695312 L 243.867188 303.15625 L 215.773438 340.421875 Z M 232.960938 293.976562 L 233.351562 294.128906 L 233.640625 294.414062 L 233.9375 294.699219 L 234.324219 294.855469 L 234.648438 295.101562 L 234.929688 295.402344 L 235.261719 295.636719 L 235.621094 295.835938 L 235.890625 296.152344 L 236.238281 296.367188 L 236.558594 296.613281 L 236.84375 296.910156 L 237.191406 297.125 L 237.523438 297.359375 L 237.824219 297.636719 L 238.179688 297.839844 L 238.515625 298.070312 L 238.8125 298.355469 L 239.160156 298.566406 L 239.515625 298.769531 L 239.828125 299.03125 L 240.136719 299.300781 L 240.496094 299.5 L 240.742188 299.847656 L 241.070312 300.089844 L 241.445312 300.265625 L 242.101562 300.75 L 242.414062 301.007812 L 242.691406 301.320312 L 243.035156 301.542969 L 243.363281 301.78125 L 243.671875 302.054688 L 244.046875 302.238281 L 244.335938 302.535156 L 251.429688 293.121094 C 249.304688 291.980469 247.234375 290.660156 245.246094 289.164062 C 243.261719 287.664062 241.425781 286.039062 239.742188 284.308594 L 232.648438 293.714844 Z M 232.960938 293.976562 " fill-opacity="1" fill-rule="nonzero"/></g></g></g><g clip-path="url(#e8d664e00b)"><g clip-path="url(#ec2c1e85a6)"><g clip-path="url(#ed2de18c1c)"><path fill="#38b6ff" d="M 251.429688 293.121094 C 271.738281 304.023438 297.515625 298.800781 311.820312 279.824219 C 327.625 258.863281 323.441406 229.054688 302.480469 213.25 C 281.515625 197.445312 251.710938 201.625 235.90625 222.589844 C 221.601562 241.5625 223.671875 267.785156 239.742188 284.308594 C 241.425781 286.039062 243.261719 287.664062 245.25 289.164062 C 247.234375 290.660156 249.304688 291.980469 251.429688 293.121094 Z M 242.019531 227.195312 C 255.277344 209.609375 280.285156 206.097656 297.875 219.359375 C 315.460938 232.621094 318.96875 257.628906 305.710938 275.21875 C 292.449219 292.804688 267.441406 296.316406 249.855469 283.054688 C 232.265625 269.792969 228.757812 244.785156 242.019531 227.195312 Z M 242.019531 227.195312 " fill-opacity="1" fill-rule="nonzero"/></g></g></g><g clip-path="url(#3a234b7446)"><g clip-path="url(#5557886a28)"><g clip-path="url(#92cd83d2cb)"><path fill="#c4f2fa" d="M 305.710938 275.21875 C 318.96875 257.628906 315.460938 232.621094 297.875 219.359375 C 280.285156 206.097656 255.277344 209.609375 242.019531 227.195312 C 228.757812 244.785156 232.265625 269.792969 249.855469 283.054688 C 267.441406 296.316406 292.449219 292.804688 305.710938 275.21875 Z M 305.664062 246.785156 L 305.6875 246.363281 L 305.644531 245.953125 L 305.535156 245.554688 L 305.488281 245.144531 L 305.316406 244.757812 L 305.253906 244.351562 L 305.214844 243.941406 L 305.105469 243.542969 L 305.039062 243.136719 L 304.941406 242.738281 L 304.878906 242.328125 L 304.785156 241.925781 L 304.609375 241.550781 L 304.515625 241.148438 L 304.433594 240.742188 L 304.304688 240.351562 L 304.179688 239.960938 L 304.09375 239.554688 L 303.976562 239.160156 L 303.835938 238.773438 L 303.683594 238.390625 L 303.503906 238.019531 L 303.402344 237.617188 L 303.261719 237.230469 L 302.992188 236.894531 L 302.90625 236.484375 L 302.78125 236.089844 L 302.527344 235.753906 L 302.335938 235.390625 L 302.265625 234.964844 L 302.050781 234.613281 L 301.816406 234.269531 L 301.59375 233.921875 L 301.476562 233.519531 L 301.296875 233.148438 L 301.113281 232.777344 L 300.886719 232.433594 L 300.671875 232.085938 L 300.398438 231.769531 L 300.304688 231.34375 L 299.976562 231.0625 L 299.859375 230.652344 L 299.644531 230.300781 L 299.359375 229.992188 L 299.160156 229.632812 L 298.882812 229.324219 L 298.679688 228.960938 L 298.644531 228.671875 L 298.789062 228.441406 L 299.066406 228.328125 L 299.394531 228.449219 L 299.554688 228.839844 L 299.792969 229.171875 L 300.269531 229.84375 L 300.511719 230.175781 L 300.761719 230.507812 L 300.9375 230.878906 L 301.105469 231.257812 L 301.382812 231.570312 L 301.53125 231.960938 L 301.761719 232.304688 L 301.972656 232.65625 L 302.222656 232.988281 L 302.34375 233.390625 L 302.515625 233.765625 L 302.765625 234.097656 L 302.921875 234.480469 L 303.027344 234.886719 L 303.328125 235.203125 L 303.496094 235.578125 L 303.566406 235.996094 L 303.777344 236.351562 L 303.976562 236.714844 L 304.035156 237.136719 L 304.234375 237.5 L 304.417969 237.871094 L 304.496094 238.277344 L 304.640625 238.664062 L 304.757812 239.058594 L 304.851562 239.460938 L 305.007812 239.839844 L 305.199219 240.214844 L 305.265625 240.621094 L 305.316406 241.035156 L 305.472656 241.417969 L 305.601562 241.808594 L 305.714844 242.207031 L 305.757812 242.617188 L 305.859375 243.015625 L 305.941406 243.417969 L 306.035156 243.820312 L 306.105469 244.222656 L 306.230469 244.621094 L 306.320312 245.019531 L 306.398438 245.425781 L 306.40625 245.839844 L 306.445312 246.25 L 306.554688 246.648438 L 306.550781 247.0625 L 306.648438 247.464844 L 306.652344 247.878906 L 306.730469 248.285156 L 306.710938 248.699219 L 306.792969 249.105469 L 306.78125 249.515625 L 306.789062 249.929688 L 306.929688 250.332031 L 306.941406 250.746094 L 306.882812 251.15625 L 306.964844 251.566406 L 306.957031 251.980469 L 306.898438 252.390625 L 306.882812 253.210938 L 306.921875 253.625 L 306.792969 254.03125 L 306.804688 254.441406 L 306.816406 254.855469 L 306.75 255.261719 L 306.679688 255.667969 L 306.746094 256.089844 L 306.699219 256.496094 L 306.617188 256.902344 L 306.558594 257.308594 L 306.5625 257.722656 L 306.410156 258.117188 L 306.363281 258.527344 L 306.273438 258.925781 L 306.203125 259.332031 L 306.230469 259.753906 L 306.160156 260.160156 L 305.980469 260.542969 L 305.925781 260.953125 L 305.816406 261.351562 L 305.667969 261.738281 L 305.59375 262.140625 L 305.550781 262.554688 L 305.476562 262.960938 L 305.347656 263.355469 L 305.238281 263.75 L 305.007812 264.109375 L 304.921875 264.515625 L 304.726562 264.78125 L 304.371094 264.855469 L 304.191406 264.527344 L 304.050781 264.230469 L 304.246094 263.863281 L 304.324219 263.453125 L 304.425781 263.054688 L 304.652344 262.691406 L 304.746094 262.292969 L 304.851562 261.894531 L 304.878906 261.476562 L 305.054688 261.09375 L 305.101562 260.683594 L 305.136719 260.269531 L 305.210938 259.867188 L 305.34375 259.472656 L 305.394531 259.0625 L 305.558594 258.675781 L 305.542969 258.253906 L 305.566406 257.84375 L 305.742188 257.453125 L 305.699219 257.03125 L 305.761719 256.625 L 305.875 256.222656 L 305.835938 255.808594 L 305.867188 255.398438 L 305.988281 254.992188 L 305.988281 254.582031 L 306.039062 254.171875 L 306.085938 253.761719 L 306.046875 253.347656 L 306.089844 252.9375 L 306.035156 252.523438 L 306.066406 252.113281 L 306.03125 251.703125 L 305.976562 251.292969 L 305.988281 250.878906 L 305.976562 250.46875 L 305.957031 250.058594 L 305.910156 249.648438 L 306.019531 249.230469 L 305.9375 248.824219 L 305.957031 248.410156 L 305.8125 248.007812 L 305.777344 247.601562 L 305.714844 247.191406 Z M 305.664062 246.785156 " fill-opacity="1" fill-rule="nonzero"/></g></g></g><g clip-path="url(#82dcc5a862)"><g clip-path="url(#4864bd33a5)"><g clip-path="url(#8747163d86)"><path fill="#18189b" d="M 305.777344 247.597656 L 305.714844 247.191406 L 305.664062 246.785156 L 305.6875 246.363281 L 305.644531 245.953125 L 305.535156 245.554688 L 305.488281 245.144531 L 305.316406 244.757812 L 305.253906 244.351562 L 305.214844 243.941406 L 305.105469 243.542969 L 305.039062 243.136719 L 304.941406 242.738281 L 304.878906 242.328125 L 304.789062 241.925781 L 304.609375 241.550781 L 304.515625 241.148438 L 304.4375 240.742188 L 304.304688 240.351562 L 304.179688 239.960938 L 304.09375 239.554688 L 303.976562 239.160156 L 303.835938 238.773438 L 303.683594 238.390625 L 303.503906 238.019531 L 303.402344 237.617188 L 303.261719 237.230469 L 302.992188 236.894531 L 302.90625 236.484375 L 302.78125 236.089844 L 302.527344 235.753906 L 302.335938 235.390625 L 302.265625 234.964844 L 302.050781 234.613281 L 301.816406 234.269531 L 301.59375 233.921875 L 301.476562 233.519531 L 301.296875 233.148438 L 301.113281 232.777344 L 300.886719 232.433594 L 300.671875 232.085938 L 300.398438 231.769531 L 300.304688 231.34375 L 299.976562 231.0625 L 299.859375 230.652344 L 299.644531 230.300781 L 299.359375 229.992188 L 299.160156 229.632812 L 298.882812 229.324219 L 298.679688 228.960938 L 298.644531 228.671875 L 298.789062 228.441406 L 299.066406 228.328125 L 299.394531 228.449219 L 299.554688 228.839844 L 299.792969 229.171875 L 300.269531 229.84375 L 300.511719 230.175781 L 300.761719 230.507812 L 300.9375 230.878906 L 301.105469 231.257812 L 301.382812 231.570312 L 301.53125 231.960938 L 301.761719 232.304688 L 301.972656 232.65625 L 302.222656 232.988281 L 302.34375 233.390625 L 302.515625 233.765625 L 302.765625 234.097656 L 302.921875 234.480469 L 303.027344 234.886719 L 303.328125 235.203125 L 303.496094 235.578125 L 303.566406 235.996094 L 303.777344 236.351562 L 303.976562 236.714844 L 304.035156 237.136719 L 304.234375 237.5 L 304.417969 237.871094 L 304.496094 238.277344 L 304.640625 238.664062 L 304.757812 239.058594 L 304.851562 239.460938 L 305.007812 239.839844 L 305.199219 240.214844 L 305.265625 240.621094 L 305.316406 241.035156 L 305.472656 241.417969 L 305.601562 241.808594 L 305.714844 242.207031 L 305.757812 242.617188 L 305.859375 243.015625 L 305.941406 243.417969 L 306.035156 243.820312 L 306.105469 244.222656 L 306.230469 244.621094 L 306.320312 245.019531 L 306.398438 245.425781 L 306.40625 245.839844 L 306.445312 246.25 L 306.554688 246.648438 L 306.550781 247.0625 L 306.648438 247.464844 L 306.652344 247.878906 L 306.730469 248.285156 L 306.710938 248.699219 L 306.792969 249.105469 L 306.78125 249.515625 L 306.789062 249.929688 L 306.929688 250.332031 L 306.941406 250.746094 L 306.882812 251.15625 L 306.964844 251.566406 L 306.957031 251.980469 L 306.898438 252.390625 L 306.882812 253.210938 L 306.921875 253.625 L 306.792969 254.03125 L 306.804688 254.441406 L 306.816406 254.855469 L 306.75 255.261719 L 306.679688 255.667969 L 306.746094 256.089844 L 306.699219 256.496094 L 306.617188 256.902344 L 306.558594 257.308594 L 306.5625 257.722656 L 306.410156 258.117188 L 306.363281 258.527344 L 306.273438 258.925781 L 306.203125 259.332031 L 306.230469 259.753906 L 306.160156 260.160156 L 305.980469 260.542969 L 305.925781 260.953125 L 305.816406 261.351562 L 305.667969 261.738281 L 305.59375 262.140625 L 305.550781 262.554688 L 305.476562 262.960938 L 305.347656 263.355469 L 305.238281 263.75 L 305.007812 264.109375 L 304.921875 264.515625 L 304.726562 264.78125 L 304.371094 264.855469 L 304.191406 264.527344 L 304.050781 264.230469 L 304.246094 263.863281 L 304.324219 263.453125 L 304.425781 263.054688 L 304.652344 262.691406 L 304.746094 262.292969 L 304.851562 261.894531 L 304.878906 261.476562 L 305.054688 261.09375 L 305.101562 260.683594 L 305.136719 260.269531 L 305.210938 259.867188 L 305.34375 259.472656 L 305.394531 259.0625 L 305.558594 258.675781 L 305.542969 258.253906 L 305.566406 257.84375 L 305.742188 257.453125 L 305.699219 257.03125 L 305.761719 256.625 L 305.875 256.222656 L 305.835938 255.808594 L 305.867188 255.398438 L 305.988281 254.992188 L 305.988281 254.582031 L 306.039062 254.171875 L 306.085938 253.761719 L 306.046875 253.347656 L 306.089844 252.9375 L 306.035156 252.523438 L 306.066406 252.113281 L 306.03125 251.703125 L 305.976562 251.292969 L 305.988281 250.878906 L 305.976562 250.46875 L 305.957031 250.058594 L 305.910156 249.648438 L 306.019531 249.230469 L 305.9375 248.824219 L 305.957031 248.410156 L 305.8125 248.007812 Z M 232.492188 294.601562 L 232.832031 294.832031 L 233.117188 295.128906 L 233.484375 295.320312 L 233.753906 295.644531 L 234.136719 295.816406 L 234.421875 296.109375 L 234.746094 296.359375 L 235.070312 296.605469 L 235.414062 296.820312 L 235.769531 297.03125 L 236.023438 297.363281 L 236.351562 297.605469 L 236.726562 297.785156 L 237.011719 298.082031 L 237.363281 298.292969 L 237.667969 298.5625 L 238.03125 298.761719 L 238.3125 299.0625 L 238.652344 299.289062 L 239 299.5 L 239.285156 299.792969 L 239.664062 299.96875 L 239.960938 300.25 L 240.296875 300.480469 L 240.613281 300.734375 L 240.921875 301 L 241.21875 301.28125 L 241.59375 301.457031 L 241.886719 301.746094 L 242.238281 301.949219 L 242.550781 302.214844 L 242.894531 302.429688 L 243.203125 302.695312 L 243.867188 303.15625 L 244.15625 303.207031 L 244.5 303.140625 L 244.539062 302.78125 L 244.335938 302.535156 L 244.046875 302.238281 L 243.671875 302.054688 L 243.367188 301.785156 L 243.035156 301.542969 L 242.691406 301.320312 L 242.417969 301.007812 L 242.101562 300.75 L 241.445312 300.265625 L 241.070312 300.089844 L 240.742188 299.851562 L 240.496094 299.5 L 240.136719 299.300781 L 239.828125 299.03125 L 239.515625 298.769531 L 239.160156 298.566406 L 238.8125 298.355469 L 238.519531 298.070312 L 238.179688 297.839844 L 237.824219 297.636719 L 237.527344 297.359375 L 237.191406 297.125 L 236.84375 296.910156 L 236.558594 296.613281 L 236.238281 296.367188 L 235.890625 296.152344 L 235.621094 295.839844 L 235.265625 295.636719 L 234.929688 295.402344 L 234.648438 295.101562 L 234.324219 294.855469 L 233.9375 294.699219 L 233.351562 294.128906 L 232.960938 293.976562 L 232.652344 293.714844 L 232.359375 293.621094 L 232.109375 293.796875 L 231.96875 294.214844 L 232.183594 294.332031 Z M 232.492188 294.601562 " fill-opacity="1" fill-rule="nonzero"/></g></g></g><g fill="#000000" fill-opacity="0.4"><g transform="translate(39.514222, 264.958822)"><g><path d="M 22.296875 0.75 C 16.421875 0.75 11.71875 -1.085938 8.1875 -4.765625 C 4.664062 -8.453125 2.90625 -13.515625 2.90625 -19.953125 L 2.90625 -57.03125 C 2.90625 -65.03125 4.492188 -71.054688 7.671875 -75.109375 C 10.859375 -79.171875 15.859375 -81.203125 22.671875 -81.203125 C 28.597656 -81.203125 33.367188 -79.578125 36.984375 -76.328125 C 40.609375 -73.078125 42.421875 -68.394531 42.421875 -62.28125 L 42.421875 -48.421875 L 26.40625 -48.421875 L 26.40625 -60.3125 C 26.40625 -62.625 26.125 -64.21875 25.5625 -65.09375 C 25 -65.96875 24.035156 -66.40625 22.671875 -66.40625 C 21.234375 -66.40625 20.25 -65.90625 19.71875 -64.90625 C 19.1875 -63.90625 18.921875 -62.4375 18.921875 -60.5 L 18.921875 -20.140625 C 18.921875 -18.015625 19.234375 -16.46875 19.859375 -15.5 C 20.484375 -14.53125 21.421875 -14.046875 22.671875 -14.046875 C 25.160156 -14.046875 26.40625 -16.078125 26.40625 -20.140625 L 26.40625 -34.65625 L 42.609375 -34.65625 L 42.609375 -19.484375 C 42.609375 -5.992188 35.835938 0.75 22.296875 0.75 Z M 22.296875 0.75 "/></g></g></g><g fill="#000000" fill-opacity="0.4"><g transform="translate(83.907208, 264.958822)"><g><path d="M 15.734375 0.75 C 10.429688 0.75 6.796875 -1.007812 4.828125 -4.53125 C 2.859375 -8.0625 1.875 -13.109375 1.875 -19.671875 C 1.875 -25.035156 2.578125 -29.15625 3.984375 -32.03125 C 5.390625 -34.90625 7.335938 -37.007812 9.828125 -38.34375 C 12.328125 -39.6875 16.140625 -41.171875 21.265625 -42.796875 L 25.75 -44.296875 L 25.75 -51.328125 C 25.75 -53.140625 25.390625 -54.523438 24.671875 -55.484375 C 23.953125 -56.453125 23.097656 -56.9375 22.109375 -56.9375 C 21.234375 -56.9375 20.46875 -56.53125 19.8125 -55.71875 C 19.15625 -54.914062 18.828125 -53.828125 18.828125 -52.453125 L 18.828125 -48.328125 L 2.90625 -48.328125 L 2.90625 -50.578125 C 2.90625 -57.316406 4.476562 -62.125 7.625 -65 C 10.78125 -67.875 15.921875 -69.3125 23.046875 -69.3125 C 28.722656 -69.3125 33.335938 -67.828125 36.890625 -64.859375 C 40.453125 -61.890625 42.234375 -57.691406 42.234375 -52.265625 L 42.234375 0 L 25.9375 0 L 25.9375 -8.140625 C 25.125 -5.335938 23.828125 -3.15625 22.046875 -1.59375 C 20.273438 -0.03125 18.171875 0.75 15.734375 0.75 Z M 22.203125 -11.984375 C 23.441406 -11.984375 24.328125 -12.5 24.859375 -13.53125 C 25.390625 -14.5625 25.65625 -15.828125 25.65625 -17.328125 L 25.65625 -36.4375 C 23.226562 -35.5 21.4375 -34.3125 20.28125 -32.875 C 19.125 -31.4375 18.546875 -29.4375 18.546875 -26.875 L 18.546875 -18.078125 C 18.546875 -14.015625 19.765625 -11.984375 22.203125 -11.984375 Z M 22.203125 -11.984375 "/></g></g></g><g fill="#000000" fill-opacity="0.4"><g transform="translate(129.143089, 264.958822)"><g><path d="M 3.28125 -68.5625 L 19.671875 -68.5625 L 19.671875 -60.96875 C 20.484375 -63.65625 21.898438 -65.734375 23.921875 -67.203125 C 25.953125 -68.671875 28.46875 -69.40625 31.46875 -69.40625 L 31.46875 -55.71875 C 29.15625 -55.71875 26.609375 -55.390625 23.828125 -54.734375 C 21.054688 -54.085938 19.671875 -53.328125 19.671875 -52.453125 L 19.671875 0 L 3.28125 0 Z M 3.28125 -68.5625 "/></g></g></g><g fill="#000000" fill-opacity="0.4"><g transform="translate(161.360778, 264.958822)"><g><path d="M 22.109375 0.75 C 8.554688 0.75 1.78125 -6.117188 1.78125 -19.859375 L 1.875 -25.28125 L 18.265625 -25.28125 L 18.359375 -17.234375 C 18.359375 -15.609375 18.671875 -14.375 19.296875 -13.53125 C 19.921875 -12.6875 20.953125 -12.265625 22.390625 -12.265625 C 24.566406 -12.265625 25.65625 -14.046875 25.65625 -17.609375 C 25.65625 -20.234375 25.140625 -22.289062 24.109375 -23.78125 C 23.085938 -25.28125 21.453125 -26.875 19.203125 -28.5625 L 10.484375 -35.3125 C 7.492188 -37.625 5.34375 -40.007812 4.03125 -42.46875 C 2.71875 -44.9375 2.0625 -48.421875 2.0625 -52.921875 C 2.0625 -56.410156 2.984375 -59.390625 4.828125 -61.859375 C 6.671875 -64.328125 9.117188 -66.1875 12.171875 -67.4375 C 15.234375 -68.6875 18.640625 -69.3125 22.390625 -69.3125 C 35.679688 -69.3125 42.328125 -62.691406 42.328125 -49.453125 L 42.328125 -48.140625 L 25.375 -48.140625 L 25.375 -50.765625 C 25.375 -52.390625 25.109375 -53.773438 24.578125 -54.921875 C 24.046875 -56.078125 23.160156 -56.65625 21.921875 -56.65625 C 20.796875 -56.65625 19.9375 -56.328125 19.34375 -55.671875 C 18.75 -55.015625 18.453125 -54.128906 18.453125 -53.015625 C 18.453125 -50.515625 19.421875 -48.578125 21.359375 -47.203125 L 31.46875 -39.796875 C 35.09375 -37.117188 37.867188 -34.203125 39.796875 -31.046875 C 41.734375 -27.890625 42.703125 -23.910156 42.703125 -19.109375 C 42.703125 -12.734375 40.890625 -7.828125 37.265625 -4.390625 C 33.648438 -0.960938 28.597656 0.75 22.109375 0.75 Z M 22.109375 0.75 "/></g></g></g><g fill="#f0f0f0" fill-opacity="1"><g transform="translate(31.235853, 256.680447)"><g><path d="M 22.296875 0.75 C 16.421875 0.75 11.71875 -1.085938 8.1875 -4.765625 C 4.664062 -8.453125 2.90625 -13.515625 2.90625 -19.953125 L 2.90625 -57.03125 C 2.90625 -65.03125 4.492188 -71.054688 7.671875 -75.109375 C 10.859375 -79.171875 15.859375 -81.203125 22.671875 -81.203125 C 28.597656 -81.203125 33.367188 -79.578125 36.984375 -76.328125 C 40.609375 -73.078125 42.421875 -68.394531 42.421875 -62.28125 L 42.421875 -48.421875 L 26.40625 -48.421875 L 26.40625 -60.3125 C 26.40625 -62.625 26.125 -64.21875 25.5625 -65.09375 C 25 -65.96875 24.035156 -66.40625 22.671875 -66.40625 C 21.234375 -66.40625 20.25 -65.90625 19.71875 -64.90625 C 19.1875 -63.90625 18.921875 -62.4375 18.921875 -60.5 L 18.921875 -20.140625 C 18.921875 -18.015625 19.234375 -16.46875 19.859375 -15.5 C 20.484375 -14.53125 21.421875 -14.046875 22.671875 -14.046875 C 25.160156 -14.046875 26.40625 -16.078125 26.40625 -20.140625 L 26.40625 -34.65625 L 42.609375 -34.65625 L 42.609375 -19.484375 C 42.609375 -5.992188 35.835938 0.75 22.296875 0.75 Z M 22.296875 0.75 "/></g></g></g><g fill="#f0f0f0" fill-opacity="1"><g transform="translate(75.628839, 256.680447)"><g><path d="M 15.734375 0.75 C 10.429688 0.75 6.796875 -1.007812 4.828125 -4.53125 C 2.859375 -8.0625 1.875 -13.109375 1.875 -19.671875 C 1.875 -25.035156 2.578125 -29.15625 3.984375 -32.03125 C 5.390625 -34.90625 7.335938 -37.007812 9.828125 -38.34375 C 12.328125 -39.6875 16.140625 -41.171875 21.265625 -42.796875 L 25.75 -44.296875 L 25.75 -51.328125 C 25.75 -53.140625 25.390625 -54.523438 24.671875 -55.484375 C 23.953125 -56.453125 23.097656 -56.9375 22.109375 -56.9375 C 21.234375 -56.9375 20.46875 -56.53125 19.8125 -55.71875 C 19.15625 -54.914062 18.828125 -53.828125 18.828125 -52.453125 L 18.828125 -48.328125 L 2.90625 -48.328125 L 2.90625 -50.578125 C 2.90625 -57.316406 4.476562 -62.125 7.625 -65 C 10.78125 -67.875 15.921875 -69.3125 23.046875 -69.3125 C 28.722656 -69.3125 33.335938 -67.828125 36.890625 -64.859375 C 40.453125 -61.890625 42.234375 -57.691406 42.234375 -52.265625 L 42.234375 0 L 25.9375 0 L 25.9375 -8.140625 C 25.125 -5.335938 23.828125 -3.15625 22.046875 -1.59375 C 20.273438 -0.03125 18.171875 0.75 15.734375 0.75 Z M 22.203125 -11.984375 C 23.441406 -11.984375 24.328125 -12.5 24.859375 -13.53125 C 25.390625 -14.5625 25.65625 -15.828125 25.65625 -17.328125 L 25.65625 -36.4375 C 23.226562 -35.5 21.4375 -34.3125 20.28125 -32.875 C 19.125 -31.4375 18.546875 -29.4375 18.546875 -26.875 L 18.546875 -18.078125 C 18.546875 -14.015625 19.765625 -11.984375 22.203125 -11.984375 Z M 22.203125 -11.984375 "/></g></g></g><g fill="#f0f0f0" fill-opacity="1"><g transform="translate(120.864719, 256.680447)"><g><path d="M 3.28125 -68.5625 L 19.671875 -68.5625 L 19.671875 -60.96875 C 20.484375 -63.65625 21.898438 -65.734375 23.921875 -67.203125 C 25.953125 -68.671875 28.46875 -69.40625 31.46875 -69.40625 L 31.46875 -55.71875 C 29.15625 -55.71875 26.609375 -55.390625 23.828125 -54.734375 C 21.054688 -54.085938 19.671875 -53.328125 19.671875 -52.453125 L 19.671875 0 L 3.28125 0 Z M 3.28125 -68.5625 "/></g></g></g><g fill="#f0f0f0" fill-opacity="1"><g transform="translate(153.082408, 256.680447)"><g><path d="M 22.109375 0.75 C 8.554688 0.75 1.78125 -6.117188 1.78125 -19.859375 L 1.875 -25.28125 L 18.265625 -25.28125 L 18.359375 -17.234375 C 18.359375 -15.609375 18.671875 -14.375 19.296875 -13.53125 C 19.921875 -12.6875 20.953125 -12.265625 22.390625 -12.265625 C 24.566406 -12.265625 25.65625 -14.046875 25.65625 -17.609375 C 25.65625 -20.234375 25.140625 -22.289062 24.109375 -23.78125 C 23.085938 -25.28125 21.453125 -26.875 19.203125 -28.5625 L 10.484375 -35.3125 C 7.492188 -37.625 5.34375 -40.007812 4.03125 -42.46875 C 2.71875 -44.9375 2.0625 -48.421875 2.0625 -52.921875 C 2.0625 -56.410156 2.984375 -59.390625 4.828125 -61.859375 C 6.671875 -64.328125 9.117188 -66.1875 12.171875 -67.4375 C 15.234375 -68.6875 18.640625 -69.3125 22.390625 -69.3125 C 35.679688 -69.3125 42.328125 -62.691406 42.328125 -49.453125 L 42.328125 -48.140625 L 25.375 -48.140625 L 25.375 -50.765625 C 25.375 -52.390625 25.109375 -53.773438 24.578125 -54.921875 C 24.046875 -56.078125 23.160156 -56.65625 21.921875 -56.65625 C 20.796875 -56.65625 19.9375 -56.328125 19.34375 -55.671875 C 18.75 -55.015625 18.453125 -54.128906 18.453125 -53.015625 C 18.453125 -50.515625 19.421875 -48.578125 21.359375 -47.203125 L 31.46875 -39.796875 C 35.09375 -37.117188 37.867188 -34.203125 39.796875 -31.046875 C 41.734375 -27.890625 42.703125 -23.910156 42.703125 -19.109375 C 42.703125 -12.734375 40.890625 -7.828125 37.265625 -4.390625 C 33.648438 -0.960938 28.597656 0.75 22.109375 0.75 Z M 22.109375 0.75 "/></g></g></g><g fill="#000000" fill-opacity="0.4"><g transform="translate(36.211487, 161.463149)"><g><path d="M 3.5625 -80.65625 L 25.8125 -80.65625 C 31.570312 -80.65625 35.890625 -79.054688 38.765625 -75.859375 C 41.648438 -72.671875 43.125 -67.945312 43.1875 -61.6875 L 43.375 -23.9375 C 43.4375 -15.988281 42.054688 -10.007812 39.234375 -6 C 36.421875 -2 31.757812 0 25.25 0 L 3.5625 0 Z M 22.625 -14.265625 C 25.570312 -14.265625 27.046875 -15.707031 27.046875 -18.59375 L 27.046875 -60.1875 C 27.046875 -62 26.90625 -63.359375 26.625 -64.265625 C 26.34375 -65.171875 25.820312 -65.78125 25.0625 -66.09375 C 24.3125 -66.40625 23.15625 -66.5625 21.59375 -66.5625 L 19.8125 -66.5625 L 19.8125 -14.265625 Z M 22.625 -14.265625 "/></g></g></g><g fill="#000000" fill-opacity="0.4"><g transform="translate(82.500054, 161.463149)"><g><path d="M 16.53125 0.75 C 11.394531 0.75 7.867188 -0.78125 5.953125 -3.84375 C 4.046875 -6.914062 3.09375 -11.488281 3.09375 -17.5625 L 3.09375 -68.734375 L 19.625 -68.734375 L 19.625 -20.84375 C 19.625 -20.40625 19.625 -19.226562 19.625 -17.3125 C 19.625 -15.40625 19.921875 -14.0625 20.515625 -13.28125 C 21.109375 -12.5 22.03125 -12.109375 23.28125 -12.109375 C 24.96875 -12.109375 26.03125 -12.8125 26.46875 -14.21875 C 26.914062 -15.632812 27.140625 -17.65625 27.140625 -20.28125 L 27.140625 -20.84375 L 27.234375 -68.734375 L 43.5625 -68.734375 L 43.5625 0 L 27.140625 0 L 27.140625 -7.328125 C 26.003906 -4.441406 24.6875 -2.375 23.1875 -1.125 C 21.6875 0.125 19.46875 0.75 16.53125 0.75 Z M 16.53125 0.75 "/></g></g></g><g fill="#000000" fill-opacity="0.4"><g transform="translate(129.351982, 161.463149)"><g><path d="M 3.28125 -68.734375 L 19.34375 -68.734375 L 19.34375 -60.75 C 20.09375 -63.6875 21.375 -65.875 23.1875 -67.3125 C 25 -68.757812 27.566406 -69.484375 30.890625 -69.484375 C 33.578125 -69.484375 35.90625 -68.867188 37.875 -67.640625 C 39.851562 -66.421875 41.25 -64.75 42.0625 -62.625 C 43.4375 -65 44.96875 -66.734375 46.65625 -67.828125 C 48.351562 -68.929688 50.703125 -69.484375 53.703125 -69.484375 C 59.085938 -69.484375 62.828125 -67.835938 64.921875 -64.546875 C 67.023438 -61.265625 68.078125 -56.492188 68.078125 -50.234375 L 67.890625 0 L 51.359375 0 L 51.359375 -50.515625 C 51.359375 -54.953125 50.234375 -57.171875 47.984375 -57.171875 C 46.410156 -57.171875 45.28125 -56.40625 44.59375 -54.875 C 43.90625 -53.34375 43.5625 -51.515625 43.5625 -49.390625 L 43.5625 0 L 27.140625 0 L 27.140625 -50.515625 C 27.140625 -52.453125 26.929688 -54.015625 26.515625 -55.203125 C 26.109375 -56.390625 25.25 -56.984375 23.9375 -56.984375 C 22.25 -56.984375 21.0625 -56.15625 20.375 -54.5 C 19.6875 -52.84375 19.34375 -50.859375 19.34375 -48.546875 L 19.34375 0 L 3.28125 0 Z M 3.28125 -68.734375 "/></g></g></g><g fill="#000000" fill-opacity="0.4"><g transform="translate(200.521838, 161.463149)"><g><path d="M 3.28125 -68.734375 L 20 -68.734375 L 20 -65.0625 C 22.375 -68.007812 25.660156 -69.484375 29.859375 -69.484375 C 35.179688 -69.484375 38.890625 -67.695312 40.984375 -64.125 C 43.078125 -60.5625 44.125 -55.617188 44.125 -49.296875 L 44.125 -23.84375 C 44.125 -18.46875 43.8125 -14.070312 43.1875 -10.65625 C 42.5625 -7.25 41.179688 -4.492188 39.046875 -2.390625 C 36.921875 -0.296875 33.703125 0.75 29.390625 0.75 C 25.253906 0.75 22.125 -0.40625 20 -2.71875 L 20 13.703125 L 3.28125 13.703125 Z M 23.9375 -12.015625 C 25.445312 -12.015625 26.421875 -12.703125 26.859375 -14.078125 C 27.296875 -15.460938 27.515625 -17.46875 27.515625 -20.09375 L 27.515625 -49.296875 C 27.515625 -51.671875 27.296875 -53.484375 26.859375 -54.734375 C 26.421875 -55.984375 25.414062 -56.609375 23.84375 -56.609375 C 21.28125 -56.609375 20 -54.234375 20 -49.484375 L 20 -19.34375 C 20 -17.03125 20.265625 -15.226562 20.796875 -13.9375 C 21.328125 -12.65625 22.375 -12.015625 23.9375 -12.015625 Z M 23.9375 -12.015625 "/></g></g></g><g fill="#000000" fill-opacity="0.4"><g transform="translate(247.467638, 161.463149)"><g><path d="M 22.53125 0.75 C 15.457031 0.75 10.382812 -1.1875 7.3125 -5.0625 C 4.25 -8.945312 2.71875 -14.738281 2.71875 -22.4375 L 2.71875 -50.046875 C 2.71875 -56.367188 4.53125 -61.1875 8.15625 -64.5 C 11.789062 -67.820312 16.863281 -69.484375 23.375 -69.484375 C 36.582031 -69.484375 43.1875 -63.003906 43.1875 -50.046875 L 43.1875 -45.0625 C 43.1875 -40.0625 43.125 -35.992188 43 -32.859375 L 19.15625 -32.859375 L 19.15625 -19.53125 C 19.15625 -17.15625 19.40625 -15.289062 19.90625 -13.9375 C 20.40625 -12.59375 21.46875 -11.921875 23.09375 -11.921875 C 24.34375 -11.921875 25.234375 -12.296875 25.765625 -13.046875 C 26.304688 -13.796875 26.625 -14.65625 26.71875 -15.625 C 26.8125 -16.601562 26.859375 -18.03125 26.859375 -19.90625 L 26.859375 -26.578125 L 43.1875 -26.578125 L 43.1875 -22.625 C 43.1875 -14.613281 41.632812 -8.710938 38.53125 -4.921875 C 35.4375 -1.140625 30.101562 0.75 22.53125 0.75 Z M 26.859375 -41.03125 L 26.859375 -49.859375 C 26.859375 -54.796875 25.632812 -57.265625 23.1875 -57.265625 C 20.4375 -57.265625 19.0625 -54.796875 19.0625 -49.859375 L 19.0625 -41.03125 Z M 26.859375 -41.03125 "/></g></g></g><g fill="#000000" fill-opacity="0.4"><g transform="translate(293.286759, 161.463149)"><g><path d="M 16.8125 0.75 C 12.800781 0.75 9.773438 -0.203125 7.734375 -2.109375 C 5.703125 -4.015625 4.359375 -6.546875 3.703125 -9.703125 C 3.046875 -12.867188 2.71875 -16.925781 2.71875 -21.875 L 2.90625 -52.859375 C 2.90625 -57.742188 4.140625 -61.734375 6.609375 -64.828125 C 9.085938 -67.929688 12.582031 -69.484375 17.09375 -69.484375 C 21.53125 -69.484375 24.847656 -68.007812 27.046875 -65.0625 L 27.046875 -81.125 L 43.46875 -81.125 L 43.46875 0 L 27.046875 0 L 27.046875 -7.328125 C 26.097656 -4.628906 24.828125 -2.609375 23.234375 -1.265625 C 21.640625 0.078125 19.5 0.75 16.8125 0.75 Z M 23.09375 -12.109375 C 24.71875 -12.109375 25.78125 -12.90625 26.28125 -14.5 C 26.789062 -16.101562 27.046875 -18.25 27.046875 -20.9375 L 27.046875 -49.671875 C 27.046875 -51.671875 26.757812 -53.359375 26.1875 -54.734375 C 25.625 -56.109375 24.625 -56.796875 23.1875 -56.796875 C 21.5625 -56.796875 20.484375 -56.15625 19.953125 -54.875 C 19.421875 -53.59375 19.15625 -51.859375 19.15625 -49.671875 L 19.15625 -20.75 C 19.15625 -14.988281 20.46875 -12.109375 23.09375 -12.109375 Z M 23.09375 -12.109375 "/></g></g></g><g fill="#f0f0f0" fill-opacity="1"><g transform="translate(28.078312, 153.329974)"><g><path d="M 3.5625 -80.65625 L 25.8125 -80.65625 C 31.570312 -80.65625 35.890625 -79.054688 38.765625 -75.859375 C 41.648438 -72.671875 43.125 -67.945312 43.1875 -61.6875 L 43.375 -23.9375 C 43.4375 -15.988281 42.054688 -10.007812 39.234375 -6 C 36.421875 -2 31.757812 0 25.25 0 L 3.5625 0 Z M 22.625 -14.265625 C 25.570312 -14.265625 27.046875 -15.707031 27.046875 -18.59375 L 27.046875 -60.1875 C 27.046875 -62 26.90625 -63.359375 26.625 -64.265625 C 26.34375 -65.171875 25.820312 -65.78125 25.0625 -66.09375 C 24.3125 -66.40625 23.15625 -66.5625 21.59375 -66.5625 L 19.8125 -66.5625 L 19.8125 -14.265625 Z M 22.625 -14.265625 "/></g></g></g><g fill="#f0f0f0" fill-opacity="1"><g transform="translate(74.36688, 153.329974)"><g><path d="M 16.53125 0.75 C 11.394531 0.75 7.867188 -0.78125 5.953125 -3.84375 C 4.046875 -6.914062 3.09375 -11.488281 3.09375 -17.5625 L 3.09375 -68.734375 L 19.625 -68.734375 L 19.625 -20.84375 C 19.625 -20.40625 19.625 -19.226562 19.625 -17.3125 C 19.625 -15.40625 19.921875 -14.0625 20.515625 -13.28125 C 21.109375 -12.5 22.03125 -12.109375 23.28125 -12.109375 C 24.96875 -12.109375 26.03125 -12.8125 26.46875 -14.21875 C 26.914062 -15.632812 27.140625 -17.65625 27.140625 -20.28125 L 27.140625 -20.84375 L 27.234375 -68.734375 L 43.5625 -68.734375 L 43.5625 0 L 27.140625 0 L 27.140625 -7.328125 C 26.003906 -4.441406 24.6875 -2.375 23.1875 -1.125 C 21.6875 0.125 19.46875 0.75 16.53125 0.75 Z M 16.53125 0.75 "/></g></g></g><g fill="#f0f0f0" fill-opacity="1"><g transform="translate(121.218807, 153.329974)"><g><path d="M 3.28125 -68.734375 L 19.34375 -68.734375 L 19.34375 -60.75 C 20.09375 -63.6875 21.375 -65.875 23.1875 -67.3125 C 25 -68.757812 27.566406 -69.484375 30.890625 -69.484375 C 33.578125 -69.484375 35.90625 -68.867188 37.875 -67.640625 C 39.851562 -66.421875 41.25 -64.75 42.0625 -62.625 C 43.4375 -65 44.96875 -66.734375 46.65625 -67.828125 C 48.351562 -68.929688 50.703125 -69.484375 53.703125 -69.484375 C 59.085938 -69.484375 62.828125 -67.835938 64.921875 -64.546875 C 67.023438 -61.265625 68.078125 -56.492188 68.078125 -50.234375 L 67.890625 0 L 51.359375 0 L 51.359375 -50.515625 C 51.359375 -54.953125 50.234375 -57.171875 47.984375 -57.171875 C 46.410156 -57.171875 45.28125 -56.40625 44.59375 -54.875 C 43.90625 -53.34375 43.5625 -51.515625 43.5625 -49.390625 L 43.5625 0 L 27.140625 0 L 27.140625 -50.515625 C 27.140625 -52.453125 26.929688 -54.015625 26.515625 -55.203125 C 26.109375 -56.390625 25.25 -56.984375 23.9375 -56.984375 C 22.25 -56.984375 21.0625 -56.15625 20.375 -54.5 C 19.6875 -52.84375 19.34375 -50.859375 19.34375 -48.546875 L 19.34375 0 L 3.28125 0 Z M 3.28125 -68.734375 "/></g></g></g><g fill="#f0f0f0" fill-opacity="1"><g transform="translate(192.388664, 153.329974)"><g><path d="M 3.28125 -68.734375 L 20 -68.734375 L 20 -65.0625 C 22.375 -68.007812 25.660156 -69.484375 29.859375 -69.484375 C 35.179688 -69.484375 38.890625 -67.695312 40.984375 -64.125 C 43.078125 -60.5625 44.125 -55.617188 44.125 -49.296875 L 44.125 -23.84375 C 44.125 -18.46875 43.8125 -14.070312 43.1875 -10.65625 C 42.5625 -7.25 41.179688 -4.492188 39.046875 -2.390625 C 36.921875 -0.296875 33.703125 0.75 29.390625 0.75 C 25.253906 0.75 22.125 -0.40625 20 -2.71875 L 20 13.703125 L 3.28125 13.703125 Z M 23.9375 -12.015625 C 25.445312 -12.015625 26.421875 -12.703125 26.859375 -14.078125 C 27.296875 -15.460938 27.515625 -17.46875 27.515625 -20.09375 L 27.515625 -49.296875 C 27.515625 -51.671875 27.296875 -53.484375 26.859375 -54.734375 C 26.421875 -55.984375 25.414062 -56.609375 23.84375 -56.609375 C 21.28125 -56.609375 20 -54.234375 20 -49.484375 L 20 -19.34375 C 20 -17.03125 20.265625 -15.226562 20.796875 -13.9375 C 21.328125 -12.65625 22.375 -12.015625 23.9375 -12.015625 Z M 23.9375 -12.015625 "/></g></g></g><g fill="#f0f0f0" fill-opacity="1"><g transform="translate(239.334463, 153.329974)"><g><path d="M 22.53125 0.75 C 15.457031 0.75 10.382812 -1.1875 7.3125 -5.0625 C 4.25 -8.945312 2.71875 -14.738281 2.71875 -22.4375 L 2.71875 -50.046875 C 2.71875 -56.367188 4.53125 -61.1875 8.15625 -64.5 C 11.789062 -67.820312 16.863281 -69.484375 23.375 -69.484375 C 36.582031 -69.484375 43.1875 -63.003906 43.1875 -50.046875 L 43.1875 -45.0625 C 43.1875 -40.0625 43.125 -35.992188 43 -32.859375 L 19.15625 -32.859375 L 19.15625 -19.53125 C 19.15625 -17.15625 19.40625 -15.289062 19.90625 -13.9375 C 20.40625 -12.59375 21.46875 -11.921875 23.09375 -11.921875 C 24.34375 -11.921875 25.234375 -12.296875 25.765625 -13.046875 C 26.304688 -13.796875 26.625 -14.65625 26.71875 -15.625 C 26.8125 -16.601562 26.859375 -18.03125 26.859375 -19.90625 L 26.859375 -26.578125 L 43.1875 -26.578125 L 43.1875 -22.625 C 43.1875 -14.613281 41.632812 -8.710938 38.53125 -4.921875 C 35.4375 -1.140625 30.101562 0.75 22.53125 0.75 Z M 26.859375 -41.03125 L 26.859375 -49.859375 C 26.859375 -54.796875 25.632812 -57.265625 23.1875 -57.265625 C 20.4375 -57.265625 19.0625 -54.796875 19.0625 -49.859375 L 19.0625 -41.03125 Z M 26.859375 -41.03125 "/></g></g></g><g fill="#f0f0f0" fill-opacity="1"><g transform="translate(285.153585, 153.329974)"><g><path d="M 16.8125 0.75 C 12.800781 0.75 9.773438 -0.203125 7.734375 -2.109375 C 5.703125 -4.015625 4.359375 -6.546875 3.703125 -9.703125 C 3.046875 -12.867188 2.71875 -16.925781 2.71875 -21.875 L 2.90625 -52.859375 C 2.90625 -57.742188 4.140625 -61.734375 6.609375 -64.828125 C 9.085938 -67.929688 12.582031 -69.484375 17.09375 -69.484375 C 21.53125 -69.484375 24.847656 -68.007812 27.046875 -65.0625 L 27.046875 -81.125 L 43.46875 -81.125 L 43.46875 0 L 27.046875 0 L 27.046875 -7.328125 C 26.097656 -4.628906 24.828125 -2.609375 23.234375 -1.265625 C 21.640625 0.078125 19.5 0.75 16.8125 0.75 Z M 23.09375 -12.109375 C 24.71875 -12.109375 25.78125 -12.90625 26.28125 -14.5 C 26.789062 -16.101562 27.046875 -18.25 27.046875 -20.9375 L 27.046875 -49.671875 C 27.046875 -51.671875 26.757812 -53.359375 26.1875 -54.734375 C 25.625 -56.109375 24.625 -56.796875 23.1875 -56.796875 C 21.5625 -56.796875 20.484375 -56.15625 19.953125 -54.875 C 19.421875 -53.59375 19.15625 -51.859375 19.15625 -49.671875 L 19.15625 -20.75 C 19.15625 -14.988281 20.46875 -12.109375 23.09375 -12.109375 Z M 23.09375 -12.109375 "/></g></g></g></svg>