<svg xmlns="http://www.w3.org/2000/svg" xmlns:xlink="http://www.w3.org/1999/xlink" width="288" zoomAndPan="magnify" viewBox="0 0 216 215.999996" height="288" preserveAspectRatio="xMidYMid meet" version="1.0"><defs><g/><clipPath id="32dfaf70b6"><path d="M 2.121094 2.121094 L 212.871094 2.121094 L 212.871094 212.871094 L 2.121094 212.871094 Z M 2.121094 2.121094 " clip-rule="nonzero"/></clipPath><clipPath id="7f78ec2efa"><path d="M 122 122 L 193 122 L 193 205 L 122 205 Z M 122 122 " clip-rule="nonzero"/></clipPath><clipPath id="6b6f643f5c"><path d="M 181.609375 108.003906 L 208.261719 170.835938 L 125.40625 205.980469 L 98.753906 143.148438 Z M 181.609375 108.003906 " clip-rule="nonzero"/></clipPath><clipPath id="c2dbce6157"><path d="M 181.609375 108.003906 L 208.261719 170.835938 L 125.40625 205.980469 L 98.753906 143.148438 Z M 181.609375 108.003906 " clip-rule="nonzero"/></clipPath><clipPath id="649cd8f1e7"><path d="M 122 170 L 151 170 L 151 205 L 122 205 Z M 122 170 " clip-rule="nonzero"/></clipPath><clipPath id="3ca613c006"><path d="M 181.609375 108.003906 L 208.261719 170.835938 L 125.40625 205.980469 L 98.753906 143.148438 Z M 181.609375 108.003906 " clip-rule="nonzero"/></clipPath><clipPath id="b2d61e3551"><path d="M 181.609375 108.003906 L 208.261719 170.835938 L 125.40625 205.980469 L 98.753906 143.148438 Z M 181.609375 108.003906 " clip-rule="nonzero"/></clipPath><clipPath id="9efb412a79"><path d="M 135 122 L 193 122 L 193 180 L 135 180 Z M 135 122 " clip-rule="nonzero"/></clipPath><clipPath id="d010c5019f"><path d="M 181.609375 108.003906 L 208.261719 170.835938 L 125.40625 205.980469 L 98.753906 143.148438 Z M 181.609375 108.003906 " clip-rule="nonzero"/></clipPath><clipPath id="d8d009805a"><path d="M 181.609375 108.003906 L 208.261719 170.835938 L 125.40625 205.980469 L 98.753906 143.148438 Z M 181.609375 108.003906 " clip-rule="nonzero"/></clipPath><clipPath id="25131dfc0a"><path d="M 140 126 L 189 126 L 189 175 L 140 175 Z M 140 126 " clip-rule="nonzero"/></clipPath><clipPath id="30f45a9b4d"><path d="M 181.609375 108.003906 L 208.261719 170.835938 L 125.40625 205.980469 L 98.753906 143.148438 Z M 181.609375 108.003906 " clip-rule="nonzero"/></clipPath><clipPath id="0cf221b591"><path d="M 181.609375 108.003906 L 208.261719 170.835938 L 125.40625 205.980469 L 98.753906 143.148438 Z M 181.609375 108.003906 " clip-rule="nonzero"/></clipPath><clipPath id="c85263a8bc"><path d="M 139 137 L 185 137 L 185 182 L 139 182 Z M 139 137 " clip-rule="nonzero"/></clipPath><clipPath id="1f5d9e6095"><path d="M 181.609375 108.003906 L 208.261719 170.835938 L 125.40625 205.980469 L 98.753906 143.148438 Z M 181.609375 108.003906 " clip-rule="nonzero"/></clipPath><clipPath id="5381262ca7"><path d="M 181.609375 108.003906 L 208.261719 170.835938 L 125.40625 205.980469 L 98.753906 143.148438 Z M 181.609375 108.003906 " clip-rule="nonzero"/></clipPath></defs><g clip-path="url(#32dfaf70b6)"><path fill="#545454" d="M 54.296875 2.121094 L 160.644531 2.121094 C 162.351562 2.121094 164.058594 2.203125 165.757812 2.371094 C 167.457031 2.539062 169.148438 2.789062 170.824219 3.121094 C 172.5 3.457031 174.15625 3.871094 175.789062 4.367188 C 177.425781 4.863281 179.03125 5.4375 180.609375 6.089844 C 182.191406 6.746094 183.734375 7.476562 185.238281 8.28125 C 186.746094 9.085938 188.210938 9.964844 189.632812 10.914062 C 191.054688 11.863281 192.425781 12.878906 193.746094 13.964844 C 195.066406 15.046875 196.332031 16.195312 197.539062 17.402344 C 198.746094 18.609375 199.894531 19.875 200.976562 21.195312 C 202.0625 22.515625 203.078125 23.886719 204.027344 25.308594 C 204.976562 26.730469 205.855469 28.195312 206.660156 29.703125 C 207.464844 31.207031 208.195312 32.75 208.851562 34.332031 C 209.503906 35.910156 210.078125 37.515625 210.574219 39.152344 C 211.070312 40.785156 211.484375 42.441406 211.820312 44.117188 C 212.152344 45.796875 212.402344 47.484375 212.570312 49.183594 C 212.738281 50.886719 212.824219 52.589844 212.824219 54.296875 L 212.824219 160.644531 C 212.824219 162.351562 212.738281 164.058594 212.570312 165.757812 C 212.402344 167.457031 212.152344 169.148438 211.820312 170.824219 C 211.488281 172.5 211.070312 174.15625 210.574219 175.789062 C 210.078125 177.425781 209.503906 179.03125 208.851562 180.609375 C 208.195312 182.191406 207.464844 183.734375 206.660156 185.238281 C 205.855469 186.746094 204.976562 188.210938 204.027344 189.632812 C 203.078125 191.054688 202.0625 192.425781 200.976562 193.746094 C 199.894531 195.066406 198.746094 196.332031 197.539062 197.539062 C 196.332031 198.746094 195.066406 199.894531 193.746094 200.976562 C 192.425781 202.0625 191.054688 203.078125 189.632812 204.027344 C 188.210938 204.976562 186.746094 205.855469 185.238281 206.660156 C 183.734375 207.464844 182.191406 208.195312 180.609375 208.851562 C 179.03125 209.503906 177.425781 210.078125 175.789062 210.574219 C 174.15625 211.070312 172.5 211.484375 170.824219 211.820312 C 169.148438 212.152344 167.457031 212.402344 165.757812 212.570312 C 164.058594 212.738281 162.351562 212.824219 160.644531 212.824219 L 54.296875 212.824219 C 52.589844 212.824219 50.886719 212.738281 49.183594 212.570312 C 47.484375 212.402344 45.796875 212.152344 44.117188 211.820312 C 42.441406 211.488281 40.785156 211.070312 39.152344 210.574219 C 37.515625 210.078125 35.910156 209.503906 34.332031 208.851562 C 32.75 208.195312 31.207031 207.464844 29.703125 206.660156 C 28.195312 205.855469 26.730469 204.976562 25.308594 204.027344 C 23.886719 203.078125 22.515625 202.0625 21.195312 200.976562 C 19.875 199.894531 18.609375 198.746094 17.402344 197.539062 C 16.195312 196.332031 15.046875 195.066406 13.964844 193.746094 C 12.878906 192.425781 11.863281 191.054688 10.914062 189.632812 C 9.964844 188.210938 9.085938 186.746094 8.28125 185.238281 C 7.476562 183.734375 6.746094 182.191406 6.089844 180.609375 C 5.4375 179.03125 4.863281 177.425781 4.367188 175.789062 C 3.871094 174.15625 3.457031 172.5 3.121094 170.824219 C 2.789062 169.148438 2.539062 167.457031 2.371094 165.757812 C 2.203125 164.058594 2.121094 162.351562 2.121094 160.644531 L 2.121094 54.296875 C 2.121094 52.589844 2.203125 50.886719 2.371094 49.183594 C 2.539062 47.484375 2.789062 45.796875 3.121094 44.117188 C 3.457031 42.441406 3.871094 40.785156 4.367188 39.152344 C 4.863281 37.515625 5.4375 35.910156 6.089844 34.332031 C 6.746094 32.75 7.476562 31.207031 8.28125 29.703125 C 9.085938 28.195312 9.964844 26.730469 10.914062 25.308594 C 11.863281 23.886719 12.878906 22.515625 13.964844 21.195312 C 15.046875 19.875 16.195312 18.609375 17.402344 17.402344 C 18.609375 16.195312 19.875 15.046875 21.195312 13.964844 C 22.515625 12.878906 23.886719 11.863281 25.308594 10.914062 C 26.730469 9.964844 28.195312 9.085938 29.703125 8.28125 C 31.207031 7.476562 32.75 6.746094 34.332031 6.089844 C 35.910156 5.4375 37.515625 4.863281 39.152344 4.367188 C 40.785156 3.871094 42.441406 3.457031 44.117188 3.121094 C 45.796875 2.789062 47.484375 2.539062 49.183594 2.371094 C 50.886719 2.203125 52.589844 2.121094 54.296875 2.121094 Z M 54.296875 2.121094 " fill-opacity="1" fill-rule="nonzero"/></g><g clip-path="url(#7f78ec2efa)"><g clip-path="url(#6b6f643f5c)"><g clip-path="url(#c2dbce6157)"><path fill="#f95c32" d="M 129.460938 204.25 L 122.449219 198.960938 L 139.308594 176.601562 L 139.179688 176.53125 L 139.265625 176.277344 L 139.414062 176.171875 L 139.589844 176.230469 L 143.84375 170.585938 C 134.203125 160.671875 132.960938 144.941406 141.542969 133.558594 C 151.023438 120.980469 168.90625 118.472656 181.480469 127.957031 C 194.058594 137.4375 196.566406 155.320312 187.085938 167.894531 C 178.503906 179.28125 163.039062 182.414062 150.855469 175.875 L 146.597656 181.519531 L 146.71875 181.667969 L 146.699219 181.882812 L 146.492188 181.921875 L 146.316406 181.890625 Z M 129.460938 204.25 " fill-opacity="1" fill-rule="nonzero"/></g></g></g><g clip-path="url(#649cd8f1e7)"><g clip-path="url(#3ca613c006)"><g clip-path="url(#b2d61e3551)"><path fill="#f95c32" d="M 122.449219 198.960938 L 139.308594 176.601562 L 139.492188 176.761719 L 139.699219 176.898438 L 139.871094 177.078125 L 140.089844 177.191406 L 140.25 177.386719 L 140.480469 177.488281 L 140.652344 177.667969 L 140.84375 177.816406 L 141.039062 177.960938 L 141.246094 178.09375 L 141.457031 178.21875 L 141.613281 178.417969 L 141.808594 178.5625 L 142.035156 178.671875 L 142.207031 178.851562 L 142.414062 178.976562 L 142.597656 179.136719 L 142.816406 179.257812 L 142.984375 179.4375 L 143.1875 179.574219 L 143.398438 179.699219 L 143.570312 179.875 L 143.796875 179.980469 L 143.976562 180.148438 L 144.175781 180.289062 L 144.363281 180.441406 L 144.550781 180.597656 L 144.726562 180.769531 L 144.953125 180.875 L 145.128906 181.046875 L 145.339844 181.171875 L 145.527344 181.328125 L 145.734375 181.457031 L 145.917969 181.617188 L 146.316406 181.890625 L 129.460938 204.25 Z M 139.773438 176.386719 L 140.007812 176.476562 L 140.359375 176.820312 L 140.59375 176.914062 L 140.789062 177.058594 L 140.957031 177.242188 L 141.15625 177.382812 L 141.371094 177.503906 L 141.53125 177.691406 L 141.738281 177.820312 L 141.933594 177.96875 L 142.105469 178.144531 L 142.3125 178.273438 L 142.511719 178.414062 L 142.691406 178.582031 L 142.90625 178.703125 L 143.109375 178.839844 L 143.285156 179.011719 L 143.496094 179.140625 L 143.707031 179.261719 L 143.894531 179.417969 L 144.078125 179.582031 L 144.296875 179.699219 L 144.441406 179.910156 L 144.640625 180.054688 L 144.863281 180.160156 L 145.0625 180.304688 L 145.257812 180.449219 L 145.445312 180.605469 L 145.613281 180.792969 L 145.816406 180.925781 L 146.015625 181.070312 L 146.199219 181.234375 L 146.425781 181.34375 L 146.597656 181.519531 L 150.855469 175.875 C 149.578125 175.1875 148.339844 174.398438 147.144531 173.5 C 145.953125 172.597656 144.851562 171.625 143.84375 170.585938 L 139.585938 176.226562 Z M 139.773438 176.386719 " fill-opacity="1" fill-rule="nonzero"/></g></g></g><g clip-path="url(#9efb412a79)"><g clip-path="url(#d010c5019f)"><g clip-path="url(#d8d009805a)"><path fill="#38b6ff" d="M 150.855469 175.875 C 163.039062 182.414062 178.503906 179.28125 187.085938 167.894531 C 196.566406 155.320312 194.058594 137.4375 181.480469 127.957031 C 168.90625 118.472656 151.023438 120.980469 141.542969 133.558594 C 132.960938 144.941406 134.203125 160.671875 143.84375 170.585938 C 144.851562 171.625 145.953125 172.597656 147.144531 173.5 C 148.339844 174.398438 149.578125 175.1875 150.855469 175.875 Z M 145.207031 136.320312 C 153.164062 125.769531 168.167969 123.664062 178.71875 131.621094 C 189.269531 139.578125 191.375 154.582031 183.417969 165.132812 C 175.464844 175.683594 160.460938 177.789062 149.910156 169.832031 C 139.359375 161.878906 137.253906 146.875 145.207031 136.320312 Z M 145.207031 136.320312 " fill-opacity="1" fill-rule="nonzero"/></g></g></g><g clip-path="url(#25131dfc0a)"><g clip-path="url(#30f45a9b4d)"><g clip-path="url(#0cf221b591)"><path fill="#c4f2fa" d="M 183.417969 165.132812 C 191.375 154.582031 189.269531 139.578125 178.71875 131.621094 C 168.167969 123.664062 153.164062 125.769531 145.207031 136.320312 C 137.253906 146.875 139.359375 161.878906 149.910156 169.832031 C 160.460938 177.789062 175.464844 175.683594 183.417969 165.132812 Z M 183.390625 148.074219 L 183.40625 147.824219 L 183.378906 147.574219 L 183.3125 147.335938 L 183.285156 147.089844 L 183.183594 146.859375 L 183.144531 146.613281 L 183.125 146.367188 L 183.054688 146.128906 L 183.019531 145.886719 L 182.957031 145.644531 L 182.917969 145.402344 L 182.867188 145.160156 L 182.757812 144.933594 L 182.703125 144.691406 L 182.65625 144.449219 L 182.574219 144.214844 L 182.5 143.980469 L 182.449219 143.738281 L 182.378906 143.5 L 182.296875 143.269531 L 182.203125 143.039062 L 182.097656 142.816406 L 182.035156 142.574219 L 181.949219 142.339844 L 181.789062 142.140625 L 181.738281 141.894531 L 181.660156 141.660156 L 181.507812 141.457031 L 181.394531 141.238281 L 181.355469 140.984375 L 181.226562 140.769531 L 181.082031 140.566406 L 180.949219 140.355469 L 180.878906 140.117188 L 180.773438 139.894531 L 180.664062 139.671875 L 180.527344 139.464844 L 180.394531 139.253906 L 180.230469 139.066406 L 180.175781 138.8125 L 179.980469 138.640625 L 179.910156 138.394531 L 179.78125 138.183594 L 179.609375 138 L 179.488281 137.785156 L 179.324219 137.597656 L 179.199219 137.382812 L 179.179688 137.207031 L 179.269531 137.066406 L 179.433594 137 L 179.628906 137.074219 L 179.726562 137.308594 L 179.871094 137.507812 L 180.011719 137.710938 L 180.300781 138.109375 L 180.449219 138.308594 L 180.554688 138.53125 L 180.65625 138.761719 L 180.824219 138.949219 L 180.910156 139.183594 L 181.050781 139.386719 L 181.179688 139.597656 L 181.328125 139.796875 L 181.398438 140.039062 L 181.503906 140.261719 L 181.652344 140.464844 L 181.746094 140.691406 L 181.808594 140.9375 L 181.988281 141.125 L 182.089844 141.351562 L 182.132812 141.601562 L 182.257812 141.816406 L 182.378906 142.03125 L 182.414062 142.285156 L 182.535156 142.503906 L 182.644531 142.726562 L 182.691406 142.972656 L 182.777344 143.203125 L 182.847656 143.4375 L 182.90625 143.679688 L 183 143.910156 L 183.113281 144.132812 L 183.152344 144.378906 L 183.183594 144.625 L 183.277344 144.855469 L 183.355469 145.089844 L 183.421875 145.328125 L 183.449219 145.574219 L 183.507812 145.8125 L 183.558594 146.054688 L 183.613281 146.296875 L 183.65625 146.539062 L 183.730469 146.773438 L 183.785156 147.015625 L 183.832031 147.257812 L 183.835938 147.507812 L 183.859375 147.753906 L 183.925781 147.992188 L 183.921875 148.242188 L 183.980469 148.484375 L 183.984375 148.730469 L 184.03125 148.972656 L 184.019531 149.222656 L 184.070312 149.464844 L 184.0625 149.714844 L 184.066406 149.960938 L 184.152344 150.203125 L 184.160156 150.449219 L 184.121094 150.699219 L 184.171875 150.945312 L 184.167969 151.191406 L 184.132812 151.4375 L 184.125 151.929688 L 184.144531 152.179688 L 184.070312 152.421875 L 184.078125 152.667969 L 184.082031 152.917969 L 184.042969 153.160156 L 184 153.402344 L 184.039062 153.65625 L 184.011719 153.902344 L 183.964844 154.144531 L 183.929688 154.386719 L 183.929688 154.636719 L 183.839844 154.875 L 183.8125 155.117188 L 183.757812 155.359375 L 183.714844 155.601562 L 183.730469 155.855469 L 183.6875 156.097656 L 183.582031 156.328125 L 183.550781 156.574219 L 183.484375 156.8125 L 183.394531 157.042969 L 183.347656 157.289062 L 183.324219 157.535156 L 183.28125 157.78125 L 183.203125 158.015625 L 183.136719 158.253906 L 182.996094 158.46875 L 182.945312 158.710938 L 182.828125 158.871094 L 182.617188 158.914062 L 182.507812 158.71875 L 182.425781 158.539062 L 182.542969 158.320312 L 182.585938 158.074219 L 182.648438 157.835938 L 182.785156 157.617188 L 182.839844 157.378906 L 182.90625 157.136719 L 182.921875 156.886719 L 183.023438 156.660156 L 183.054688 156.414062 L 183.074219 156.164062 L 183.121094 155.921875 L 183.199219 155.6875 L 183.230469 155.441406 L 183.328125 155.207031 L 183.320312 154.957031 L 183.332031 154.707031 L 183.4375 154.472656 L 183.414062 154.222656 L 183.449219 153.976562 L 183.519531 153.738281 L 183.496094 153.488281 L 183.515625 153.242188 L 183.585938 153 L 183.585938 152.75 L 183.617188 152.503906 L 183.644531 152.257812 L 183.621094 152.011719 L 183.648438 151.765625 L 183.617188 151.515625 L 183.632812 151.269531 L 183.613281 151.023438 L 183.578125 150.777344 L 183.585938 150.53125 L 183.582031 150.285156 L 183.566406 150.039062 L 183.539062 149.792969 L 183.605469 149.542969 L 183.554688 149.296875 L 183.566406 149.046875 L 183.480469 148.808594 L 183.460938 148.5625 L 183.421875 148.320312 Z M 183.390625 148.074219 " fill-opacity="1" fill-rule="nonzero"/></g></g></g><g clip-path="url(#c85263a8bc)"><g clip-path="url(#1f5d9e6095)"><g clip-path="url(#5381262ca7)"><path fill="#18189b" d="M 183.460938 148.5625 L 183.421875 148.316406 L 183.390625 148.074219 L 183.40625 147.824219 L 183.378906 147.574219 L 183.3125 147.335938 L 183.285156 147.089844 L 183.183594 146.859375 L 183.144531 146.613281 L 183.125 146.367188 L 183.054688 146.128906 L 183.019531 145.886719 L 182.957031 145.644531 L 182.917969 145.402344 L 182.867188 145.160156 L 182.757812 144.933594 L 182.703125 144.691406 L 182.65625 144.449219 L 182.5 143.980469 L 182.449219 143.738281 L 182.378906 143.5 L 182.296875 143.269531 L 182.203125 143.039062 L 182.097656 142.816406 L 182.035156 142.574219 L 181.949219 142.339844 L 181.789062 142.140625 L 181.738281 141.894531 L 181.660156 141.660156 L 181.507812 141.457031 L 181.394531 141.238281 L 181.355469 140.984375 L 181.226562 140.769531 L 181.082031 140.566406 L 180.949219 140.355469 L 180.878906 140.117188 L 180.773438 139.894531 L 180.664062 139.671875 L 180.527344 139.464844 L 180.394531 139.253906 L 180.230469 139.066406 L 180.175781 138.8125 L 179.980469 138.640625 L 179.910156 138.394531 L 179.78125 138.183594 L 179.609375 138 L 179.488281 137.785156 L 179.324219 137.597656 L 179.199219 137.382812 L 179.179688 137.207031 L 179.269531 137.066406 L 179.433594 137 L 179.628906 137.074219 L 179.726562 137.308594 L 179.871094 137.507812 L 180.011719 137.710938 L 180.300781 138.109375 L 180.449219 138.308594 L 180.554688 138.53125 L 180.65625 138.761719 L 180.824219 138.949219 L 180.910156 139.183594 L 181.050781 139.386719 L 181.179688 139.597656 L 181.328125 139.796875 L 181.398438 140.039062 L 181.503906 140.261719 L 181.652344 140.464844 L 181.746094 140.691406 L 181.808594 140.9375 L 181.988281 141.125 L 182.089844 141.351562 L 182.132812 141.601562 L 182.257812 141.816406 L 182.378906 142.03125 L 182.414062 142.285156 L 182.535156 142.503906 L 182.644531 142.726562 L 182.691406 142.972656 L 182.777344 143.203125 L 182.847656 143.4375 L 182.90625 143.679688 L 183 143.910156 L 183.113281 144.132812 L 183.152344 144.378906 L 183.183594 144.625 L 183.277344 144.855469 L 183.355469 145.089844 L 183.421875 145.328125 L 183.449219 145.574219 L 183.507812 145.8125 L 183.558594 146.054688 L 183.613281 146.296875 L 183.65625 146.539062 L 183.730469 146.773438 L 183.785156 147.015625 L 183.832031 147.257812 L 183.835938 147.507812 L 183.859375 147.753906 L 183.925781 147.992188 L 183.921875 148.242188 L 183.980469 148.484375 L 183.984375 148.730469 L 184.03125 148.972656 L 184.019531 149.222656 L 184.070312 149.464844 L 184.0625 149.714844 L 184.066406 149.960938 L 184.152344 150.203125 L 184.160156 150.449219 L 184.121094 150.699219 L 184.171875 150.945312 L 184.167969 151.191406 L 184.132812 151.4375 L 184.125 151.929688 L 184.144531 152.179688 L 184.070312 152.421875 L 184.078125 152.667969 L 184.082031 152.917969 L 184.042969 153.160156 L 184 153.402344 L 184.039062 153.65625 L 184.011719 153.902344 L 183.964844 154.144531 L 183.929688 154.386719 L 183.929688 154.636719 L 183.839844 154.875 L 183.8125 155.117188 L 183.757812 155.359375 L 183.714844 155.601562 L 183.730469 155.855469 L 183.6875 156.097656 L 183.582031 156.328125 L 183.550781 156.574219 L 183.484375 156.8125 L 183.394531 157.042969 L 183.347656 157.289062 L 183.324219 157.535156 L 183.28125 157.78125 L 183.203125 158.015625 L 183.136719 158.253906 L 182.996094 158.46875 L 182.945312 158.710938 L 182.828125 158.871094 L 182.617188 158.914062 L 182.507812 158.71875 L 182.425781 158.539062 L 182.542969 158.320312 L 182.585938 158.074219 L 182.648438 157.835938 L 182.785156 157.617188 L 182.839844 157.378906 L 182.90625 157.136719 L 182.921875 156.886719 L 183.023438 156.660156 L 183.054688 156.414062 L 183.074219 156.164062 L 183.121094 155.921875 L 183.199219 155.6875 L 183.230469 155.441406 L 183.328125 155.207031 L 183.320312 154.957031 L 183.332031 154.707031 L 183.4375 154.472656 L 183.414062 154.222656 L 183.449219 153.976562 L 183.519531 153.738281 L 183.496094 153.488281 L 183.515625 153.242188 L 183.585938 153 L 183.585938 152.75 L 183.617188 152.503906 L 183.644531 152.257812 L 183.621094 152.011719 L 183.648438 151.765625 L 183.617188 151.515625 L 183.632812 151.269531 L 183.613281 151.023438 L 183.578125 150.777344 L 183.585938 150.53125 L 183.582031 150.285156 L 183.566406 150.039062 L 183.539062 149.792969 L 183.605469 149.542969 L 183.554688 149.296875 L 183.566406 149.046875 L 183.480469 148.808594 Z M 139.492188 176.761719 L 139.699219 176.898438 L 139.871094 177.078125 L 140.089844 177.191406 L 140.25 177.386719 L 140.480469 177.488281 L 140.652344 177.667969 L 140.84375 177.816406 L 141.039062 177.964844 L 141.246094 178.09375 L 141.457031 178.21875 L 141.613281 178.417969 L 141.808594 178.5625 L 142.035156 178.671875 L 142.207031 178.851562 L 142.414062 178.976562 L 142.597656 179.136719 L 142.816406 179.257812 L 142.984375 179.4375 L 143.1875 179.574219 L 143.398438 179.699219 L 143.570312 179.875 L 143.796875 179.980469 L 143.976562 180.148438 L 144.175781 180.289062 L 144.363281 180.441406 L 144.550781 180.597656 L 144.726562 180.769531 L 144.953125 180.875 L 145.128906 181.046875 L 145.339844 181.171875 L 145.527344 181.328125 L 145.734375 181.457031 L 145.917969 181.617188 L 146.316406 181.890625 L 146.492188 181.921875 L 146.699219 181.882812 L 146.71875 181.667969 L 146.597656 181.519531 L 146.425781 181.34375 L 146.199219 181.234375 L 146.015625 181.070312 L 145.820312 180.925781 L 145.613281 180.792969 L 145.445312 180.605469 L 145.257812 180.449219 L 144.867188 180.160156 L 144.640625 180.054688 L 144.441406 179.910156 L 144.296875 179.699219 L 144.078125 179.582031 L 143.894531 179.417969 L 143.707031 179.261719 L 143.496094 179.140625 L 143.285156 179.011719 L 143.109375 178.839844 L 142.90625 178.703125 L 142.691406 178.582031 L 142.511719 178.414062 L 142.3125 178.277344 L 142.105469 178.148438 L 141.933594 177.96875 L 141.738281 177.820312 L 141.53125 177.691406 L 141.371094 177.503906 L 141.15625 177.382812 L 140.957031 177.242188 L 140.789062 177.0625 L 140.59375 176.914062 L 140.359375 176.820312 L 140.007812 176.476562 L 139.773438 176.386719 L 139.589844 176.230469 L 139.414062 176.171875 L 139.265625 176.277344 L 139.179688 176.53125 L 139.308594 176.601562 Z M 139.492188 176.761719 " fill-opacity="1" fill-rule="nonzero"/></g></g></g><g fill="#000000" fill-opacity="0.4"><g transform="translate(23.708532, 158.975292)"><g><path d="M 13.375 0.453125 C 9.851562 0.453125 7.03125 -0.648438 4.90625 -2.859375 C 2.789062 -5.078125 1.734375 -8.113281 1.734375 -11.96875 L 1.734375 -34.21875 C 1.734375 -39.007812 2.6875 -42.625 4.59375 -45.0625 C 6.507812 -47.5 9.507812 -48.71875 13.59375 -48.71875 C 17.15625 -48.71875 20.019531 -47.742188 22.1875 -45.796875 C 24.363281 -43.847656 25.453125 -41.035156 25.453125 -37.359375 L 25.453125 -29.046875 L 15.84375 -29.046875 L 15.84375 -36.1875 C 15.84375 -37.570312 15.671875 -38.523438 15.328125 -39.046875 C 14.992188 -39.578125 14.414062 -39.84375 13.59375 -39.84375 C 12.738281 -39.84375 12.148438 -39.539062 11.828125 -38.9375 C 11.503906 -38.332031 11.34375 -37.453125 11.34375 -36.296875 L 11.34375 -12.078125 C 11.34375 -10.804688 11.53125 -9.878906 11.90625 -9.296875 C 12.28125 -8.710938 12.84375 -8.421875 13.59375 -8.421875 C 15.09375 -8.421875 15.84375 -9.640625 15.84375 -12.078125 L 15.84375 -20.796875 L 25.5625 -20.796875 L 25.5625 -11.6875 C 25.5625 -3.59375 21.5 0.453125 13.375 0.453125 Z M 13.375 0.453125 "/></g></g></g><g fill="#000000" fill-opacity="0.4"><g transform="translate(50.344324, 158.975292)"><g><path d="M 9.4375 0.453125 C 6.25 0.453125 4.066406 -0.601562 2.890625 -2.71875 C 1.710938 -4.84375 1.125 -7.867188 1.125 -11.796875 C 1.125 -15.015625 1.546875 -17.484375 2.390625 -19.203125 C 3.234375 -20.929688 4.398438 -22.195312 5.890625 -23 C 7.390625 -23.8125 9.675781 -24.703125 12.75 -25.671875 L 15.453125 -26.578125 L 15.453125 -30.796875 C 15.453125 -31.878906 15.234375 -32.707031 14.796875 -33.28125 C 14.367188 -33.863281 13.859375 -34.15625 13.265625 -34.15625 C 12.734375 -34.15625 12.269531 -33.910156 11.875 -33.421875 C 11.488281 -32.941406 11.296875 -32.289062 11.296875 -31.46875 L 11.296875 -29 L 1.734375 -29 L 1.734375 -30.34375 C 1.734375 -34.382812 2.679688 -37.265625 4.578125 -38.984375 C 6.472656 -40.710938 9.554688 -41.578125 13.828125 -41.578125 C 17.234375 -41.578125 20.003906 -40.6875 22.140625 -38.90625 C 24.273438 -37.125 25.34375 -34.609375 25.34375 -31.359375 L 25.34375 0 L 15.5625 0 L 15.5625 -4.890625 C 15.070312 -3.203125 14.289062 -1.890625 13.21875 -0.953125 C 12.15625 -0.015625 10.894531 0.453125 9.4375 0.453125 Z M 13.3125 -7.1875 C 14.0625 -7.1875 14.59375 -7.492188 14.90625 -8.109375 C 15.226562 -8.734375 15.390625 -9.492188 15.390625 -10.390625 L 15.390625 -21.859375 C 13.929688 -21.296875 12.851562 -20.582031 12.15625 -19.71875 C 11.46875 -18.851562 11.125 -17.65625 11.125 -16.125 L 11.125 -10.84375 C 11.125 -8.40625 11.851562 -7.1875 13.3125 -7.1875 Z M 13.3125 -7.1875 "/></g></g></g><g fill="#000000" fill-opacity="0.4"><g transform="translate(77.485852, 158.975292)"><g><path d="M 1.96875 -41.125 L 11.796875 -41.125 L 11.796875 -36.578125 C 12.285156 -38.191406 13.140625 -39.4375 14.359375 -40.3125 C 15.578125 -41.195312 17.082031 -41.640625 18.875 -41.640625 L 18.875 -33.4375 C 17.488281 -33.4375 15.960938 -33.238281 14.296875 -32.84375 C 12.628906 -32.445312 11.796875 -31.988281 11.796875 -31.46875 L 11.796875 0 L 1.96875 0 Z M 1.96875 -41.125 "/></g></g></g><g fill="#000000" fill-opacity="0.4"><g transform="translate(96.816466, 158.975292)"><g><path d="M 13.265625 0.453125 C 5.128906 0.453125 1.0625 -3.664062 1.0625 -11.90625 L 1.125 -15.171875 L 10.953125 -15.171875 L 11.015625 -10.34375 C 11.015625 -9.363281 11.203125 -8.617188 11.578125 -8.109375 C 11.953125 -7.609375 12.566406 -7.359375 13.421875 -7.359375 C 14.734375 -7.359375 15.390625 -8.425781 15.390625 -10.5625 C 15.390625 -12.132812 15.082031 -13.367188 14.46875 -14.265625 C 13.851562 -15.171875 12.867188 -16.128906 11.515625 -17.140625 L 6.296875 -21.1875 C 4.492188 -22.570312 3.195312 -24.003906 2.40625 -25.484375 C 1.625 -26.960938 1.234375 -29.050781 1.234375 -31.75 C 1.234375 -33.84375 1.785156 -35.628906 2.890625 -37.109375 C 3.992188 -38.585938 5.460938 -39.703125 7.296875 -40.453125 C 9.140625 -41.203125 11.179688 -41.578125 13.421875 -41.578125 C 21.398438 -41.578125 25.390625 -37.609375 25.390625 -29.671875 L 25.390625 -28.875 L 15.234375 -28.875 L 15.234375 -30.453125 C 15.234375 -31.429688 15.070312 -32.265625 14.75 -32.953125 C 14.425781 -33.648438 13.890625 -34 13.140625 -34 C 12.472656 -34 11.957031 -33.800781 11.59375 -33.40625 C 11.238281 -33.007812 11.0625 -32.472656 11.0625 -31.796875 C 11.0625 -30.296875 11.644531 -29.132812 12.8125 -28.3125 L 18.875 -23.875 C 21.050781 -22.269531 22.71875 -20.519531 23.875 -18.625 C 25.039062 -16.726562 25.625 -14.34375 25.625 -11.46875 C 25.625 -7.644531 24.535156 -4.703125 22.359375 -2.640625 C 20.191406 -0.578125 17.160156 0.453125 13.265625 0.453125 Z M 13.265625 0.453125 "/></g></g></g><g fill="#f0f0f0" fill-opacity="1"><g transform="translate(18.74151, 154.008272)"><g><path d="M 13.375 0.453125 C 9.851562 0.453125 7.03125 -0.648438 4.90625 -2.859375 C 2.789062 -5.078125 1.734375 -8.113281 1.734375 -11.96875 L 1.734375 -34.21875 C 1.734375 -39.007812 2.6875 -42.625 4.59375 -45.0625 C 6.507812 -47.5 9.507812 -48.71875 13.59375 -48.71875 C 17.15625 -48.71875 20.019531 -47.742188 22.1875 -45.796875 C 24.363281 -43.847656 25.453125 -41.035156 25.453125 -37.359375 L 25.453125 -29.046875 L 15.84375 -29.046875 L 15.84375 -36.1875 C 15.84375 -37.570312 15.671875 -38.523438 15.328125 -39.046875 C 14.992188 -39.578125 14.414062 -39.84375 13.59375 -39.84375 C 12.738281 -39.84375 12.148438 -39.539062 11.828125 -38.9375 C 11.503906 -38.332031 11.34375 -37.453125 11.34375 -36.296875 L 11.34375 -12.078125 C 11.34375 -10.804688 11.53125 -9.878906 11.90625 -9.296875 C 12.28125 -8.710938 12.84375 -8.421875 13.59375 -8.421875 C 15.09375 -8.421875 15.84375 -9.640625 15.84375 -12.078125 L 15.84375 -20.796875 L 25.5625 -20.796875 L 25.5625 -11.6875 C 25.5625 -3.59375 21.5 0.453125 13.375 0.453125 Z M 13.375 0.453125 "/></g></g></g><g fill="#f0f0f0" fill-opacity="1"><g transform="translate(45.377302, 154.008272)"><g><path d="M 9.4375 0.453125 C 6.25 0.453125 4.066406 -0.601562 2.890625 -2.71875 C 1.710938 -4.84375 1.125 -7.867188 1.125 -11.796875 C 1.125 -15.015625 1.546875 -17.484375 2.390625 -19.203125 C 3.234375 -20.929688 4.398438 -22.195312 5.890625 -23 C 7.390625 -23.8125 9.675781 -24.703125 12.75 -25.671875 L 15.453125 -26.578125 L 15.453125 -30.796875 C 15.453125 -31.878906 15.234375 -32.707031 14.796875 -33.28125 C 14.367188 -33.863281 13.859375 -34.15625 13.265625 -34.15625 C 12.734375 -34.15625 12.269531 -33.910156 11.875 -33.421875 C 11.488281 -32.941406 11.296875 -32.289062 11.296875 -31.46875 L 11.296875 -29 L 1.734375 -29 L 1.734375 -30.34375 C 1.734375 -34.382812 2.679688 -37.265625 4.578125 -38.984375 C 6.472656 -40.710938 9.554688 -41.578125 13.828125 -41.578125 C 17.234375 -41.578125 20.003906 -40.6875 22.140625 -38.90625 C 24.273438 -37.125 25.34375 -34.609375 25.34375 -31.359375 L 25.34375 0 L 15.5625 0 L 15.5625 -4.890625 C 15.070312 -3.203125 14.289062 -1.890625 13.21875 -0.953125 C 12.15625 -0.015625 10.894531 0.453125 9.4375 0.453125 Z M 13.3125 -7.1875 C 14.0625 -7.1875 14.59375 -7.492188 14.90625 -8.109375 C 15.226562 -8.734375 15.390625 -9.492188 15.390625 -10.390625 L 15.390625 -21.859375 C 13.929688 -21.296875 12.851562 -20.582031 12.15625 -19.71875 C 11.46875 -18.851562 11.125 -17.65625 11.125 -16.125 L 11.125 -10.84375 C 11.125 -8.40625 11.851562 -7.1875 13.3125 -7.1875 Z M 13.3125 -7.1875 "/></g></g></g><g fill="#f0f0f0" fill-opacity="1"><g transform="translate(72.518831, 154.008272)"><g><path d="M 1.96875 -41.125 L 11.796875 -41.125 L 11.796875 -36.578125 C 12.285156 -38.191406 13.140625 -39.4375 14.359375 -40.3125 C 15.578125 -41.195312 17.082031 -41.640625 18.875 -41.640625 L 18.875 -33.4375 C 17.488281 -33.4375 15.960938 -33.238281 14.296875 -32.84375 C 12.628906 -32.445312 11.796875 -31.988281 11.796875 -31.46875 L 11.796875 0 L 1.96875 0 Z M 1.96875 -41.125 "/></g></g></g><g fill="#f0f0f0" fill-opacity="1"><g transform="translate(91.849445, 154.008272)"><g><path d="M 13.265625 0.453125 C 5.128906 0.453125 1.0625 -3.664062 1.0625 -11.90625 L 1.125 -15.171875 L 10.953125 -15.171875 L 11.015625 -10.34375 C 11.015625 -9.363281 11.203125 -8.617188 11.578125 -8.109375 C 11.953125 -7.609375 12.566406 -7.359375 13.421875 -7.359375 C 14.734375 -7.359375 15.390625 -8.425781 15.390625 -10.5625 C 15.390625 -12.132812 15.082031 -13.367188 14.46875 -14.265625 C 13.851562 -15.171875 12.867188 -16.128906 11.515625 -17.140625 L 6.296875 -21.1875 C 4.492188 -22.570312 3.195312 -24.003906 2.40625 -25.484375 C 1.625 -26.960938 1.234375 -29.050781 1.234375 -31.75 C 1.234375 -33.84375 1.785156 -35.628906 2.890625 -37.109375 C 3.992188 -38.585938 5.460938 -39.703125 7.296875 -40.453125 C 9.140625 -41.203125 11.179688 -41.578125 13.421875 -41.578125 C 21.398438 -41.578125 25.390625 -37.609375 25.390625 -29.671875 L 25.390625 -28.875 L 15.234375 -28.875 L 15.234375 -30.453125 C 15.234375 -31.429688 15.070312 -32.265625 14.75 -32.953125 C 14.425781 -33.648438 13.890625 -34 13.140625 -34 C 12.472656 -34 11.957031 -33.800781 11.59375 -33.40625 C 11.238281 -33.007812 11.0625 -32.472656 11.0625 -31.796875 C 11.0625 -30.296875 11.644531 -29.132812 12.8125 -28.3125 L 18.875 -23.875 C 21.050781 -22.269531 22.71875 -20.519531 23.875 -18.625 C 25.039062 -16.726562 25.625 -14.34375 25.625 -11.46875 C 25.625 -7.644531 24.535156 -4.703125 22.359375 -2.640625 C 20.191406 -0.578125 17.160156 0.453125 13.265625 0.453125 Z M 13.265625 0.453125 "/></g></g></g><g fill="#000000" fill-opacity="0.4"><g transform="translate(21.726891, 96.877889)"><g><path d="M 2.140625 -48.390625 L 15.484375 -48.390625 C 18.941406 -48.390625 21.535156 -47.429688 23.265625 -45.515625 C 24.992188 -43.597656 25.875 -40.757812 25.90625 -37 L 26.03125 -14.359375 C 26.0625 -9.585938 25.234375 -6 23.546875 -3.59375 C 21.859375 -1.195312 19.0625 0 15.15625 0 L 2.140625 0 Z M 13.578125 -8.5625 C 15.335938 -8.5625 16.21875 -9.425781 16.21875 -11.15625 L 16.21875 -36.109375 C 16.21875 -37.191406 16.132812 -38.003906 15.96875 -38.546875 C 15.800781 -39.097656 15.488281 -39.46875 15.03125 -39.65625 C 14.582031 -39.84375 13.890625 -39.9375 12.953125 -39.9375 L 11.890625 -39.9375 L 11.890625 -8.5625 Z M 13.578125 -8.5625 "/></g></g></g><g fill="#000000" fill-opacity="0.4"><g transform="translate(49.500032, 96.877889)"><g><path d="M 9.90625 0.453125 C 6.832031 0.453125 4.722656 -0.460938 3.578125 -2.296875 C 2.429688 -4.140625 1.859375 -6.882812 1.859375 -10.53125 L 1.859375 -41.234375 L 11.765625 -41.234375 L 11.765625 -12.5 C 11.765625 -12.238281 11.765625 -11.535156 11.765625 -10.390625 C 11.765625 -9.242188 11.941406 -8.4375 12.296875 -7.96875 C 12.660156 -7.5 13.21875 -7.265625 13.96875 -7.265625 C 14.976562 -7.265625 15.613281 -7.6875 15.875 -8.53125 C 16.144531 -9.375 16.28125 -10.585938 16.28125 -12.171875 L 16.28125 -12.5 L 16.328125 -41.234375 L 26.140625 -41.234375 L 26.140625 0 L 16.28125 0 L 16.28125 -4.390625 C 15.601562 -2.660156 14.8125 -1.421875 13.90625 -0.671875 C 13.007812 0.078125 11.675781 0.453125 9.90625 0.453125 Z M 9.90625 0.453125 "/></g></g></g><g fill="#000000" fill-opacity="0.4"><g transform="translate(77.611189, 96.877889)"><g><path d="M 1.96875 -41.234375 L 11.609375 -41.234375 L 11.609375 -36.4375 C 12.054688 -38.207031 12.820312 -39.523438 13.90625 -40.390625 C 15 -41.253906 16.539062 -41.6875 18.53125 -41.6875 C 20.144531 -41.6875 21.539062 -41.316406 22.71875 -40.578125 C 23.90625 -39.847656 24.742188 -38.847656 25.234375 -37.578125 C 26.054688 -39.003906 26.972656 -40.046875 27.984375 -40.703125 C 29.003906 -41.359375 30.414062 -41.6875 32.21875 -41.6875 C 35.445312 -41.6875 37.691406 -40.695312 38.953125 -38.71875 C 40.210938 -36.75 40.84375 -33.890625 40.84375 -30.140625 L 40.71875 0 L 30.8125 0 L 30.8125 -30.296875 C 30.8125 -32.960938 30.132812 -34.296875 28.78125 -34.296875 C 27.84375 -34.296875 27.164062 -33.835938 26.75 -32.921875 C 26.34375 -32.003906 26.140625 -30.90625 26.140625 -29.625 L 26.140625 0 L 16.28125 0 L 16.28125 -30.296875 C 16.28125 -31.460938 16.15625 -32.398438 15.90625 -33.109375 C 15.664062 -33.828125 15.148438 -34.1875 14.359375 -34.1875 C 13.347656 -34.1875 12.632812 -33.6875 12.21875 -32.6875 C 11.8125 -31.695312 11.609375 -30.507812 11.609375 -29.125 L 11.609375 0 L 1.96875 0 Z M 1.96875 -41.234375 "/></g></g></g><g fill="#000000" fill-opacity="0.4"><g transform="translate(120.313103, 96.877889)"><g><path d="M 1.96875 -41.234375 L 12 -41.234375 L 12 -39.03125 C 13.425781 -40.800781 15.394531 -41.6875 17.90625 -41.6875 C 21.101562 -41.6875 23.328125 -40.613281 24.578125 -38.46875 C 25.835938 -36.332031 26.46875 -33.367188 26.46875 -29.578125 L 26.46875 -14.3125 C 26.46875 -11.082031 26.28125 -8.441406 25.90625 -6.390625 C 25.53125 -4.347656 24.703125 -2.695312 23.421875 -1.4375 C 22.148438 -0.175781 20.21875 0.453125 17.625 0.453125 C 15.144531 0.453125 13.269531 -0.242188 12 -1.640625 L 12 8.21875 L 1.96875 8.21875 Z M 14.359375 -7.203125 C 15.265625 -7.203125 15.847656 -7.613281 16.109375 -8.4375 C 16.367188 -9.269531 16.5 -10.472656 16.5 -12.046875 L 16.5 -29.578125 C 16.5 -31.003906 16.367188 -32.09375 16.109375 -32.84375 C 15.847656 -33.59375 15.25 -33.96875 14.3125 -33.96875 C 12.769531 -33.96875 12 -32.539062 12 -29.6875 L 12 -11.609375 C 12 -10.210938 12.15625 -9.128906 12.46875 -8.359375 C 12.789062 -7.585938 13.421875 -7.203125 14.359375 -7.203125 Z M 14.359375 -7.203125 "/></g></g></g><g fill="#000000" fill-opacity="0.4"><g transform="translate(148.480584, 96.877889)"><g><path d="M 13.515625 0.453125 C 9.273438 0.453125 6.234375 -0.707031 4.390625 -3.03125 C 2.554688 -5.363281 1.640625 -8.84375 1.640625 -13.46875 L 1.640625 -30.015625 C 1.640625 -33.816406 2.726562 -36.710938 4.90625 -38.703125 C 7.082031 -40.691406 10.125 -41.6875 14.03125 -41.6875 C 21.945312 -41.6875 25.90625 -37.796875 25.90625 -30.015625 L 25.90625 -27.03125 C 25.90625 -24.03125 25.867188 -21.59375 25.796875 -19.71875 L 11.484375 -19.71875 L 11.484375 -11.71875 C 11.484375 -10.289062 11.632812 -9.171875 11.9375 -8.359375 C 12.238281 -7.554688 12.878906 -7.15625 13.859375 -7.15625 C 14.609375 -7.15625 15.140625 -7.378906 15.453125 -7.828125 C 15.773438 -8.273438 15.960938 -8.789062 16.015625 -9.375 C 16.078125 -9.957031 16.109375 -10.8125 16.109375 -11.9375 L 16.109375 -15.9375 L 25.90625 -15.9375 L 25.90625 -13.578125 C 25.90625 -8.765625 24.972656 -5.222656 23.109375 -2.953125 C 21.253906 -0.679688 18.054688 0.453125 13.515625 0.453125 Z M 16.109375 -24.609375 L 16.109375 -29.90625 C 16.109375 -32.875 15.375 -34.359375 13.90625 -34.359375 C 12.257812 -34.359375 11.4375 -32.875 11.4375 -29.90625 L 11.4375 -24.609375 Z M 16.109375 -24.609375 "/></g></g></g><g fill="#000000" fill-opacity="0.4"><g transform="translate(175.972057, 96.877889)"><g><path d="M 10.078125 0.453125 C 7.679688 0.453125 5.867188 -0.117188 4.640625 -1.265625 C 3.421875 -2.410156 2.613281 -3.929688 2.21875 -5.828125 C 1.832031 -7.722656 1.640625 -10.15625 1.640625 -13.125 L 1.75 -31.71875 C 1.75 -34.644531 2.488281 -37.035156 3.96875 -38.890625 C 5.457031 -40.753906 7.550781 -41.6875 10.25 -41.6875 C 12.914062 -41.6875 14.90625 -40.800781 16.21875 -39.03125 L 16.21875 -48.671875 L 26.078125 -48.671875 L 26.078125 0 L 16.21875 0 L 16.21875 -4.390625 C 15.65625 -2.773438 14.894531 -1.5625 13.9375 -0.75 C 12.976562 0.0507812 11.691406 0.453125 10.078125 0.453125 Z M 13.859375 -7.265625 C 14.835938 -7.265625 15.472656 -7.742188 15.765625 -8.703125 C 16.066406 -9.660156 16.21875 -10.945312 16.21875 -12.5625 L 16.21875 -29.796875 C 16.21875 -30.992188 16.046875 -32.003906 15.703125 -32.828125 C 15.367188 -33.660156 14.769531 -34.078125 13.90625 -34.078125 C 12.9375 -34.078125 12.289062 -33.691406 11.96875 -32.921875 C 11.644531 -32.148438 11.484375 -31.109375 11.484375 -29.796875 L 11.484375 -12.453125 C 11.484375 -8.992188 12.273438 -7.265625 13.859375 -7.265625 Z M 13.859375 -7.265625 "/></g></g></g><g fill="#f0f0f0" fill-opacity="1"><g transform="translate(16.846986, 91.997984)"><g><path d="M 2.140625 -48.390625 L 15.484375 -48.390625 C 18.941406 -48.390625 21.535156 -47.429688 23.265625 -45.515625 C 24.992188 -43.597656 25.875 -40.757812 25.90625 -37 L 26.03125 -14.359375 C 26.0625 -9.585938 25.234375 -6 23.546875 -3.59375 C 21.859375 -1.195312 19.0625 0 15.15625 0 L 2.140625 0 Z M 13.578125 -8.5625 C 15.335938 -8.5625 16.21875 -9.425781 16.21875 -11.15625 L 16.21875 -36.109375 C 16.21875 -37.191406 16.132812 -38.003906 15.96875 -38.546875 C 15.800781 -39.097656 15.488281 -39.46875 15.03125 -39.65625 C 14.582031 -39.84375 13.890625 -39.9375 12.953125 -39.9375 L 11.890625 -39.9375 L 11.890625 -8.5625 Z M 13.578125 -8.5625 "/></g></g></g><g fill="#f0f0f0" fill-opacity="1"><g transform="translate(44.620127, 91.997984)"><g><path d="M 9.90625 0.453125 C 6.832031 0.453125 4.722656 -0.460938 3.578125 -2.296875 C 2.429688 -4.140625 1.859375 -6.882812 1.859375 -10.53125 L 1.859375 -41.234375 L 11.765625 -41.234375 L 11.765625 -12.5 C 11.765625 -12.238281 11.765625 -11.535156 11.765625 -10.390625 C 11.765625 -9.242188 11.941406 -8.4375 12.296875 -7.96875 C 12.660156 -7.5 13.21875 -7.265625 13.96875 -7.265625 C 14.976562 -7.265625 15.613281 -7.6875 15.875 -8.53125 C 16.144531 -9.375 16.28125 -10.585938 16.28125 -12.171875 L 16.28125 -12.5 L 16.328125 -41.234375 L 26.140625 -41.234375 L 26.140625 0 L 16.28125 0 L 16.28125 -4.390625 C 15.601562 -2.660156 14.8125 -1.421875 13.90625 -0.671875 C 13.007812 0.078125 11.675781 0.453125 9.90625 0.453125 Z M 9.90625 0.453125 "/></g></g></g><g fill="#f0f0f0" fill-opacity="1"><g transform="translate(72.731284, 91.997984)"><g><path d="M 1.96875 -41.234375 L 11.609375 -41.234375 L 11.609375 -36.4375 C 12.054688 -38.207031 12.820312 -39.523438 13.90625 -40.390625 C 15 -41.253906 16.539062 -41.6875 18.53125 -41.6875 C 20.144531 -41.6875 21.539062 -41.316406 22.71875 -40.578125 C 23.90625 -39.847656 24.742188 -38.847656 25.234375 -37.578125 C 26.054688 -39.003906 26.972656 -40.046875 27.984375 -40.703125 C 29.003906 -41.359375 30.414062 -41.6875 32.21875 -41.6875 C 35.445312 -41.6875 37.691406 -40.695312 38.953125 -38.71875 C 40.210938 -36.75 40.84375 -33.890625 40.84375 -30.140625 L 40.71875 0 L 30.8125 0 L 30.8125 -30.296875 C 30.8125 -32.960938 30.132812 -34.296875 28.78125 -34.296875 C 27.84375 -34.296875 27.164062 -33.835938 26.75 -32.921875 C 26.34375 -32.003906 26.140625 -30.90625 26.140625 -29.625 L 26.140625 0 L 16.28125 0 L 16.28125 -30.296875 C 16.28125 -31.460938 16.15625 -32.398438 15.90625 -33.109375 C 15.664062 -33.828125 15.148438 -34.1875 14.359375 -34.1875 C 13.347656 -34.1875 12.632812 -33.6875 12.21875 -32.6875 C 11.8125 -31.695312 11.609375 -30.507812 11.609375 -29.125 L 11.609375 0 L 1.96875 0 Z M 1.96875 -41.234375 "/></g></g></g><g fill="#f0f0f0" fill-opacity="1"><g transform="translate(115.433198, 91.997984)"><g><path d="M 1.96875 -41.234375 L 12 -41.234375 L 12 -39.03125 C 13.425781 -40.800781 15.394531 -41.6875 17.90625 -41.6875 C 21.101562 -41.6875 23.328125 -40.613281 24.578125 -38.46875 C 25.835938 -36.332031 26.46875 -33.367188 26.46875 -29.578125 L 26.46875 -14.3125 C 26.46875 -11.082031 26.28125 -8.441406 25.90625 -6.390625 C 25.53125 -4.347656 24.703125 -2.695312 23.421875 -1.4375 C 22.148438 -0.175781 20.21875 0.453125 17.625 0.453125 C 15.144531 0.453125 13.269531 -0.242188 12 -1.640625 L 12 8.21875 L 1.96875 8.21875 Z M 14.359375 -7.203125 C 15.265625 -7.203125 15.847656 -7.613281 16.109375 -8.4375 C 16.367188 -9.269531 16.5 -10.472656 16.5 -12.046875 L 16.5 -29.578125 C 16.5 -31.003906 16.367188 -32.09375 16.109375 -32.84375 C 15.847656 -33.59375 15.25 -33.96875 14.3125 -33.96875 C 12.769531 -33.96875 12 -32.539062 12 -29.6875 L 12 -11.609375 C 12 -10.210938 12.15625 -9.128906 12.46875 -8.359375 C 12.789062 -7.585938 13.421875 -7.203125 14.359375 -7.203125 Z M 14.359375 -7.203125 "/></g></g></g><g fill="#f0f0f0" fill-opacity="1"><g transform="translate(143.600679, 91.997984)"><g><path d="M 13.515625 0.453125 C 9.273438 0.453125 6.234375 -0.707031 4.390625 -3.03125 C 2.554688 -5.363281 1.640625 -8.84375 1.640625 -13.46875 L 1.640625 -30.015625 C 1.640625 -33.816406 2.726562 -36.710938 4.90625 -38.703125 C 7.082031 -40.691406 10.125 -41.6875 14.03125 -41.6875 C 21.945312 -41.6875 25.90625 -37.796875 25.90625 -30.015625 L 25.90625 -27.03125 C 25.90625 -24.03125 25.867188 -21.59375 25.796875 -19.71875 L 11.484375 -19.71875 L 11.484375 -11.71875 C 11.484375 -10.289062 11.632812 -9.171875 11.9375 -8.359375 C 12.238281 -7.554688 12.878906 -7.15625 13.859375 -7.15625 C 14.609375 -7.15625 15.140625 -7.378906 15.453125 -7.828125 C 15.773438 -8.273438 15.960938 -8.789062 16.015625 -9.375 C 16.078125 -9.957031 16.109375 -10.8125 16.109375 -11.9375 L 16.109375 -15.9375 L 25.90625 -15.9375 L 25.90625 -13.578125 C 25.90625 -8.765625 24.972656 -5.222656 23.109375 -2.953125 C 21.253906 -0.679688 18.054688 0.453125 13.515625 0.453125 Z M 16.109375 -24.609375 L 16.109375 -29.90625 C 16.109375 -32.875 15.375 -34.359375 13.90625 -34.359375 C 12.257812 -34.359375 11.4375 -32.875 11.4375 -29.90625 L 11.4375 -24.609375 Z M 16.109375 -24.609375 "/></g></g></g><g fill="#f0f0f0" fill-opacity="1"><g transform="translate(171.092152, 91.997984)"><g><path d="M 10.078125 0.453125 C 7.679688 0.453125 5.867188 -0.117188 4.640625 -1.265625 C 3.421875 -2.410156 2.613281 -3.929688 2.21875 -5.828125 C 1.832031 -7.722656 1.640625 -10.15625 1.640625 -13.125 L 1.75 -31.71875 C 1.75 -34.644531 2.488281 -37.035156 3.96875 -38.890625 C 5.457031 -40.753906 7.550781 -41.6875 10.25 -41.6875 C 12.914062 -41.6875 14.90625 -40.800781 16.21875 -39.03125 L 16.21875 -48.671875 L 26.078125 -48.671875 L 26.078125 0 L 16.21875 0 L 16.21875 -4.390625 C 15.65625 -2.773438 14.894531 -1.5625 13.9375 -0.75 C 12.976562 0.0507812 11.691406 0.453125 10.078125 0.453125 Z M 13.859375 -7.265625 C 14.835938 -7.265625 15.472656 -7.742188 15.765625 -8.703125 C 16.066406 -9.660156 16.21875 -10.945312 16.21875 -12.5625 L 16.21875 -29.796875 C 16.21875 -30.992188 16.046875 -32.003906 15.703125 -32.828125 C 15.367188 -33.660156 14.769531 -34.078125 13.90625 -34.078125 C 12.9375 -34.078125 12.289062 -33.691406 11.96875 -32.921875 C 11.644531 -32.148438 11.484375 -31.109375 11.484375 -29.796875 L 11.484375 -12.453125 C 11.484375 -8.992188 12.273438 -7.265625 13.859375 -7.265625 Z M 13.859375 -7.265625 "/></g></g></g></svg>