<svg xmlns="http://www.w3.org/2000/svg" xmlns:xlink="http://www.w3.org/1999/xlink" width="500" zoomAndPan="magnify" viewBox="0 0 375 374.999991" height="500" preserveAspectRatio="xMidYMid meet" version="1.0"><defs><g/></defs><path stroke-linecap="butt" transform="matrix(0.969019, 0, 0, 0.969019, 3.201453, 86.939548)" fill="none" stroke-linejoin="miter" d="M 91.5973 93.596939 C 90.637889 95.866471 89.005277 97.720796 86.703496 99.167975 C 84.401714 100.615154 82.075746 101.614877 79.72156 102.167144 C 77.048914 102.787939 74.368206 103.082212 71.679435 103.049963 C 68.990664 103.017714 66.269644 102.787939 63.512344 102.368701 C 60.823573 101.965587 58.275893 101.453632 55.873333 100.832836 C 55.385565 101.856746 54.728489 102.477541 53.906136 102.699254 C 53.434493 102.763752 52.958818 102.699254 52.47105 102.497697 C 51.983282 102.965309 51.426985 103.203147 50.806189 103.203147 C 50.116864 103.267645 49.443664 103.235396 48.790619 103.102368 C 48.149668 102.965309 47.553059 102.723441 47.000792 102.368701 C 45.888198 101.614877 45.090032 100.788493 44.602264 99.897611 C 44.134652 99.006729 43.763787 97.942508 43.4937 96.696886 C 41.828839 96.007561 40.192196 95.302111 38.57974 94.580537 C 36.967284 93.858963 35.366921 93.084984 33.790745 92.2586 C 32.258912 91.436247 31.291438 90.166438 30.888324 88.453203 C 30.469085 86.723844 30.714985 85.135575 31.621991 83.688395 C 32.444344 82.245247 33.698029 81.30196 35.379014 80.866597 C 37.055969 80.411078 38.620051 80.596511 40.067231 81.418863 L 40.494532 81.721199 C 40.426002 81.100403 40.317161 80.503794 40.168009 79.931372 C 40.03095 79.342826 39.897923 78.738155 39.764895 78.117359 C 38.672456 72.336704 37.51955 66.572173 36.310208 60.823766 C 35.100866 55.07536 33.91571 49.343078 32.754742 43.630952 C 32.670088 43.429395 32.597527 43.227838 32.528998 43.026281 C 32.460469 42.808599 32.391939 42.631229 32.327441 42.49417 C 32.057354 41.454136 32.234725 40.539067 32.85552 39.748963 C 33.476316 38.95886 34.23417 38.495279 35.125052 38.362251 C 35.395139 38.293722 35.64507 38.245348 35.882907 38.209068 C 36.132838 38.176819 36.358581 38.160694 36.560138 38.160694 C 36.914879 37.253687 37.571955 36.548238 38.527335 36.044345 C 39.486747 35.520297 40.554999 35.17765 41.728061 35.008342 C 42.905154 34.839034 43.872627 34.790661 44.630482 34.85919 C 48.056951 35.125245 51.100462 36.225747 53.756984 38.160694 C 56.409474 40.075486 58.941031 42.21199 61.34359 44.562145 C 64.032361 47.101764 66.696945 49.713943 69.333311 52.402714 C 71.989833 55.091484 74.5617 57.848784 77.048914 60.670583 C 77.939796 61.561465 78.814554 62.512814 79.669155 63.520599 C 80.527788 64.51226 81.334016 65.520045 82.091871 66.547986 C 83.401992 68.277345 84.663739 70.042985 85.873081 71.840873 C 87.082423 73.622637 88.1668 75.50518 89.126211 77.488501 C 90.367802 79.907186 91.38365 82.531458 92.173753 85.353256 C 92.963857 88.175055 92.770362 90.924293 91.5973 93.596939 Z M 35.955467 51.169185 C 35.874845 50.967628 35.653132 50.637074 35.302423 50.185586 C 34.963807 49.730067 34.871091 49.883251 35.024274 50.637074 C 35.915156 54.216727 36.753633 57.780255 37.543737 61.327659 C 38.33384 64.875062 39.176349 68.438591 40.067231 72.018243 L 42.864842 83.059537 C 43.199427 83.20869 43.521918 83.38606 43.824254 83.587617 C 44.142714 83.789174 44.445049 83.958482 44.73126 84.091509 C 44.445049 83.200627 44.142714 82.32587 43.824254 81.471268 C 43.521918 80.612635 43.267956 79.737878 43.066399 78.846996 C 42.796313 77.875491 42.417386 76.444436 41.933649 74.561893 C 41.445881 72.663226 40.921833 70.563002 40.369566 68.26122 C 39.829393 65.943315 39.269065 63.645565 38.680518 61.380064 C 38.091972 59.110531 37.551799 57.066743 37.068062 55.25273 C 36.596419 53.418561 36.225554 52.060067 35.955467 51.169185 Z M 79.72156 82.656423 C 78.963706 81.47933 78.193758 80.294175 77.403654 79.100957 C 76.613551 77.891615 75.807323 76.738709 74.980939 75.64627 C 73.469261 73.578295 71.832618 71.578849 70.066979 69.647933 C 68.317464 67.712985 66.442983 65.89091 64.443538 64.177675 C 60.662328 60.662521 56.361101 57.530324 51.535826 54.773024 L 49.568629 53.741052 C 50.459511 58.01003 51.302019 62.311257 52.092123 66.648764 C 52.898351 70.98224 53.644112 75.287498 54.333437 79.556476 C 54.603524 81.068154 54.87361 82.604019 55.143696 84.168101 C 55.425876 85.716059 55.704025 87.27611 55.974111 88.856317 C 57.554318 89.412615 59.166775 89.948757 60.815511 90.468774 C 62.476341 90.976697 64.165389 91.403998 65.882655 91.754708 C 67.257274 92.024794 68.394055 92.226351 69.284937 92.36341 C 70.191944 92.496437 71.300508 92.597216 72.610628 92.665745 C 73.840126 92.665745 74.896285 92.629465 75.787167 92.564967 C 76.698205 92.496437 77.697928 92.327129 78.790367 92.057043 C 79.697373 91.855486 80.511664 91.605555 81.233238 91.30322 C 81.954812 90.98476 82.587701 90.581646 83.123843 90.093878 C 83.059345 89.404553 82.890037 88.763601 82.61995 88.175055 C 82.349864 87.586508 82.039466 86.989899 81.688757 86.385228 C 81.41867 85.764433 81.108273 85.127512 80.753532 84.470437 C 80.418948 83.813361 80.076301 83.20869 79.72156 82.656423 Z M 136.818635 83.059537 C 136.06078 85.615281 135.061058 88.102494 133.819466 90.521179 C 132.589968 92.923738 130.977512 95.0159 128.978066 96.797664 C 128.776509 96.934723 128.53061 97.144342 128.244399 97.430553 C 127.776787 97.898166 127.119711 98.502837 126.281233 99.244567 C 125.45485 99.966141 124.600248 100.5305 123.709366 100.933615 C 121.371304 102.445292 118.827655 103.118493 116.070354 102.949185 C 113.313054 102.779877 110.676688 102.026054 108.153194 100.679653 C 105.649856 99.337283 103.54157 97.66436 101.824304 95.664914 C 100.094944 93.665468 98.651796 91.428185 97.490828 88.957096 C 96.870032 89.025625 96.245205 88.908722 95.62441 88.606387 C 95.003614 88.283896 94.523908 87.747754 94.189324 86.989899 C 91.63358 80.588448 90.194463 73.900786 89.876003 66.922882 C 89.573668 59.932884 90.178339 53.092039 91.690016 46.404376 C 92.113286 44.691142 92.750206 42.957751 93.608839 41.212267 C 94.463441 39.446628 95.600223 38.035729 97.011122 36.975539 C 98.422021 35.899224 100.163474 35.536422 102.231449 35.891162 C 103.47304 36.02419 104.589666 36.487771 105.581327 37.277874 C 106.589112 38.067978 107.330842 39.051576 107.802485 40.228669 C 108.354751 41.740347 108.407156 43.41327 107.951637 45.243408 C 107.516274 47.057421 107.230063 48.758563 107.097036 50.334739 C 106.943852 52.269686 106.867261 54.216727 106.867261 56.183923 C 106.867261 58.134995 106.911603 60.073974 106.996257 62.008922 C 107.262312 65.991688 107.842797 69.918019 108.733679 73.779852 C 109.624561 77.629591 110.757311 81.410801 112.135961 85.127512 C 112.893816 85.679779 113.667795 86.151422 114.457898 86.538412 C 115.264126 86.909277 116.110666 87.126958 117.001548 87.191456 C 119.000994 86.788342 120.726322 85.96599 122.16947 84.724398 C 122.995854 83.547305 123.540058 82.116251 123.810144 80.435265 C 124.096355 78.75831 124.269694 77.093449 124.338224 75.444713 C 124.406753 73.779852 124.471251 72.36089 124.539781 71.183797 C 124.878397 66.580235 125.043673 61.976672 125.043673 57.369079 C 125.043673 52.749392 125.011424 48.133736 124.942895 43.530173 C 124.878397 41.949966 125.56369 40.748686 127.01087 39.926334 C 128.458049 39.083825 129.832668 39.043514 131.14682 39.797337 L 131.14682 38.765365 C 131.14682 38.225192 131.348377 37.733393 131.751491 37.277874 C 132.17073 36.822355 132.658498 36.628861 133.210764 36.69739 C 134.790971 36.850573 135.943877 37.43912 136.665451 38.46303 C 137.391057 39.486939 137.866731 40.672095 138.104569 42.018496 C 138.354499 43.360865 138.515745 44.691142 138.584274 46.001262 C 138.717302 47.242854 138.85033 48.488476 138.987388 49.730067 C 139.120416 50.959565 139.188945 52.193094 139.188945 53.438717 L 139.188945 57.570636 C 139.406627 61.839614 139.354222 66.124716 139.035762 70.429974 C 138.733427 74.731201 137.995728 78.939712 136.818635 83.059537 Z M 106.665704 46.730899 C 106.399648 46.863927 106.19406 46.791366 106.061032 46.505155 C 105.992503 46.992923 105.883662 47.460535 105.73451 47.916054 C 105.597451 48.351417 105.432175 48.782749 105.230618 49.201988 C 104.811379 52.713111 104.617884 56.228266 104.650133 59.739389 C 104.682382 63.250513 105.045185 66.721325 105.73451 70.151825 C 105.883662 70.84115 106.028783 71.514351 106.161811 72.167396 C 106.294839 72.824472 106.431897 73.461392 106.564925 74.082187 C 106.701984 74.082187 106.802762 74.118468 106.867261 74.186997 C 105.222555 64.959716 105.154026 55.804996 106.665704 46.730899 Z M 198.470898 92.464188 C 198.607957 93.907337 198.579739 95.354516 198.394306 96.797664 C 198.22903 98.244844 197.765449 99.623494 197.007594 100.933615 C 196.253771 102.243735 195.068616 103.195084 193.456159 103.7796 C 191.839672 104.368146 190.380399 104.009375 189.070278 102.699254 C 187.893185 102.413043 186.893463 101.808372 186.067079 100.88121 C 185.244726 99.958079 184.83355 98.873702 184.83355 97.63211 C 184.631993 88.824068 183.430713 80.052307 181.22971 71.312794 C 180.741942 69.091635 180.254174 66.898695 179.766406 64.729941 C 179.294763 62.565219 178.815057 60.41259 178.327289 58.276085 C 177.085698 61.855738 175.876355 65.697415 174.699262 69.797085 C 173.538294 73.900786 172.582914 77.395785 171.825059 80.286113 C 171.135734 83.107911 170.462534 85.998239 169.809489 88.957096 C 169.152413 91.915953 168.624334 94.495883 168.22122 96.696886 C 168.15269 96.898443 168.059974 96.983097 167.943071 96.950848 C 167.842292 96.914567 167.789888 96.866194 167.789888 96.797664 C 167.725389 97.285432 167.624611 97.7732 167.487552 98.260968 C 167.354524 98.732612 167.221497 99.244567 167.084438 99.796833 C 166.798227 100.486158 166.463642 101.110985 166.076653 101.663251 C 165.705788 102.219548 165.109179 102.598476 164.286826 102.800033 C 163.666031 102.93306 163.218574 102.900811 162.952519 102.699254 C 162.327692 102.699254 161.839924 102.554133 161.489215 102.267922 C 161.086101 102.554133 160.783765 102.453355 160.582208 101.965587 C 160.09444 101.211763 159.723575 100.453909 159.473645 99.696054 C 159.235807 98.942231 159.018126 98.152128 158.816569 97.325744 L 154.378283 81.519642 C 153.890515 79.806407 153.422903 78.093172 152.967384 76.379938 C 152.532021 74.646547 152.100689 72.917188 151.68145 71.183797 C 151.548422 70.780683 151.411364 70.377569 151.278336 69.974455 C 151.145308 69.555217 151.000187 69.099698 150.851035 68.61193 C 151.068717 72.949437 151.262211 77.359505 151.431519 81.850195 C 151.596796 86.32073 151.713699 90.722736 151.782228 95.060243 C 151.850758 96.57192 151.798353 98.136003 151.633076 99.748459 C 151.463768 101.360915 150.556762 102.546071 148.908025 103.303925 C 148.154202 103.654634 147.565655 103.590136 147.142386 103.102368 C 147.009358 102.965309 146.90858 102.832282 146.84005 102.699254 C 145.396902 103.166866 144.18756 102.924998 143.212024 101.965587 C 142.321142 101.010206 141.732595 99.841175 141.446384 98.462525 C 141.176298 97.083875 140.974741 95.773755 140.841713 94.528132 C 140.438599 91.504777 140.128201 88.529795 139.91052 85.603187 C 139.708963 82.68061 139.571904 79.737878 139.507406 76.783052 C 139.305848 70.647656 139.201039 64.520322 139.201039 58.405082 C 139.136541 55.4301 139.076073 52.4269 139.0277 49.403545 C 138.99142 46.38019 139.253444 43.385052 139.809741 40.430226 C 139.874239 40.144015 140.075796 39.998894 140.414412 39.998894 C 140.765121 39.998894 140.974741 40.144015 141.04327 40.430226 C 141.39801 42.49417 141.60763 44.679048 141.672128 46.984861 C 141.740657 49.286642 141.809187 51.54005 141.873685 53.741052 C 142.010744 53.741052 142.111522 54.115948 142.176021 54.873803 C 142.260675 55.631657 142.337266 56.010584 142.405796 56.010584 L 142.405796 53.640274 C 142.405796 52.394651 142.389671 51.177247 142.353391 49.984029 C 142.321142 48.774687 142.305017 47.545189 142.305017 46.303598 C 142.220363 45.275657 142.196176 44.219498 142.228425 43.127059 C 142.276799 42.018496 142.538823 40.97443 143.010467 39.998894 C 143.010467 38.841957 143.599013 37.914795 144.776106 37.225469 C 146.420812 36.185435 148.142109 35.939536 149.944028 36.495833 C 152.007972 36.915072 153.422903 38.124414 154.176726 40.127891 C 154.781397 40.881714 155.160324 41.808876 155.313508 42.901315 C 155.446535 44.142907 155.615843 45.404654 155.8174 46.682525 C 156.018957 47.940241 156.228576 49.226175 156.446258 50.536296 C 157.33714 55.849339 158.328801 61.396188 159.42124 67.176844 C 160.529803 72.957499 161.674647 78.464037 162.85174 83.688395 C 163.537034 80.798068 164.186048 77.90774 164.790719 75.017412 C 165.411515 72.127084 166.068591 69.236757 166.757916 66.346429 C 167.733452 61.875894 168.733174 57.421484 169.757084 52.983198 C 170.80115 48.528788 171.623502 44.066315 172.228173 39.59578 C 172.377325 39.043514 172.691754 38.547684 173.159367 38.108289 C 173.647135 37.656802 174.171183 37.394777 174.723449 37.326248 C 176.436684 36.842511 177.952393 36.975539 179.262513 37.733393 C 180.016337 37.19322 180.87497 36.923134 181.834381 36.923134 C 182.805886 36.923134 183.608083 37.269812 184.228879 37.959137 C 185.809086 39.539344 187.074864 41.329171 188.034275 43.328616 C 188.993687 45.311937 189.715261 47.37185 190.203029 49.504324 C 190.759326 51.85851 191.255157 54.184478 191.69052 56.486259 C 192.142008 58.792071 192.581402 61.109977 193.00064 63.444008 C 193.133668 64.33489 193.286851 65.233834 193.456159 66.144872 C 193.621436 67.035754 193.74237 67.922605 193.806869 68.813487 C 194.02455 69.571341 194.218045 70.329196 194.387353 71.083019 C 194.556661 71.840873 194.705813 72.598728 194.842872 73.352551 C 195.193581 75.085941 195.520103 76.774989 195.82647 78.419695 C 196.14493 80.068431 196.471452 81.757479 196.806037 83.486838 C 197.160777 84.998516 197.4873 86.494069 197.789635 87.973498 C 198.112127 89.452926 198.337871 90.948479 198.470898 92.464188 Z M 155.615843 64.379232 C 155.8174 64.867 155.982677 65.302363 156.119736 65.689353 C 156.268888 66.060218 156.478507 66.410927 156.748594 66.749543 C 156.260826 64.141395 155.708559 61.134164 155.083733 57.723819 C 154.479061 54.309443 153.934857 51.302212 153.447089 48.698095 C 153.37856 47.924116 153.269719 47.142075 153.120567 46.351972 C 152.983508 45.561868 152.818232 44.75564 152.616675 43.933287 C 152.209529 44.203374 151.733855 44.412993 151.177557 44.562145 C 151.177557 44.699204 151.145308 44.832232 151.076779 44.965259 C 151.834633 48.125674 152.572332 51.261901 153.293906 54.36991 C 154.019511 57.461795 154.724961 60.630271 155.414286 63.87534 C 155.547314 64.008367 155.615843 64.177675 155.615843 64.379232 Z M 171.321167 80.084556 C 172.276547 76.150163 173.304488 72.227863 174.396927 68.309594 C 175.505491 64.379232 176.714833 60.489182 178.024953 56.639442 C 177.960455 56.284702 177.883863 55.942055 177.799209 55.603439 C 177.73068 55.25273 177.629902 54.906052 177.496874 54.571467 C 176.404435 57.949563 175.372463 61.380064 174.396927 64.858938 C 173.437515 68.317656 172.546633 71.808624 171.724281 75.319748 C 171.655751 76.077602 171.530786 76.855612 171.345353 77.665871 C 171.176046 78.451944 171.026893 79.225923 170.893866 79.983777 C 170.958364 80.052307 171.059142 80.084556 171.196201 80.084556 Z M 239.669154 67.882293 C 238.762148 69.547154 237.500401 70.772621 235.887945 71.562725 C 234.275488 72.352828 232.501787 72.816409 230.57087 72.949437 C 228.635923 73.082465 226.688882 73.050215 224.721685 72.848658 C 222.770613 72.647101 221.004974 72.405233 219.424767 72.119022 C 218.94103 71.981963 218.469386 71.881185 218.013867 71.816686 C 217.578504 71.748157 217.114923 71.679628 216.627155 71.615129 C 216.764214 72.235925 216.897242 72.856721 217.030269 73.477516 C 217.183453 74.082187 217.292293 74.662672 217.360823 75.218969 C 217.848591 77.774712 218.308141 80.326424 218.747535 82.882167 C 219.199023 85.421786 219.561825 87.957373 219.831912 90.496992 C 219.964939 91.738583 219.997189 93.00033 219.93269 94.278202 C 219.864161 95.556073 219.662604 96.773478 219.323988 97.934446 C 218.840251 99.663805 217.804248 101.252075 216.224041 102.699254 C 215.671775 103.166866 214.921983 103.553856 213.982727 103.856191 C 213.055565 104.174652 212.293679 103.95697 211.689008 103.203147 C 211.132711 102.445292 210.806188 101.606815 210.70541 100.679653 C 210.604631 99.756522 210.475635 98.841453 210.326482 97.934446 C 210.257953 97.309619 210.173299 96.680761 210.072521 96.043841 C 209.971742 95.386765 209.887088 94.713565 209.82259 94.02424 C 209.334822 92.36341 208.923646 90.605832 208.58503 88.755539 C 208.653559 89.311836 208.722089 89.847978 208.786587 90.367995 C 208.855116 90.875919 208.923646 91.403998 208.988144 91.956265 C 209.125203 92.847147 209.242106 93.738029 209.342884 94.628911 C 209.459787 95.519793 209.584753 96.418737 209.721811 97.325744 C 209.78631 98.015069 209.870964 98.72455 209.971742 99.446124 C 210.072521 100.167698 210.024147 100.840898 209.82259 101.461694 C 209.82259 101.530223 209.78631 101.530223 209.721811 101.461694 C 209.302573 100.840898 209.056673 100.099168 208.988144 99.244567 C 208.923646 98.369809 208.822867 97.587768 208.685808 96.898443 L 207.754615 91.528964 C 207.484528 89.7472 207.20638 87.98156 206.9242 86.236076 C 206.654113 84.470437 206.375965 82.688672 206.089754 80.890784 C 205.755169 78.75831 205.428647 76.629868 205.106155 74.513519 C 204.80382 72.377015 204.48536 70.244542 204.150775 68.108037 C 200.837178 66.797916 197.668701 65.354768 194.645346 63.774561 C 194.576816 63.689907 194.576816 63.613315 194.645346 63.544786 C 194.713875 63.480288 194.778373 63.480288 194.846903 63.544786 C 196.358581 64.234111 197.890414 64.907312 199.434341 65.564387 C 200.982299 66.217432 202.510101 66.822103 204.021779 67.378401 C 203.95728 67.02366 203.888751 66.713263 203.820222 66.447207 C 203.755723 66.177121 203.687194 65.898972 203.618665 65.612761 C 202.441572 65.141118 201.284634 64.645287 200.13979 64.12527 C 199.015102 63.605253 197.870258 63.101361 196.713321 62.613593 C 195.604757 62.077451 194.90737 61.150289 194.621159 59.840168 C 194.351073 58.530047 194.492162 57.393266 195.04846 56.437885 C 195.536228 55.680031 196.294082 55.059235 197.317992 54.571467 C 198.358026 54.083699 199.3255 54.01517 200.216382 54.36991 L 200.821053 54.672246 C 200.216382 52.402714 199.5714 50.133181 198.882074 47.867681 C 198.192749 45.598148 197.467144 43.360865 196.713321 41.159863 C 196.42711 40.252856 196.527888 39.438566 197.015656 38.71296 C 197.503424 37.991386 198.12422 37.495556 198.882074 37.225469 C 198.813545 36.741733 198.898199 36.326525 199.132005 35.99194 C 199.369842 35.6372 199.627835 35.326802 199.914046 35.060747 C 201.627281 33.883654 203.501762 33.488602 205.537488 33.875592 C 207.569182 34.242425 209.411414 34.839034 211.056119 35.665418 C 212.769354 36.572425 214.434215 37.519743 216.046671 38.511403 C 217.679283 39.503064 219.283677 40.522942 220.863884 41.562977 C 224.108952 43.699481 227.257273 45.9932 230.316908 48.444134 C 233.376544 50.882974 236.383775 53.402436 239.342632 56.010584 C 240.164985 56.695878 240.511663 57.494044 240.374604 58.405082 C 240.999431 59.428992 241.410607 60.452901 241.612164 61.480842 C 241.829846 62.92399 241.745192 64.169613 241.358202 65.209647 C 240.991369 66.233557 240.427009 67.124439 239.669154 67.882293 Z M 227.265335 56.840999 C 225.753657 55.950117 224.258104 55.07536 222.778676 54.216727 C 221.299247 53.346001 219.803694 52.49543 218.292016 51.673077 C 217.183453 51.132904 216.038609 50.572576 214.865547 49.984029 C 213.704578 49.395483 212.535547 48.859341 211.358454 48.371573 C 211.914752 50.302489 212.426707 52.269686 212.89835 54.269132 C 213.386118 56.252453 213.837606 58.243836 214.256844 60.243282 C 216.526377 61.001136 218.727379 61.621932 220.863884 62.1097 C 222.593243 62.444285 224.334696 62.706309 226.08018 62.891741 C 227.829695 63.057018 229.571147 63.077174 231.300507 62.940115 C 231.635091 62.940115 231.989832 62.92399 232.360697 62.891741 C 232.747686 62.855461 233.082271 62.807087 233.368482 62.738558 L 234.17471 62.512814 C 234.041682 62.242728 233.904623 62.041171 233.771596 61.908143 C 233.082271 60.799579 232.114797 59.84823 230.873206 59.058127 C 229.643708 58.268023 228.442428 57.530324 227.265335 56.840999 Z M 221.895856 70.679905 C 221.004974 70.546877 220.07378 70.393694 219.098244 70.228417 C 218.142864 70.042985 217.183453 69.84949 216.224041 69.647933 C 216.29257 69.78096 216.32482 69.926082 216.32482 70.075234 C 216.32482 70.208261 216.3611 70.34532 216.425598 70.478348 C 216.627155 70.546877 216.812588 70.595251 216.981895 70.631531 C 217.167328 70.66378 217.360823 70.679905 217.56238 70.679905 C 219.561825 70.949991 221.609645 71.212015 223.7139 71.461946 C 225.814124 71.695752 227.853882 71.715908 229.837203 71.514351 L 233.771596 70.881462 C 233.771596 70.816964 233.408793 70.816964 232.687219 70.881462 C 231.965645 70.949991 231.602842 70.949991 231.602842 70.881462 C 229.889607 71.083019 228.164279 71.151548 226.43492 71.083019 C 224.721685 71.018521 223.210008 70.881462 221.895856 70.679905 Z M 216.727934 88.856317 C 216.864992 90.569552 216.913366 92.327129 216.881117 94.125018 C 216.844837 95.906782 216.417536 97.587768 215.595183 99.167975 L 215.79674 99.494497 C 216.215979 99.276816 216.562657 99.034947 216.828712 98.764861 C 217.586567 97.184654 217.913089 95.535917 217.81231 93.822683 C 217.711532 92.093323 217.49385 90.367995 217.159266 88.65476 L 216.526377 85.454035 C 216.461878 85.522564 216.461878 85.764433 216.526377 86.183671 C 216.594906 86.586785 216.594906 86.788342 216.526377 86.788342 Z M 239.237822 48.472352 C 242.680416 46.690587 246.260069 45.174879 249.976781 43.933287 C 253.689461 42.687665 257.414235 41.587164 261.14304 40.631783 L 263.513351 39.998894 C 265.649855 39.59578 267.782329 39.208791 269.918833 38.841957 C 272.051306 38.454967 274.22006 38.192943 276.421063 38.059916 C 276.892706 37.991386 277.352256 37.959137 277.807775 37.959137 C 278.263294 37.959137 278.722844 37.959137 279.194487 37.959137 C 277.211166 38.430781 275.187534 38.926611 273.119559 39.446628 C 271.051584 39.966645 269.015858 40.462475 267.016412 40.934119 C 263.505288 41.687942 260.01029 42.506264 256.531415 43.37699 C 253.052541 44.235623 249.597854 45.243408 246.167353 46.404376 C 244.994291 46.755086 243.833323 47.1582 242.688479 47.613719 C 241.56379 48.049082 240.414915 48.544912 239.237822 49.10121 C 238.967736 48.968182 238.967736 48.758563 239.237822 48.472352 Z M 297.169343 90.496992 C 297.036315 91.117787 296.689637 91.460434 296.13334 91.528964 C 292.35213 92.218289 288.546733 93.068859 284.71715 94.076644 C 280.89966 95.068305 277.170855 96.21718 273.522673 97.531332 C 271.809438 98.152128 270.067985 98.772923 268.302346 99.393719 C 266.556862 100.018546 264.815409 100.707871 263.08605 101.461694 L 262.985271 101.461694 C 262.916742 101.530223 262.815963 101.578597 262.682936 101.614877 C 262.545877 101.647126 262.412849 101.6955 262.279822 101.764029 C 261.723524 102.034116 261.151102 102.275984 260.562556 102.497697 C 259.974009 102.699254 259.405619 102.93306 258.849321 103.203147 L 258.748543 103.303925 C 258.345429 103.590136 257.57145 103.932783 256.430637 104.335897 C 255.301917 104.755136 254.237696 105.101814 253.229911 105.367869 C 252.238251 105.65408 251.74242 105.799201 251.74242 105.799201 C 251.74242 105.799201 251.613424 105.815326 251.363493 105.847575 C 251.125656 105.883855 250.907974 105.89998 250.706417 105.89998 C 249.884065 106.033007 249.049618 106.024945 248.211141 105.875793 C 247.388789 105.738734 246.776055 105.226779 246.36891 104.335897 C 246.167353 103.932783 246.135104 103.453077 246.268132 102.900811 C 244.958011 102.344514 243.942163 101.393165 243.220589 100.050795 C 242.494984 98.704394 242.378081 97.386211 242.865849 96.092215 C 242.579638 94.294326 242.353894 92.488375 242.184586 90.670331 C 242.019309 88.840193 241.866126 87.02618 241.733098 85.228291 L 240.471351 72.848658 L 239.237822 61.077728 C 237.923671 59.630549 237.379467 57.941501 237.597148 56.010584 C 237.798705 54.091762 238.657338 52.479305 240.169016 51.169185 C 240.237545 51.032126 240.302044 50.899098 240.370573 50.766071 C 240.439102 50.612887 240.503601 50.471797 240.57213 50.334739 C 241.680694 49.851002 242.781195 49.403545 243.873634 49.000431 C 244.986229 48.581192 246.094792 48.202265 247.203356 47.867681 C 250.629826 46.690587 254.084513 45.670709 257.563387 44.816107 C 261.042262 43.957474 264.53726 43.183495 268.052415 42.49417 C 270.809715 41.873375 273.522673 41.200174 276.195319 40.4786 C 278.88409 39.757026 281.57286 39.051576 284.261631 38.362251 C 284.61234 38.430781 284.975143 38.479154 285.346008 38.511403 C 285.732997 38.547684 286.05952 38.632338 286.329606 38.765365 L 287.994467 39.394223 C 288.260522 39.59578 288.530609 39.825555 288.800695 40.075486 C 289.086906 40.309292 289.361024 40.531005 289.63111 40.732562 C 289.985851 41.841125 290.227719 42.933564 290.360747 44.009879 C 290.497805 45.066038 290.461525 46.110103 290.259968 47.134013 L 285.092046 48.698095 C 283.983482 49.03268 282.822514 49.379358 281.613172 49.730067 C 280.419954 50.068683 279.234799 50.403268 278.061737 50.737853 C 277.791651 50.891036 277.590093 50.967628 277.453035 50.967628 C 276.142914 51.302212 274.607049 51.729513 272.84141 52.253561 C 271.091895 52.773579 269.338349 53.293596 267.572709 53.813613 C 265.823194 54.321537 264.327641 54.781087 263.08605 55.200325 C 261.856552 55.603439 261.102729 55.873526 260.816518 56.010584 C 259.167781 56.562851 257.515014 57.151397 255.850153 57.772193 C 254.201416 58.39702 252.58896 59.050064 251.008753 59.739389 L 250.807196 59.940946 C 250.875725 60.275531 250.960379 60.847953 251.061158 61.654181 C 251.161936 62.444285 251.262715 63.186015 251.363493 63.87534 C 251.480396 64.564665 251.540863 65.00809 251.540863 65.209647 C 254.431191 63.968056 257.305394 62.74662 260.159442 61.553403 C 263.01752 60.34406 265.923973 59.183092 268.88283 58.074528 C 270.531566 57.671414 272.192396 57.244113 273.873382 56.788595 C 275.570492 56.337107 277.243415 55.873526 278.892152 55.401882 L 280.226459 55.07536 C 280.851286 54.942332 281.455957 54.857678 282.044504 54.825429 C 282.63305 54.789149 283.237721 54.740775 283.858517 54.672246 C 285.168638 54.603716 286.406198 54.696433 287.563135 54.950394 C 288.740228 55.184201 289.671422 55.917868 290.360747 57.143335 C 290.497805 57.292487 290.582459 57.437608 290.614709 57.570636 C 290.646958 57.707695 290.699363 57.840722 290.763861 57.97375 C 290.90092 58.175307 291.001698 58.384926 291.066196 58.606639 C 291.134726 58.808196 291.211317 59.009753 291.295971 59.21131 C 291.36047 59.275808 291.428999 59.312088 291.497528 59.312088 C 292.452909 59.799857 293.033393 60.662521 293.23495 61.908143 C 293.456663 62.867554 293.303479 63.847122 292.783462 64.858938 C 292.259414 65.850598 291.521715 66.588297 290.562304 67.076065 C 289.45374 67.547709 288.329052 67.841982 287.184208 67.958885 C 286.05952 68.059663 284.918707 68.245096 283.757738 68.511151 C 282.512116 68.712708 281.2544 68.942483 279.976529 69.192414 C 278.698657 69.430251 277.444972 69.716462 276.219506 70.051047 C 273.732292 70.740372 271.261203 71.486133 268.806238 72.292361 C 266.371429 73.082465 263.948714 73.993502 261.546154 75.017412 C 260.034476 75.638208 258.571172 76.295284 257.160273 76.984609 C 255.749374 77.673934 254.32235 78.395508 252.875171 79.153362 L 253.479842 85.857149 C 253.479842 85.925678 253.479842 85.974052 253.479842 86.010332 C 253.479842 86.042581 253.479842 86.127235 253.479842 86.260263 L 253.806364 86.058706 C 254.967333 85.502409 256.120239 85.006578 257.261052 84.571215 C 258.405896 84.119727 259.522522 83.656146 260.614961 83.184503 L 269.386722 79.758033 C 270.144577 79.419417 270.918556 79.117082 271.708659 78.846996 C 272.514888 78.564816 273.296929 78.286667 274.050752 78.016581 C 275.28025 77.528813 276.513779 77.069263 277.75537 76.629868 C 279.000993 76.178381 280.234522 75.738986 281.46402 75.319748 L 285.49516 74.082187 C 286.051457 73.94916 286.607755 73.763727 287.160021 73.529921 C 287.716319 73.275959 288.260522 73.082465 288.800695 72.949437 C 290.800141 72.530198 292.436784 72.707569 293.714656 73.477516 C 294.992527 74.235371 296.008375 75.335872 296.766229 76.783052 C 297.520052 78.2262 298.084412 79.806407 298.455277 81.519642 C 298.842266 83.236908 299.06801 84.817115 299.13654 86.260263 C 299.201038 87.16727 299.043823 87.98156 298.656834 88.707165 C 298.285969 89.428739 297.790139 90.025348 297.169343 90.496992 Z M 272.184334 68.61193 C 270.604127 69.099698 268.999733 69.587466 267.371152 70.075234 C 265.758696 70.546877 264.162364 71.058832 262.582157 71.615129 C 261.538092 71.881185 260.522244 72.175458 259.530584 72.497949 C 258.538923 72.800285 257.555325 73.082465 256.579789 73.352551 C 256.378232 74.529644 255.834028 75.497118 254.943146 76.250941 C 257.478733 74.94082 260.074788 73.77179 262.731309 72.74788 C 265.387831 71.707846 267.983886 70.671843 270.523504 69.647933 C 271.07577 69.377846 271.664317 69.135978 272.285113 68.914265 Z M 249.37211 104.335897 C 250.125933 104.404427 250.984566 104.420551 251.943977 104.388302 C 252.899358 104.352022 253.455655 104.303648 253.604807 104.235119 C 253.741866 104.235119 253.842645 104.20287 253.907143 104.13434 C 254.310257 103.932783 254.725464 103.723164 255.144703 103.505482 C 255.563942 103.303925 255.942869 103.102368 256.277453 102.900811 C 257.103837 102.477541 257.910065 102.066365 258.700169 101.663251 C 259.490272 101.244012 260.26022 100.832836 261.018075 100.429722 L 261.018075 100.199947 C 260.127193 100.554687 259.204061 100.909428 258.24465 101.260137 C 257.285239 101.594722 256.321796 101.933337 255.34626 102.267922 C 254.386849 102.622662 253.40325 102.981434 252.395465 103.352299 C 251.403805 103.739288 250.396019 104.065811 249.37211 104.335897 Z M 353.847179 93.596939 C 352.887768 95.866471 351.259187 97.720796 348.957406 99.167975 C 346.651593 100.615154 344.325625 101.614877 341.971439 102.167144 C 339.298793 102.787939 336.618084 103.082212 333.929314 103.049963 C 331.240543 103.017714 328.519523 102.787939 325.762223 102.368701 C 323.073452 101.965587 320.525771 101.453632 318.123212 100.832836 C 317.635444 101.856746 316.982399 102.477541 316.156015 102.699254 C 315.688403 102.763752 315.208697 102.699254 314.720929 102.497697 C 314.233161 102.965309 313.676864 103.203147 313.056068 103.203147 C 312.366743 103.267645 311.693542 103.235396 311.040498 103.102368 C 310.399546 102.965309 309.802938 102.723441 309.250671 102.368701 C 308.142108 101.614877 307.343942 100.788493 306.856174 99.897611 C 306.38453 99.006729 306.013665 97.942508 305.74761 96.696886 C 304.082749 96.007561 302.442075 95.302111 300.829619 94.580537 C 299.217162 93.858963 297.620831 93.084984 296.040624 92.2586 C 294.50879 91.436247 293.545348 90.166438 293.142234 88.453203 C 292.718964 86.723844 292.964863 85.135575 293.87187 83.688395 C 294.694223 82.245247 295.947907 81.30196 297.628893 80.866597 C 299.309879 80.411078 300.873961 80.596511 302.31711 81.418863 L 302.74441 81.721199 C 302.679912 81.100403 302.571071 80.503794 302.417888 79.931372 C 302.28486 79.342826 302.147802 78.738155 302.014774 78.117359 C 300.922335 72.336704 299.769429 66.572173 298.560087 60.823766 C 297.350744 55.07536 296.165589 49.343078 295.004621 43.630952 C 294.923998 43.429395 294.847406 43.227838 294.778877 43.026281 C 294.710347 42.808599 294.645849 42.631229 294.57732 42.49417 C 294.307233 41.454136 294.484603 40.539067 295.105399 39.748963 C 295.730226 38.95886 296.484049 38.495279 297.374931 38.362251 C 297.645018 38.293722 297.89898 38.245348 298.132786 38.209068 C 298.382716 38.176819 298.612491 38.160694 298.814048 38.160694 C 299.164758 37.253687 299.821834 36.548238 300.781245 36.044345 C 301.736625 35.520297 302.804878 35.17765 303.981971 35.008342 C 305.159064 34.839034 306.122506 34.790661 306.880361 34.85919 C 310.310861 35.125245 313.350341 36.225747 316.006863 38.160694 C 318.663384 40.075486 321.19091 42.21199 323.593469 44.562145 C 326.28224 47.101764 328.946824 49.713943 331.587221 52.402714 C 334.239711 55.091484 336.811579 57.848784 339.298793 60.670583 C 340.189675 61.561465 341.064432 62.512814 341.923065 63.520599 C 342.777667 64.51226 343.587926 65.520045 344.34175 66.547986 C 345.65187 68.277345 346.913617 70.042985 348.122959 71.840873 C 349.332302 73.622637 350.416678 75.50518 351.37609 77.488501 C 352.617681 79.907186 353.63756 82.531458 354.427663 85.353256 C 355.217767 88.175055 355.024272 90.924293 353.847179 93.596939 Z M 298.209377 51.169185 C 298.124723 50.967628 297.907042 50.637074 297.552301 50.185586 C 297.217717 49.730067 297.125001 49.883251 297.274153 50.637074 C 298.165035 54.216727 299.007543 57.780255 299.797647 61.327659 C 300.58775 64.875062 301.426227 68.438591 302.31711 72.018243 L 305.114721 83.059537 C 305.453337 83.20869 305.771797 83.38606 306.074133 83.587617 C 306.392593 83.789174 306.694928 83.958482 306.981139 84.091509 C 306.694928 83.200627 306.392593 82.32587 306.074133 81.471268 C 305.771797 80.612635 305.517835 79.737878 305.316278 78.846996 C 305.050223 77.875491 304.671296 76.444436 304.183528 74.561893 C 303.69576 72.663226 303.175742 70.563002 302.619445 68.26122 C 302.083303 65.943315 301.518944 63.645565 300.930397 61.380064 C 300.341851 59.110531 299.805709 57.066743 299.317941 55.25273 C 298.846298 53.418561 298.475433 52.060067 298.209377 51.169185 Z M 341.971439 82.656423 C 341.217616 81.47933 340.443637 80.294175 339.653533 79.100957 C 338.86343 77.891615 338.057202 76.738709 337.234849 75.64627 C 335.71914 73.578295 334.082497 71.578849 332.316857 69.647933 C 330.567342 67.712985 328.696893 65.89091 326.693416 64.177675 C 322.912207 60.662521 318.61098 57.530324 313.789735 54.773024 L 311.822539 53.741052 C 312.713421 58.01003 313.551898 62.311257 314.342002 66.648764 C 315.14823 70.98224 315.898022 75.287498 316.587347 79.556476 C 316.853402 81.068154 317.123489 82.604019 317.393575 84.168101 C 317.679786 85.716059 317.953904 87.27611 318.22399 88.856317 C 319.804197 89.412615 321.416653 89.948757 323.06539 90.468774 C 324.730251 90.976697 326.419299 91.403998 328.132534 91.754708 C 329.511184 92.024794 330.643934 92.226351 331.534816 92.36341 C 332.441823 92.496437 333.554418 92.597216 334.864538 92.665745 C 336.090005 92.665745 337.150195 92.629465 338.041077 92.564967 C 338.948084 92.496437 339.947806 92.327129 341.040246 92.057043 C 341.947252 91.855486 342.761543 91.605555 343.487148 91.30322 C 344.208722 90.98476 344.83758 90.581646 345.377753 90.093878 C 345.309223 89.404553 345.139915 88.763601 344.869829 88.175055 C 344.603774 87.586508 344.293376 86.989899 343.938636 86.385228 C 343.668549 85.764433 343.358151 85.127512 343.007442 84.470437 C 342.668826 83.813361 342.326179 83.20869 341.971439 82.656423 Z M 341.971439 82.656423 " stroke="#100a09" stroke-width="8.26144" stroke-opacity="1" stroke-miterlimit="4"/><g fill="#ffbd59" fill-opacity="1"><g transform="translate(34.331175, 186.74846)"><g><path d="M 57.640625 -9.109375 C 56.703125 -6.898438 55.113281 -5.09375 52.875 -3.6875 C 50.644531 -2.289062 48.394531 -1.328125 46.125 -0.796875 C 43.519531 -0.203125 40.914062 0.078125 38.3125 0.046875 C 35.71875 0.015625 33.085938 -0.195312 30.421875 -0.59375 C 27.816406 -1 25.347656 -1.5 23.015625 -2.09375 C 22.546875 -1.09375 21.910156 -0.492188 21.109375 -0.296875 C 20.640625 -0.234375 20.175781 -0.300781 19.71875 -0.5 C 19.25 -0.03125 18.710938 0.203125 18.109375 0.203125 C 17.441406 0.265625 16.789062 0.226562 16.15625 0.09375 C 15.519531 -0.03125 14.9375 -0.257812 14.40625 -0.59375 C 13.34375 -1.332031 12.578125 -2.132812 12.109375 -3 C 11.640625 -3.863281 11.269531 -4.898438 11 -6.109375 C 9.40625 -6.773438 7.820312 -7.457031 6.25 -8.15625 C 4.6875 -8.851562 3.132812 -9.601562 1.59375 -10.40625 C 0.132812 -11.207031 -0.789062 -12.441406 -1.1875 -14.109375 C -1.59375 -15.773438 -1.363281 -17.3125 -0.5 -18.71875 C 0.300781 -20.113281 1.519531 -21.023438 3.15625 -21.453125 C 4.789062 -21.890625 6.304688 -21.707031 7.703125 -20.90625 L 8.109375 -20.609375 C 8.035156 -21.210938 7.929688 -21.796875 7.796875 -22.359375 C 7.671875 -22.929688 7.539062 -23.515625 7.40625 -24.109375 C 6.332031 -29.710938 5.210938 -35.300781 4.046875 -40.875 C 2.878906 -46.445312 1.726562 -52 0.59375 -57.53125 C 0.53125 -57.738281 0.460938 -57.941406 0.390625 -58.140625 C 0.328125 -58.335938 0.265625 -58.503906 0.203125 -58.640625 C -0.0664062 -59.640625 0.09375 -60.519531 0.6875 -61.28125 C 1.289062 -62.050781 2.03125 -62.503906 2.90625 -62.640625 C 3.164062 -62.703125 3.410156 -62.75 3.640625 -62.78125 C 3.878906 -62.820312 4.097656 -62.84375 4.296875 -62.84375 C 4.628906 -63.707031 5.265625 -64.390625 6.203125 -64.890625 C 7.140625 -65.390625 8.171875 -65.722656 9.296875 -65.890625 C 10.429688 -66.054688 11.367188 -66.109375 12.109375 -66.046875 C 15.441406 -65.773438 18.390625 -64.703125 20.953125 -62.828125 C 23.523438 -60.960938 25.976562 -58.898438 28.3125 -56.640625 C 30.914062 -54.171875 33.5 -51.632812 36.0625 -49.03125 C 38.632812 -46.425781 41.125 -43.757812 43.53125 -41.03125 C 44.394531 -40.15625 45.242188 -39.234375 46.078125 -38.265625 C 46.910156 -37.304688 47.695312 -36.328125 48.4375 -35.328125 C 49.695312 -33.660156 50.910156 -31.957031 52.078125 -30.21875 C 53.242188 -28.488281 54.296875 -26.65625 55.234375 -24.71875 C 56.429688 -22.382812 57.414062 -19.847656 58.1875 -17.109375 C 58.957031 -14.378906 58.773438 -11.710938 57.640625 -9.109375 Z M 3.703125 -50.234375 C 3.640625 -50.429688 3.441406 -50.742188 3.109375 -51.171875 C 2.773438 -51.609375 2.671875 -51.460938 2.796875 -50.734375 C 3.671875 -47.265625 4.488281 -43.8125 5.25 -40.375 C 6.019531 -36.9375 6.835938 -33.484375 7.703125 -30.015625 L 10.40625 -19.3125 C 10.738281 -19.175781 11.054688 -19.007812 11.359375 -18.8125 C 11.660156 -18.613281 11.941406 -18.445312 12.203125 -18.3125 C 11.941406 -19.175781 11.660156 -20.023438 11.359375 -20.859375 C 11.054688 -21.691406 10.804688 -22.546875 10.609375 -23.421875 C 10.335938 -24.347656 9.96875 -25.726562 9.5 -27.5625 C 9.039062 -29.394531 8.539062 -31.425781 8 -33.65625 C 7.46875 -35.894531 6.914062 -38.113281 6.34375 -40.3125 C 5.78125 -42.519531 5.265625 -44.507812 4.796875 -46.28125 C 4.335938 -48.050781 3.972656 -49.367188 3.703125 -50.234375 Z M 46.125 -19.71875 C 45.394531 -20.84375 44.644531 -21.988281 43.875 -23.15625 C 43.113281 -24.332031 42.332031 -25.453125 41.53125 -26.515625 C 40.0625 -28.515625 38.472656 -30.445312 36.765625 -32.3125 C 35.066406 -34.1875 33.25 -35.957031 31.3125 -37.625 C 27.644531 -41.03125 23.476562 -44.066406 18.8125 -46.734375 L 16.90625 -47.734375 C 17.78125 -43.597656 18.597656 -39.425781 19.359375 -35.21875 C 20.128906 -31.019531 20.847656 -26.851562 21.515625 -22.71875 C 21.773438 -21.25 22.039062 -19.765625 22.3125 -18.265625 C 22.582031 -16.765625 22.847656 -15.242188 23.109375 -13.703125 C 24.648438 -13.171875 26.21875 -12.65625 27.8125 -12.15625 C 29.414062 -11.65625 31.050781 -11.238281 32.71875 -10.90625 C 34.050781 -10.632812 35.148438 -10.429688 36.015625 -10.296875 C 36.890625 -10.171875 37.957031 -10.070312 39.21875 -10 C 40.425781 -10 41.460938 -10.03125 42.328125 -10.09375 C 43.191406 -10.164062 44.160156 -10.335938 45.234375 -10.609375 C 46.097656 -10.804688 46.878906 -11.054688 47.578125 -11.359375 C 48.273438 -11.660156 48.894531 -12.046875 49.4375 -12.515625 C 49.363281 -13.179688 49.191406 -13.796875 48.921875 -14.359375 C 48.660156 -14.921875 48.363281 -15.503906 48.03125 -16.109375 C 47.757812 -16.710938 47.457031 -17.328125 47.125 -17.953125 C 46.789062 -18.585938 46.457031 -19.175781 46.125 -19.71875 Z M 46.125 -19.71875 "/></g></g></g><g fill="#ffbd59" fill-opacity="1"><g transform="translate(87.557653, 186.74846)"><g><path d="M 48.234375 -19.3125 C 47.492188 -16.84375 46.523438 -14.441406 45.328125 -12.109375 C 44.128906 -9.773438 42.5625 -7.738281 40.625 -6 C 40.425781 -5.863281 40.191406 -5.664062 39.921875 -5.40625 C 39.453125 -4.9375 38.816406 -4.351562 38.015625 -3.65625 C 37.222656 -2.957031 36.390625 -2.40625 35.515625 -2 C 33.253906 -0.53125 30.785156 0.117188 28.109375 -0.046875 C 25.441406 -0.210938 22.890625 -0.945312 20.453125 -2.25 C 18.023438 -3.550781 15.976562 -5.171875 14.3125 -7.109375 C 12.644531 -9.035156 11.242188 -11.203125 10.109375 -13.609375 C 9.503906 -13.546875 8.898438 -13.660156 8.296875 -13.953125 C 7.703125 -14.253906 7.238281 -14.773438 6.90625 -15.515625 C 4.4375 -21.710938 3.050781 -28.195312 2.75 -34.96875 C 2.445312 -41.738281 3.03125 -48.359375 4.5 -54.828125 C 4.90625 -56.492188 5.523438 -58.175781 6.359375 -59.875 C 7.191406 -61.582031 8.289062 -62.953125 9.65625 -63.984375 C 11.019531 -65.023438 12.703125 -65.378906 14.703125 -65.046875 C 15.910156 -64.910156 16.992188 -64.457031 17.953125 -63.6875 C 18.921875 -62.925781 19.640625 -61.976562 20.109375 -60.84375 C 20.640625 -59.375 20.6875 -57.753906 20.25 -55.984375 C 19.820312 -54.210938 19.539062 -52.5625 19.40625 -51.03125 C 19.28125 -49.164062 19.21875 -47.28125 19.21875 -45.375 C 19.21875 -43.476562 19.25 -41.59375 19.3125 -39.71875 C 19.582031 -35.851562 20.148438 -32.050781 21.015625 -28.3125 C 21.878906 -24.582031 22.976562 -20.914062 24.3125 -17.3125 C 25.050781 -16.78125 25.800781 -16.328125 26.5625 -15.953125 C 27.332031 -15.585938 28.148438 -15.375 29.015625 -15.3125 C 30.953125 -15.707031 32.617188 -16.507812 34.015625 -17.71875 C 34.816406 -18.84375 35.347656 -20.222656 35.609375 -21.859375 C 35.878906 -23.492188 36.046875 -25.113281 36.109375 -26.71875 C 36.179688 -28.320312 36.253906 -29.6875 36.328125 -30.8125 C 36.660156 -35.289062 36.828125 -39.765625 36.828125 -44.234375 C 36.828125 -48.703125 36.789062 -53.171875 36.71875 -57.640625 C 36.65625 -59.171875 37.320312 -60.335938 38.71875 -61.140625 C 40.125 -61.941406 41.460938 -61.972656 42.734375 -61.234375 L 42.734375 -62.234375 C 42.734375 -62.773438 42.929688 -63.257812 43.328125 -63.6875 C 43.722656 -64.125 44.191406 -64.304688 44.734375 -64.234375 C 46.265625 -64.109375 47.378906 -63.539062 48.078125 -62.53125 C 48.773438 -61.53125 49.238281 -60.378906 49.46875 -59.078125 C 49.707031 -57.785156 49.863281 -56.503906 49.9375 -55.234375 C 50.0625 -54.035156 50.191406 -52.832031 50.328125 -51.625 C 50.460938 -50.425781 50.53125 -49.226562 50.53125 -48.03125 L 50.53125 -44.03125 C 50.726562 -39.894531 50.675781 -35.738281 50.375 -31.5625 C 50.082031 -27.394531 49.367188 -23.3125 48.234375 -19.3125 Z M 19.015625 -54.53125 C 18.742188 -54.394531 18.539062 -54.460938 18.40625 -54.734375 C 18.34375 -54.265625 18.242188 -53.8125 18.109375 -53.375 C 17.972656 -52.945312 17.804688 -52.53125 17.609375 -52.125 C 17.210938 -48.726562 17.03125 -45.328125 17.0625 -41.921875 C 17.09375 -38.523438 17.441406 -35.15625 18.109375 -31.8125 C 18.242188 -31.144531 18.378906 -30.492188 18.515625 -29.859375 C 18.648438 -29.234375 18.78125 -28.617188 18.90625 -28.015625 C 19.039062 -28.015625 19.144531 -27.984375 19.21875 -27.921875 C 17.613281 -36.859375 17.546875 -45.726562 19.015625 -54.53125 Z M 19.015625 -54.53125 "/></g></g></g><g fill="#ffbd59" fill-opacity="1"><g transform="translate(134.280812, 186.74846)"><g><path d="M 61.234375 -10.203125 C 61.367188 -8.804688 61.351562 -7.40625 61.1875 -6 C 61.019531 -4.601562 60.570312 -3.269531 59.84375 -2 C 59.101562 -0.726562 57.945312 0.1875 56.375 0.75 C 54.8125 1.3125 53.394531 0.960938 52.125 -0.296875 C 51 -0.566406 50.035156 -1.148438 49.234375 -2.046875 C 48.429688 -2.953125 48.03125 -4.003906 48.03125 -5.203125 C 47.832031 -13.742188 46.664062 -22.25 44.53125 -30.71875 C 44.0625 -32.851562 43.59375 -34.96875 43.125 -37.0625 C 42.65625 -39.164062 42.1875 -41.253906 41.71875 -43.328125 C 40.519531 -39.859375 39.351562 -36.140625 38.21875 -32.171875 C 37.082031 -28.203125 36.148438 -24.816406 35.421875 -22.015625 C 34.753906 -19.273438 34.101562 -16.472656 33.46875 -13.609375 C 32.832031 -10.742188 32.316406 -8.242188 31.921875 -6.109375 C 31.847656 -5.898438 31.757812 -5.8125 31.65625 -5.84375 C 31.5625 -5.882812 31.515625 -5.9375 31.515625 -6 C 31.453125 -5.53125 31.351562 -5.0625 31.21875 -4.59375 C 31.082031 -4.132812 30.945312 -3.640625 30.8125 -3.109375 C 30.550781 -2.429688 30.234375 -1.828125 29.859375 -1.296875 C 29.492188 -0.765625 28.914062 -0.398438 28.125 -0.203125 C 27.519531 -0.0664062 27.082031 -0.0976562 26.8125 -0.296875 C 26.21875 -0.296875 25.753906 -0.429688 25.421875 -0.703125 C 25.015625 -0.429688 24.710938 -0.53125 24.515625 -1 C 24.046875 -1.726562 23.691406 -2.457031 23.453125 -3.1875 C 23.222656 -3.925781 23.007812 -4.695312 22.8125 -5.5 L 18.515625 -20.8125 C 18.046875 -22.476562 17.59375 -24.144531 17.15625 -25.8125 C 16.726562 -27.476562 16.3125 -29.144531 15.90625 -30.8125 C 15.769531 -31.21875 15.632812 -31.617188 15.5 -32.015625 C 15.375 -32.421875 15.242188 -32.859375 15.109375 -33.328125 C 15.304688 -29.117188 15.488281 -24.847656 15.65625 -20.515625 C 15.820312 -16.179688 15.941406 -11.910156 16.015625 -7.703125 C 16.078125 -6.234375 16.023438 -4.710938 15.859375 -3.140625 C 15.691406 -1.578125 14.804688 -0.429688 13.203125 0.296875 C 12.472656 0.628906 11.90625 0.5625 11.5 0.09375 C 11.375 -0.03125 11.273438 -0.160156 11.203125 -0.296875 C 9.804688 0.171875 8.640625 -0.0625 7.703125 -1 C 6.835938 -1.9375 6.269531 -3.070312 6 -4.40625 C 5.738281 -5.738281 5.539062 -7.003906 5.40625 -8.203125 C 5 -11.140625 4.695312 -14.023438 4.5 -16.859375 C 4.300781 -19.691406 4.171875 -22.546875 4.109375 -25.421875 C 3.898438 -31.359375 3.796875 -37.296875 3.796875 -43.234375 C 3.734375 -46.097656 3.6875 -48.992188 3.65625 -51.921875 C 3.625 -54.859375 3.875 -57.765625 4.40625 -60.640625 C 4.46875 -60.898438 4.664062 -61.03125 5 -61.03125 C 5.332031 -61.03125 5.535156 -60.898438 5.609375 -60.640625 C 5.941406 -58.640625 6.140625 -56.519531 6.203125 -54.28125 C 6.265625 -52.050781 6.332031 -49.867188 6.40625 -47.734375 C 6.539062 -47.734375 6.640625 -47.363281 6.703125 -46.625 C 6.765625 -45.894531 6.832031 -45.53125 6.90625 -45.53125 L 6.90625 -47.828125 C 6.90625 -49.023438 6.882812 -50.207031 6.84375 -51.375 C 6.8125 -52.550781 6.796875 -53.738281 6.796875 -54.9375 C 6.734375 -55.9375 6.71875 -56.96875 6.75 -58.03125 C 6.78125 -59.101562 7.03125 -60.101562 7.5 -61.03125 C 7.5 -62.164062 8.066406 -63.066406 9.203125 -63.734375 C 10.804688 -64.734375 12.472656 -64.96875 14.203125 -64.4375 C 16.203125 -64.039062 17.570312 -62.875 18.3125 -60.9375 C 18.914062 -60.207031 19.28125 -59.304688 19.40625 -58.234375 C 19.539062 -57.035156 19.707031 -55.816406 19.90625 -54.578125 C 20.113281 -53.347656 20.316406 -52.097656 20.515625 -50.828125 C 21.378906 -45.691406 22.34375 -40.320312 23.40625 -34.71875 C 24.476562 -29.113281 25.582031 -23.78125 26.71875 -18.71875 C 27.382812 -21.519531 28.015625 -24.316406 28.609375 -27.109375 C 29.210938 -29.910156 29.847656 -32.710938 30.515625 -35.515625 C 31.453125 -39.859375 32.421875 -44.179688 33.421875 -48.484375 C 34.421875 -52.785156 35.222656 -57.101562 35.828125 -61.4375 C 35.953125 -61.96875 36.25 -62.453125 36.71875 -62.890625 C 37.1875 -63.328125 37.6875 -63.578125 38.21875 -63.640625 C 39.882812 -64.109375 41.351562 -63.972656 42.625 -63.234375 C 43.363281 -63.773438 44.195312 -64.046875 45.125 -64.046875 C 46.0625 -64.046875 46.828125 -63.710938 47.421875 -63.046875 C 48.960938 -61.503906 50.195312 -59.765625 51.125 -57.828125 C 52.0625 -55.898438 52.765625 -53.898438 53.234375 -51.828125 C 53.765625 -49.566406 54.242188 -47.316406 54.671875 -45.078125 C 55.109375 -42.835938 55.53125 -40.585938 55.9375 -38.328125 C 56.070312 -37.453125 56.222656 -36.582031 56.390625 -35.71875 C 56.554688 -34.851562 56.671875 -33.988281 56.734375 -33.125 C 56.929688 -32.382812 57.113281 -31.644531 57.28125 -30.90625 C 57.445312 -30.175781 57.597656 -29.445312 57.734375 -28.71875 C 58.066406 -27.050781 58.382812 -25.414062 58.6875 -23.8125 C 58.988281 -22.207031 59.304688 -20.570312 59.640625 -18.90625 C 59.972656 -17.4375 60.285156 -15.984375 60.578125 -14.546875 C 60.878906 -13.117188 61.097656 -11.671875 61.234375 -10.203125 Z M 19.71875 -37.421875 C 19.914062 -36.953125 20.078125 -36.535156 20.203125 -36.171875 C 20.335938 -35.804688 20.539062 -35.457031 20.8125 -35.125 C 20.34375 -37.65625 19.804688 -40.570312 19.203125 -43.875 C 18.609375 -47.175781 18.078125 -50.097656 17.609375 -52.640625 C 17.546875 -53.367188 17.445312 -54.113281 17.3125 -54.875 C 17.175781 -55.644531 17.007812 -56.429688 16.8125 -57.234375 C 16.40625 -56.960938 15.9375 -56.765625 15.40625 -56.640625 C 15.40625 -56.503906 15.375 -56.367188 15.3125 -56.234375 C 16.039062 -53.160156 16.753906 -50.125 17.453125 -47.125 C 18.160156 -44.125 18.847656 -41.054688 19.515625 -37.921875 C 19.648438 -37.785156 19.71875 -37.617188 19.71875 -37.421875 Z M 34.921875 -22.21875 C 35.859375 -26.019531 36.859375 -29.820312 37.921875 -33.625 C 38.992188 -37.425781 40.160156 -41.191406 41.421875 -44.921875 C 41.359375 -45.253906 41.289062 -45.585938 41.21875 -45.921875 C 41.15625 -46.253906 41.054688 -46.585938 40.921875 -46.921875 C 39.859375 -43.660156 38.859375 -40.34375 37.921875 -36.96875 C 36.984375 -33.601562 36.117188 -30.21875 35.328125 -26.8125 C 35.253906 -26.082031 35.132812 -25.332031 34.96875 -24.5625 C 34.800781 -23.800781 34.648438 -23.050781 34.515625 -22.3125 C 34.585938 -22.25 34.691406 -22.21875 34.828125 -22.21875 Z M 34.921875 -22.21875 "/></g></g></g><g fill="#ffbd59" fill-opacity="1"><g transform="translate(190.008569, 186.74846)"><g><path d="M 45.421875 -34.015625 C 44.554688 -32.421875 43.335938 -31.238281 41.765625 -30.46875 C 40.203125 -29.695312 38.488281 -29.242188 36.625 -29.109375 C 34.757812 -28.984375 32.875 -29.019531 30.96875 -29.21875 C 29.070312 -29.414062 27.351562 -29.648438 25.8125 -29.921875 C 25.34375 -30.054688 24.890625 -30.15625 24.453125 -30.21875 C 24.023438 -30.28125 23.578125 -30.347656 23.109375 -30.421875 C 23.242188 -29.816406 23.378906 -29.210938 23.515625 -28.609375 C 23.648438 -28.015625 23.75 -27.453125 23.8125 -26.921875 C 24.28125 -24.453125 24.726562 -21.984375 25.15625 -19.515625 C 25.59375 -17.046875 25.945312 -14.578125 26.21875 -12.109375 C 26.351562 -10.910156 26.382812 -9.691406 26.3125 -8.453125 C 26.25 -7.222656 26.050781 -6.039062 25.71875 -4.90625 C 25.25 -3.238281 24.25 -1.703125 22.71875 -0.296875 C 22.175781 0.171875 21.457031 0.550781 20.5625 0.84375 C 19.664062 1.144531 18.914062 0.929688 18.3125 0.203125 C 17.78125 -0.535156 17.460938 -1.351562 17.359375 -2.25 C 17.253906 -3.15625 17.140625 -4.039062 17.015625 -4.90625 C 16.941406 -5.5 16.851562 -6.113281 16.75 -6.75 C 16.65625 -7.382812 16.578125 -8.035156 16.515625 -8.703125 C 16.046875 -10.304688 15.644531 -12.007812 15.3125 -13.8125 C 15.375 -13.28125 15.4375 -12.757812 15.5 -12.25 C 15.570312 -11.75 15.640625 -11.234375 15.703125 -10.703125 C 15.835938 -9.835938 15.953125 -8.96875 16.046875 -8.09375 C 16.148438 -7.226562 16.269531 -6.363281 16.40625 -5.5 C 16.476562 -4.832031 16.5625 -4.148438 16.65625 -3.453125 C 16.757812 -2.753906 16.710938 -2.101562 16.515625 -1.5 C 16.515625 -1.4375 16.476562 -1.4375 16.40625 -1.5 C 16.007812 -2.101562 15.773438 -2.820312 15.703125 -3.65625 C 15.640625 -4.488281 15.539062 -5.238281 15.40625 -5.90625 L 14.515625 -11.109375 C 14.242188 -12.835938 13.972656 -14.550781 13.703125 -16.25 C 13.441406 -17.957031 13.175781 -19.675781 12.90625 -21.40625 C 12.570312 -23.476562 12.253906 -25.546875 11.953125 -27.609375 C 11.648438 -29.679688 11.332031 -31.753906 11 -33.828125 C 7.800781 -35.085938 4.734375 -36.488281 1.796875 -38.03125 C 1.734375 -38.09375 1.734375 -38.15625 1.796875 -38.21875 C 1.867188 -38.289062 1.9375 -38.289062 2 -38.21875 C 3.46875 -37.550781 4.953125 -36.898438 6.453125 -36.265625 C 7.953125 -35.640625 9.4375 -35.054688 10.90625 -34.515625 C 10.84375 -34.847656 10.773438 -35.148438 10.703125 -35.421875 C 10.640625 -35.691406 10.570312 -35.957031 10.5 -36.21875 C 9.375 -36.6875 8.257812 -37.171875 7.15625 -37.671875 C 6.050781 -38.171875 4.929688 -38.65625 3.796875 -39.125 C 2.734375 -39.65625 2.066406 -40.554688 1.796875 -41.828125 C 1.535156 -43.097656 1.671875 -44.195312 2.203125 -45.125 C 2.671875 -45.863281 3.40625 -46.460938 4.40625 -46.921875 C 5.40625 -47.390625 6.335938 -47.457031 7.203125 -47.125 L 7.8125 -46.828125 C 7.207031 -49.023438 6.570312 -51.222656 5.90625 -53.421875 C 5.238281 -55.628906 4.535156 -57.800781 3.796875 -59.9375 C 3.535156 -60.800781 3.632812 -61.582031 4.09375 -62.28125 C 4.5625 -62.988281 5.164062 -63.472656 5.90625 -63.734375 C 5.832031 -64.203125 5.910156 -64.601562 6.140625 -64.9375 C 6.378906 -65.269531 6.632812 -65.570312 6.90625 -65.84375 C 8.570312 -66.976562 10.390625 -67.359375 12.359375 -66.984375 C 14.328125 -66.617188 16.113281 -66.035156 17.71875 -65.234375 C 19.382812 -64.367188 21 -63.453125 22.5625 -62.484375 C 24.132812 -61.515625 25.6875 -60.53125 27.21875 -59.53125 C 30.351562 -57.46875 33.40625 -55.25 36.375 -52.875 C 39.34375 -50.507812 42.257812 -48.0625 45.125 -45.53125 C 45.925781 -44.863281 46.257812 -44.097656 46.125 -43.234375 C 46.726562 -42.222656 47.128906 -41.21875 47.328125 -40.21875 C 47.523438 -38.820312 47.441406 -37.625 47.078125 -36.625 C 46.710938 -35.625 46.160156 -34.753906 45.421875 -34.015625 Z M 33.421875 -44.734375 C 31.953125 -45.597656 30.5 -46.445312 29.0625 -47.28125 C 27.632812 -48.113281 26.1875 -48.929688 24.71875 -49.734375 C 23.644531 -50.265625 22.539062 -50.8125 21.40625 -51.375 C 20.28125 -51.945312 19.148438 -52.46875 18.015625 -52.9375 C 18.546875 -51.0625 19.046875 -49.15625 19.515625 -47.21875 C 19.984375 -45.289062 20.414062 -43.359375 20.8125 -41.421875 C 23.007812 -40.691406 25.144531 -40.09375 27.21875 -39.625 C 28.882812 -39.289062 30.566406 -39.039062 32.265625 -38.875 C 33.972656 -38.707031 35.660156 -38.691406 37.328125 -38.828125 C 37.660156 -38.828125 38.007812 -38.84375 38.375 -38.875 C 38.738281 -38.90625 39.054688 -38.957031 39.328125 -39.03125 L 40.125 -39.21875 C 39.988281 -39.488281 39.851562 -39.691406 39.71875 -39.828125 C 39.050781 -40.890625 38.117188 -41.804688 36.921875 -42.578125 C 35.722656 -43.347656 34.554688 -44.066406 33.421875 -44.734375 Z M 28.21875 -31.3125 C 27.351562 -31.445312 26.453125 -31.597656 25.515625 -31.765625 C 24.578125 -31.929688 23.644531 -32.113281 22.71875 -32.3125 C 22.78125 -32.1875 22.8125 -32.054688 22.8125 -31.921875 C 22.8125 -31.785156 22.847656 -31.648438 22.921875 -31.515625 C 23.117188 -31.453125 23.300781 -31.398438 23.46875 -31.359375 C 23.632812 -31.328125 23.816406 -31.3125 24.015625 -31.3125 C 25.953125 -31.050781 27.9375 -30.800781 29.96875 -30.5625 C 32 -30.332031 33.984375 -30.316406 35.921875 -30.515625 L 39.71875 -31.125 C 39.71875 -31.1875 39.367188 -31.179688 38.671875 -31.109375 C 37.972656 -31.046875 37.625 -31.050781 37.625 -31.125 C 35.957031 -30.914062 34.289062 -30.84375 32.625 -30.90625 C 30.957031 -30.976562 29.488281 -31.113281 28.21875 -31.3125 Z M 23.21875 -13.703125 C 23.351562 -12.035156 23.398438 -10.332031 23.359375 -8.59375 C 23.328125 -6.863281 22.910156 -5.234375 22.109375 -3.703125 L 22.3125 -3.40625 C 22.71875 -3.601562 23.050781 -3.835938 23.3125 -4.109375 C 24.050781 -5.640625 24.367188 -7.238281 24.265625 -8.90625 C 24.160156 -10.570312 23.941406 -12.238281 23.609375 -13.90625 L 23.015625 -17.015625 C 22.953125 -16.941406 22.953125 -16.703125 23.015625 -16.296875 C 23.078125 -15.898438 23.078125 -15.703125 23.015625 -15.703125 Z M 23.21875 -13.703125 "/></g></g></g><g fill="#ffbd59" fill-opacity="1"><g transform="translate(232.72968, 186.74846)"><g><path d="M 2.296875 -52.828125 C 5.628906 -54.566406 9.097656 -56.035156 12.703125 -57.234375 C 16.304688 -58.429688 19.910156 -59.5 23.515625 -60.4375 L 25.8125 -61.03125 C 27.882812 -61.4375 29.953125 -61.820312 32.015625 -62.1875 C 34.085938 -62.550781 36.191406 -62.800781 38.328125 -62.9375 C 38.796875 -63.007812 39.242188 -63.046875 39.671875 -63.046875 C 40.109375 -63.046875 40.5625 -63.046875 41.03125 -63.046875 C 39.09375 -62.578125 37.125 -62.09375 35.125 -61.59375 C 33.125 -61.09375 31.15625 -60.609375 29.21875 -60.140625 C 25.8125 -59.398438 22.425781 -58.613281 19.0625 -57.78125 C 15.695312 -56.945312 12.34375 -55.960938 9 -54.828125 C 7.863281 -54.492188 6.742188 -54.109375 5.640625 -53.671875 C 4.546875 -53.242188 3.429688 -52.765625 2.296875 -52.234375 C 2.035156 -52.367188 2.035156 -52.566406 2.296875 -52.828125 Z M 58.4375 -12.109375 C 58.300781 -11.503906 57.96875 -11.171875 57.4375 -11.109375 C 53.769531 -10.441406 50.082031 -9.625 46.375 -8.65625 C 42.675781 -7.6875 39.054688 -6.566406 35.515625 -5.296875 C 33.847656 -4.703125 32.164062 -4.101562 30.46875 -3.5 C 28.769531 -2.90625 27.085938 -2.238281 25.421875 -1.5 L 25.3125 -1.5 C 25.25 -1.4375 25.148438 -1.382812 25.015625 -1.34375 C 24.878906 -1.3125 24.742188 -1.265625 24.609375 -1.203125 C 24.078125 -0.929688 23.523438 -0.695312 22.953125 -0.5 C 22.390625 -0.300781 21.84375 -0.0664062 21.3125 0.203125 L 21.21875 0.296875 C 20.8125 0.566406 20.054688 0.898438 18.953125 1.296875 C 17.859375 1.703125 16.828125 2.035156 15.859375 2.296875 C 14.890625 2.566406 14.40625 2.703125 14.40625 2.703125 C 14.40625 2.703125 14.285156 2.71875 14.046875 2.75 C 13.816406 2.78125 13.601562 2.796875 13.40625 2.796875 C 12.601562 2.929688 11.800781 2.929688 11 2.796875 C 10.207031 2.671875 9.609375 2.171875 9.203125 1.296875 C 9.003906 0.898438 8.972656 0.4375 9.109375 -0.09375 C 7.835938 -0.632812 6.851562 -1.550781 6.15625 -2.84375 C 5.457031 -4.144531 5.335938 -5.429688 5.796875 -6.703125 C 5.535156 -8.441406 5.320312 -10.191406 5.15625 -11.953125 C 4.988281 -13.722656 4.835938 -15.472656 4.703125 -17.203125 L 3.5 -29.21875 L 2.296875 -40.625 C 1.035156 -42.03125 0.503906 -43.664062 0.703125 -45.53125 C 0.898438 -47.394531 1.734375 -48.960938 3.203125 -50.234375 C 3.265625 -50.367188 3.328125 -50.5 3.390625 -50.625 C 3.460938 -50.757812 3.535156 -50.894531 3.609375 -51.03125 C 4.671875 -51.5 5.734375 -51.929688 6.796875 -52.328125 C 7.867188 -52.734375 8.9375 -53.101562 10 -53.4375 C 13.34375 -54.570312 16.695312 -55.554688 20.0625 -56.390625 C 23.425781 -57.222656 26.8125 -57.972656 30.21875 -58.640625 C 32.882812 -59.234375 35.519531 -59.878906 38.125 -60.578125 C 40.726562 -61.285156 43.328125 -61.972656 45.921875 -62.640625 C 46.253906 -62.578125 46.601562 -62.523438 46.96875 -62.484375 C 47.34375 -62.453125 47.664062 -62.367188 47.9375 -62.234375 L 49.53125 -61.640625 C 49.800781 -61.441406 50.066406 -61.222656 50.328125 -60.984375 C 50.597656 -60.753906 50.863281 -60.539062 51.125 -60.34375 C 51.457031 -59.269531 51.691406 -58.21875 51.828125 -57.1875 C 51.960938 -56.15625 51.929688 -55.140625 51.734375 -54.140625 L 46.734375 -52.640625 C 45.660156 -52.296875 44.539062 -51.957031 43.375 -51.625 C 42.207031 -51.289062 41.054688 -50.957031 39.921875 -50.625 C 39.660156 -50.5 39.460938 -50.4375 39.328125 -50.4375 C 38.054688 -50.101562 36.566406 -49.6875 34.859375 -49.1875 C 33.160156 -48.6875 31.460938 -48.179688 29.765625 -47.671875 C 28.066406 -47.171875 26.613281 -46.722656 25.40625 -46.328125 C 24.207031 -45.929688 23.476562 -45.664062 23.21875 -45.53125 C 21.613281 -45 20.007812 -44.429688 18.40625 -43.828125 C 16.8125 -43.222656 15.242188 -42.585938 13.703125 -41.921875 L 13.515625 -41.71875 C 13.578125 -41.382812 13.65625 -40.832031 13.75 -40.0625 C 13.851562 -39.300781 13.953125 -38.585938 14.046875 -37.921875 C 14.148438 -37.253906 14.203125 -36.820312 14.203125 -36.625 C 17.003906 -37.820312 19.789062 -39.003906 22.5625 -40.171875 C 25.332031 -41.335938 28.148438 -42.457031 31.015625 -43.53125 C 32.617188 -43.925781 34.238281 -44.335938 35.875 -44.765625 C 37.507812 -45.203125 39.125 -45.65625 40.71875 -46.125 L 42.03125 -46.421875 C 42.625 -46.554688 43.203125 -46.640625 43.765625 -46.671875 C 44.335938 -46.710938 44.925781 -46.765625 45.53125 -46.828125 C 46.789062 -46.890625 47.988281 -46.804688 49.125 -46.578125 C 50.257812 -46.347656 51.160156 -45.628906 51.828125 -44.421875 C 51.960938 -44.296875 52.046875 -44.164062 52.078125 -44.03125 C 52.109375 -43.894531 52.160156 -43.757812 52.234375 -43.625 C 52.367188 -43.425781 52.46875 -43.226562 52.53125 -43.03125 C 52.601562 -42.832031 52.671875 -42.628906 52.734375 -42.421875 C 52.796875 -42.359375 52.863281 -42.328125 52.9375 -42.328125 C 53.863281 -41.859375 54.429688 -41.023438 54.640625 -39.828125 C 54.835938 -38.890625 54.6875 -37.9375 54.1875 -36.96875 C 53.6875 -36 52.96875 -35.285156 52.03125 -34.828125 C 50.96875 -34.359375 49.882812 -34.070312 48.78125 -33.96875 C 47.675781 -33.875 46.554688 -33.691406 45.421875 -33.421875 C 44.222656 -33.222656 43.003906 -33.003906 41.765625 -32.765625 C 40.535156 -32.535156 39.320312 -32.253906 38.125 -31.921875 C 35.71875 -31.253906 33.332031 -30.535156 30.96875 -29.765625 C 28.601562 -29.003906 26.253906 -28.117188 23.921875 -27.109375 C 22.453125 -26.515625 21.03125 -25.882812 19.65625 -25.21875 C 18.289062 -24.550781 16.910156 -23.847656 15.515625 -23.109375 L 16.109375 -16.609375 C 16.109375 -16.546875 16.109375 -16.492188 16.109375 -16.453125 C 16.109375 -16.421875 16.109375 -16.335938 16.109375 -16.203125 L 16.40625 -16.40625 C 17.539062 -16.9375 18.65625 -17.421875 19.75 -17.859375 C 20.851562 -18.296875 21.941406 -18.75 23.015625 -19.21875 L 31.515625 -22.515625 C 32.253906 -22.847656 33.003906 -23.144531 33.765625 -23.40625 C 34.535156 -23.675781 35.285156 -23.945312 36.015625 -24.21875 C 37.222656 -24.6875 38.425781 -25.132812 39.625 -25.5625 C 40.820312 -26 42.023438 -26.414062 43.234375 -26.8125 L 47.125 -28.015625 C 47.664062 -28.148438 48.203125 -28.332031 48.734375 -28.5625 C 49.265625 -28.800781 49.796875 -28.988281 50.328125 -29.125 C 52.265625 -29.519531 53.847656 -29.347656 55.078125 -28.609375 C 56.316406 -27.878906 57.300781 -26.8125 58.03125 -25.40625 C 58.769531 -24.007812 59.320312 -22.476562 59.6875 -20.8125 C 60.050781 -19.144531 60.269531 -17.609375 60.34375 -16.203125 C 60.40625 -15.335938 60.253906 -14.554688 59.890625 -13.859375 C 59.523438 -13.160156 59.039062 -12.578125 58.4375 -12.109375 Z M 34.21875 -33.328125 C 32.6875 -32.859375 31.132812 -32.390625 29.5625 -31.921875 C 28 -31.453125 26.453125 -30.953125 24.921875 -30.421875 C 23.921875 -30.148438 22.9375 -29.863281 21.96875 -29.5625 C 21 -29.269531 20.046875 -28.988281 19.109375 -28.71875 C 18.910156 -27.582031 18.378906 -26.648438 17.515625 -25.921875 C 19.984375 -27.179688 22.5 -28.3125 25.0625 -29.3125 C 27.632812 -30.3125 30.15625 -31.3125 32.625 -32.3125 C 33.15625 -32.582031 33.722656 -32.816406 34.328125 -33.015625 Z M 12.109375 1.296875 C 12.835938 1.367188 13.671875 1.382812 14.609375 1.34375 C 15.546875 1.3125 16.078125 1.265625 16.203125 1.203125 C 16.335938 1.203125 16.441406 1.164062 16.515625 1.09375 C 16.910156 0.894531 17.304688 0.695312 17.703125 0.5 C 18.109375 0.300781 18.476562 0.101562 18.8125 -0.09375 C 19.613281 -0.5 20.394531 -0.898438 21.15625 -1.296875 C 21.925781 -1.703125 22.679688 -2.101562 23.421875 -2.5 L 23.421875 -2.703125 C 22.546875 -2.367188 21.640625 -2.035156 20.703125 -1.703125 C 19.773438 -1.367188 18.84375 -1.035156 17.90625 -0.703125 C 16.976562 -0.367188 16.03125 -0.0195312 15.0625 0.34375 C 14.09375 0.71875 13.109375 1.035156 12.109375 1.296875 Z M 12.109375 1.296875 "/></g></g></g><g fill="#ffbd59" fill-opacity="1"><g transform="translate(288.457444, 186.74846)"><g><path d="M 57.640625 -9.109375 C 56.703125 -6.898438 55.113281 -5.09375 52.875 -3.6875 C 50.644531 -2.289062 48.394531 -1.328125 46.125 -0.796875 C 43.519531 -0.203125 40.914062 0.078125 38.3125 0.046875 C 35.71875 0.015625 33.085938 -0.195312 30.421875 -0.59375 C 27.816406 -1 25.347656 -1.5 23.015625 -2.09375 C 22.546875 -1.09375 21.910156 -0.492188 21.109375 -0.296875 C 20.640625 -0.234375 20.175781 -0.300781 19.71875 -0.5 C 19.25 -0.03125 18.710938 0.203125 18.109375 0.203125 C 17.441406 0.265625 16.789062 0.226562 16.15625 0.09375 C 15.519531 -0.03125 14.9375 -0.257812 14.40625 -0.59375 C 13.34375 -1.332031 12.578125 -2.132812 12.109375 -3 C 11.640625 -3.863281 11.269531 -4.898438 11 -6.109375 C 9.40625 -6.773438 7.820312 -7.457031 6.25 -8.15625 C 4.6875 -8.851562 3.132812 -9.601562 1.59375 -10.40625 C 0.132812 -11.207031 -0.789062 -12.441406 -1.1875 -14.109375 C -1.59375 -15.773438 -1.363281 -17.3125 -0.5 -18.71875 C 0.300781 -20.113281 1.519531 -21.023438 3.15625 -21.453125 C 4.789062 -21.890625 6.304688 -21.707031 7.703125 -20.90625 L 8.109375 -20.609375 C 8.035156 -21.210938 7.929688 -21.796875 7.796875 -22.359375 C 7.671875 -22.929688 7.539062 -23.515625 7.40625 -24.109375 C 6.332031 -29.710938 5.210938 -35.300781 4.046875 -40.875 C 2.878906 -46.445312 1.726562 -52 0.59375 -57.53125 C 0.53125 -57.738281 0.460938 -57.941406 0.390625 -58.140625 C 0.328125 -58.335938 0.265625 -58.503906 0.203125 -58.640625 C -0.0664062 -59.640625 0.09375 -60.519531 0.6875 -61.28125 C 1.289062 -62.050781 2.03125 -62.503906 2.90625 -62.640625 C 3.164062 -62.703125 3.410156 -62.75 3.640625 -62.78125 C 3.878906 -62.820312 4.097656 -62.84375 4.296875 -62.84375 C 4.628906 -63.707031 5.265625 -64.390625 6.203125 -64.890625 C 7.140625 -65.390625 8.171875 -65.722656 9.296875 -65.890625 C 10.429688 -66.054688 11.367188 -66.109375 12.109375 -66.046875 C 15.441406 -65.773438 18.390625 -64.703125 20.953125 -62.828125 C 23.523438 -60.960938 25.976562 -58.898438 28.3125 -56.640625 C 30.914062 -54.171875 33.5 -51.632812 36.0625 -49.03125 C 38.632812 -46.425781 41.125 -43.757812 43.53125 -41.03125 C 44.394531 -40.15625 45.242188 -39.234375 46.078125 -38.265625 C 46.910156 -37.304688 47.695312 -36.328125 48.4375 -35.328125 C 49.695312 -33.660156 50.910156 -31.957031 52.078125 -30.21875 C 53.242188 -28.488281 54.296875 -26.65625 55.234375 -24.71875 C 56.429688 -22.382812 57.414062 -19.847656 58.1875 -17.109375 C 58.957031 -14.378906 58.773438 -11.710938 57.640625 -9.109375 Z M 3.703125 -50.234375 C 3.640625 -50.429688 3.441406 -50.742188 3.109375 -51.171875 C 2.773438 -51.609375 2.671875 -51.460938 2.796875 -50.734375 C 3.671875 -47.265625 4.488281 -43.8125 5.25 -40.375 C 6.019531 -36.9375 6.835938 -33.484375 7.703125 -30.015625 L 10.40625 -19.3125 C 10.738281 -19.175781 11.054688 -19.007812 11.359375 -18.8125 C 11.660156 -18.613281 11.941406 -18.445312 12.203125 -18.3125 C 11.941406 -19.175781 11.660156 -20.023438 11.359375 -20.859375 C 11.054688 -21.691406 10.804688 -22.546875 10.609375 -23.421875 C 10.335938 -24.347656 9.96875 -25.726562 9.5 -27.5625 C 9.039062 -29.394531 8.539062 -31.425781 8 -33.65625 C 7.46875 -35.894531 6.914062 -38.113281 6.34375 -40.3125 C 5.78125 -42.519531 5.265625 -44.507812 4.796875 -46.28125 C 4.335938 -48.050781 3.972656 -49.367188 3.703125 -50.234375 Z M 46.125 -19.71875 C 45.394531 -20.84375 44.644531 -21.988281 43.875 -23.15625 C 43.113281 -24.332031 42.332031 -25.453125 41.53125 -26.515625 C 40.0625 -28.515625 38.472656 -30.445312 36.765625 -32.3125 C 35.066406 -34.1875 33.25 -35.957031 31.3125 -37.625 C 27.644531 -41.03125 23.476562 -44.066406 18.8125 -46.734375 L 16.90625 -47.734375 C 17.78125 -43.597656 18.597656 -39.425781 19.359375 -35.21875 C 20.128906 -31.019531 20.847656 -26.851562 21.515625 -22.71875 C 21.773438 -21.25 22.039062 -19.765625 22.3125 -18.265625 C 22.582031 -16.765625 22.847656 -15.242188 23.109375 -13.703125 C 24.648438 -13.171875 26.21875 -12.65625 27.8125 -12.15625 C 29.414062 -11.65625 31.050781 -11.238281 32.71875 -10.90625 C 34.050781 -10.632812 35.148438 -10.429688 36.015625 -10.296875 C 36.890625 -10.171875 37.957031 -10.070312 39.21875 -10 C 40.425781 -10 41.460938 -10.03125 42.328125 -10.09375 C 43.191406 -10.164062 44.160156 -10.335938 45.234375 -10.609375 C 46.097656 -10.804688 46.878906 -11.054688 47.578125 -11.359375 C 48.273438 -11.660156 48.894531 -12.046875 49.4375 -12.515625 C 49.363281 -13.179688 49.191406 -13.796875 48.921875 -14.359375 C 48.660156 -14.921875 48.363281 -15.503906 48.03125 -16.109375 C 47.757812 -16.710938 47.457031 -17.328125 47.125 -17.953125 C 46.789062 -18.585938 46.457031 -19.175781 46.125 -19.71875 Z M 46.125 -19.71875 "/></g></g></g><g fill="#545454" fill-opacity="1"><g transform="translate(84.399366, 251.495784)"><g><path d="M 28.46875 1 C 24.90625 1 21.554688 0.347656 18.421875 -0.953125 C 15.296875 -2.265625 12.582031 -4.054688 10.28125 -6.328125 C 7.976562 -8.609375 6.148438 -11.328125 4.796875 -14.484375 C 3.453125 -17.640625 2.78125 -21.066406 2.78125 -24.765625 L 2.78125 -24.90625 C 2.78125 -28.507812 3.441406 -31.898438 4.765625 -35.078125 C 6.097656 -38.265625 7.914062 -41.007812 10.21875 -43.3125 C 12.519531 -45.613281 15.28125 -47.4375 18.5 -48.78125 C 21.726562 -50.132812 25.21875 -50.8125 28.96875 -50.8125 C 34.039062 -50.8125 38.285156 -49.835938 41.703125 -47.890625 C 45.117188 -45.953125 47.921875 -43.488281 50.109375 -40.5 L 39.71875 -32.453125 C 38.289062 -34.210938 36.710938 -35.625 34.984375 -36.6875 C 33.253906 -37.757812 31.203125 -38.296875 28.828125 -38.296875 C 27.066406 -38.296875 25.460938 -37.9375 24.015625 -37.21875 C 22.566406 -36.507812 21.320312 -35.5625 20.28125 -34.375 C 19.238281 -33.1875 18.421875 -31.785156 17.828125 -30.171875 C 17.234375 -28.554688 16.9375 -26.847656 16.9375 -25.046875 L 16.9375 -24.90625 C 16.9375 -23.0625 17.234375 -21.316406 17.828125 -19.671875 C 18.421875 -18.035156 19.238281 -16.625 20.28125 -15.4375 C 21.320312 -14.257812 22.566406 -13.320312 24.015625 -12.625 C 25.460938 -11.9375 27.066406 -11.59375 28.828125 -11.59375 C 31.390625 -11.59375 33.535156 -12.148438 35.265625 -13.265625 C 36.992188 -14.390625 38.59375 -15.851562 40.0625 -17.65625 L 50.453125 -10.25 C 48.128906 -7.019531 45.25 -4.335938 41.8125 -2.203125 C 38.375 -0.0664062 33.925781 1 28.46875 1 Z M 28.46875 1 "/></g></g></g><g fill="#545454" fill-opacity="1"><g transform="translate(136.423129, 251.495784)"><g><path d="M 0.5 0 L 21.640625 -50.171875 L 34.953125 -50.171875 L 56.15625 0 L 41.34375 0 L 37.796875 -8.96875 L 18.5 -8.96875 L 14.953125 0 Z M 22.5625 -19.71875 L 33.734375 -19.71875 L 28.1875 -33.8125 Z M 22.5625 -19.71875 "/></g></g></g><g fill="#545454" fill-opacity="1"><g transform="translate(193.001639, 251.495784)"><g><path d="M 4.40625 0 L 4.40625 -49.8125 L 27.96875 -49.8125 C 31.769531 -49.8125 35.007812 -49.335938 37.6875 -48.390625 C 40.363281 -47.441406 42.535156 -46.140625 44.203125 -44.484375 C 45.671875 -43.015625 46.769531 -41.316406 47.5 -39.390625 C 48.238281 -37.472656 48.609375 -35.300781 48.609375 -32.875 L 48.609375 -32.734375 C 48.609375 -28.890625 47.671875 -25.695312 45.796875 -23.15625 C 43.921875 -20.625 41.441406 -18.691406 38.359375 -17.359375 L 50.25 0 L 34.375 0 L 24.34375 -15.09375 L 18.21875 -15.09375 L 18.21875 0 Z M 18.21875 -25.90625 L 27.40625 -25.90625 C 29.726562 -25.90625 31.539062 -26.4375 32.84375 -27.5 C 34.144531 -28.570312 34.796875 -30.007812 34.796875 -31.8125 L 34.796875 -31.953125 C 34.796875 -33.953125 34.117188 -35.445312 32.765625 -36.4375 C 31.421875 -37.4375 29.609375 -37.9375 27.328125 -37.9375 L 18.21875 -37.9375 Z M 18.21875 -25.90625 "/></g></g></g><g fill="#545454" fill-opacity="1"><g transform="translate(244.171386, 251.495784)"><g><path d="M 23.984375 0.859375 C 19.566406 0.859375 15.34375 0.160156 11.3125 -1.234375 C 7.28125 -2.640625 3.722656 -4.695312 0.640625 -7.40625 L 8.328125 -16.578125 C 10.796875 -14.640625 13.394531 -13.160156 16.125 -12.140625 C 18.851562 -11.117188 21.640625 -10.609375 24.484375 -10.609375 C 26.378906 -10.609375 27.8125 -10.914062 28.78125 -11.53125 C 29.757812 -12.144531 30.25 -12.972656 30.25 -14.015625 L 30.25 -14.15625 C 30.25 -15.207031 29.691406 -16.078125 28.578125 -16.765625 C 27.460938 -17.453125 25.195312 -18.195312 21.78125 -19 C 19.125 -19.613281 16.644531 -20.289062 14.34375 -21.03125 C 12.039062 -21.769531 10.054688 -22.71875 8.390625 -23.875 C 6.734375 -25.039062 5.414062 -26.488281 4.4375 -28.21875 C 3.46875 -29.945312 2.984375 -32.070312 2.984375 -34.59375 L 2.984375 -34.734375 C 2.984375 -37.054688 3.429688 -39.191406 4.328125 -41.140625 C 5.234375 -43.085938 6.503906 -44.757812 8.140625 -46.15625 C 9.785156 -47.550781 11.804688 -48.648438 14.203125 -49.453125 C 16.597656 -50.265625 19.289062 -50.671875 22.28125 -50.671875 C 26.5 -50.671875 30.289062 -50.113281 33.65625 -49 C 37.03125 -47.882812 40.070312 -46.238281 42.78125 -44.0625 L 35.875 -34.3125 C 33.59375 -35.914062 31.238281 -37.132812 28.8125 -37.96875 C 26.394531 -38.800781 24.097656 -39.21875 21.921875 -39.21875 C 20.265625 -39.21875 19.019531 -38.90625 18.1875 -38.28125 C 17.351562 -37.664062 16.9375 -36.910156 16.9375 -36.015625 L 16.9375 -35.875 C 16.9375 -34.726562 17.515625 -33.820312 18.671875 -33.15625 C 19.835938 -32.5 22.15625 -31.789062 25.625 -31.03125 C 31.269531 -29.800781 35.765625 -28.066406 39.109375 -25.828125 C 42.453125 -23.597656 44.125 -20.160156 44.125 -15.515625 L 44.125 -15.375 C 44.125 -12.851562 43.632812 -10.582031 42.65625 -8.5625 C 41.6875 -6.550781 40.320312 -4.847656 38.5625 -3.453125 C 36.8125 -2.054688 34.691406 -0.988281 32.203125 -0.25 C 29.710938 0.488281 26.972656 0.859375 23.984375 0.859375 Z M 23.984375 0.859375 "/></g></g></g></svg>